<?xml version="1.0" encoding="utf-8"?>
<!-- Generator: Adobe Illustrator 26.0.3, SVG Export Plug-In . SVG Version: 6.00 Build 0)  -->
<svg version="1.1" id="Layer_1" xmlns="http://www.w3.org/2000/svg" xmlns:xlink="http://www.w3.org/1999/xlink" x="0px" y="0px"
	 viewBox="0 0 500 500" style="enable-background:new 0 0 500 500;" xml:space="preserve">
<style type="text/css">
	.st0{opacity:0.1;fill:#3399CC;}
	.st1{fill:url(#SVGID_1_);stroke:#000000;stroke-width:2;stroke-miterlimit:10;}
	.st2{fill:url(#SVGID_00000031178595693594312120000003632873945606923914_);stroke:#000000;stroke-width:2;stroke-miterlimit:10;}
	.st3{fill:url(#SVGID_00000108308260469070603330000008429078680731741604_);stroke:#000000;stroke-width:2;stroke-miterlimit:10;}
	.st4{fill:url(#SVGID_00000016048445198167644390000010159036350165672373_);stroke:#000000;stroke-width:2;stroke-miterlimit:10;}
	.st5{fill:url(#SVGID_00000107555013657178257570000012234812708132998829_);stroke:#000000;stroke-width:2;stroke-miterlimit:10;}
	.st6{fill:url(#SVGID_00000142163409351697428350000007795385661026691003_);stroke:#000000;stroke-width:2;stroke-miterlimit:10;}
	.st7{fill:url(#SVGID_00000140725337077299167630000004784412395337505920_);stroke:#000000;stroke-width:2;stroke-miterlimit:10;}
	.st8{fill:url(#SVGID_00000101805639720441438690000008693568813092592774_);stroke:#000000;stroke-width:2;stroke-miterlimit:10;}
	.st9{fill:url(#SVGID_00000151516443495272002360000010456508215468038532_);stroke:#000000;stroke-width:2;stroke-miterlimit:10;}
	.st10{fill:url(#SVGID_00000035531134302507272360000010346171090496716458_);stroke:#000000;stroke-width:2;stroke-miterlimit:10;}
	.st11{fill:url(#SVGID_00000052105402092338407840000011138182070168643222_);stroke:#000000;stroke-width:2;stroke-miterlimit:10;}
	.st12{fill:url(#SVGID_00000124136935758431427660000015073070872614008494_);stroke:#000000;stroke-width:2;stroke-miterlimit:10;}
	.st13{fill:url(#SVGID_00000081647190942710875680000012678741876829922455_);stroke:#000000;stroke-width:2;stroke-miterlimit:10;}
	.st14{fill:url(#SVGID_00000100369545663998862300000004992871135697059459_);stroke:#000000;stroke-width:2;stroke-miterlimit:10;}
	.st15{fill:url(#SVGID_00000026884620829918635740000005642597592714698641_);stroke:#000000;stroke-width:2;stroke-miterlimit:10;}
	.st16{fill:url(#SVGID_00000101786904468913188560000010323153153379334300_);stroke:#000000;stroke-width:2;stroke-miterlimit:10;}
	.st17{fill:url(#SVGID_00000102515195336106865640000002993289365616471216_);stroke:#000000;stroke-width:2;stroke-miterlimit:10;}
	.st18{fill:url(#SVGID_00000183967248244121825710000013283889938907217033_);stroke:#000000;stroke-width:2;stroke-miterlimit:10;}
	.st19{fill:url(#SVGID_00000051381186674279209740000010033599675755223186_);stroke:#000000;stroke-width:2;stroke-miterlimit:10;}
	.st20{fill:url(#SVGID_00000115500586411981222430000005811266406319101352_);stroke:#000000;stroke-width:2;stroke-miterlimit:10;}
	.st21{fill:url(#SVGID_00000181067039489748298090000006739428770326357684_);stroke:#000000;stroke-width:2;stroke-miterlimit:10;}
	.st22{fill:url(#SVGID_00000033346410412927272080000000934131214464931759_);stroke:#000000;stroke-width:2;stroke-miterlimit:10;}
	.st23{fill:url(#SVGID_00000176721872600334398970000005265270227393837489_);stroke:#000000;stroke-width:2;stroke-miterlimit:10;}
	.st24{fill:url(#SVGID_00000041268967442501486540000012426171625746857644_);stroke:#000000;stroke-width:2;stroke-miterlimit:10;}
	.st25{stroke:#000000;stroke-width:2;stroke-miterlimit:10;}
	.st26{fill:url(#SVGID_00000060740098815150990700000010985796938913003152_);stroke:#000000;stroke-width:2;stroke-miterlimit:10;}
	.st27{display:none;fill:url(#SVGID_00000152984665168658567380000002580803609348531597_);}
	.st28{display:none;}
	.st29{display:inline;}
	.st30{fill:#FFFFFF;}
	.st31{display:inline;fill:url(#SVGID_00000134962759003689842610000016202191988480245928_);}
</style>
<path class="st0" d="M462.2,409.9c-3.9-6.4-3-14.5,2.2-17.8c1.6-1,3.3-1.4,4.9-0.3c1.9,1.4,2,3.3,1.2,5.8c-1.2-1-2.3-1.9-3.3-2.7
	c-3.4,3-4.1,5.2-3,9c2.4,8.3,11.5,11.1,17.8,5.4c4.9-4.5,8.2-10.4,10.4-17c4.8-14.2,5.7-28.9,2.8-43.7c-3.4-17.3-9.8-33.2-18.5-48
	c-3.5-6-7-11.9-10.3-18c-3.6-6.6-6.3-13.7-7.6-21.4c-0.6-3.4-0.4-6.7,2.3-9v-3.6c-1.5-1.2-1.9-3.1-1.8-4.8c0.1-3.6,0.3-7.4,1.2-10.8
	c2.6-9.5,7.3-17.8,11.9-26.2c4.5-8.2,8.8-16.5,12.9-25c5.2-10.8,8.7-22.4,10-34.5c1.7-15.5,0.8-30.8-6.2-45
	c-2.2-4.4-4.8-8.5-8.4-11.6c-6.4-5.6-15.4-2.5-17.6,5.9c-1,4-0.3,6.2,3.2,8.7c0.9-0.8,2-1.6,3.1-2.6c0.9,2.3,0.8,4.1-0.8,5.5
	c-1.5,1.3-3.2,1.1-4.9,0.3c-3.4-1.5-5.5-6.4-4.9-11.1c0.8-6.5,4.1-11,9.6-13.2c4.1-1.7,7.9-1.3,11.5,0.7l-6.7-6.7
	c-4.9-2.2-10-3.7-15.2-5c-15.1-3.7-29.1,0.6-42.8,7.3c-11.7,5.7-23.2,12-34.9,17.7c-10.4,5-21.3,7.5-32.6,8.8
	c-27,3.2-51.7-4.4-75.2-18.4c-1.2-0.7-2.5-1.3-3.7-2c-5.7-2.8-11.4-5.5-17-8.5c-1.9-1-3.4-1.3-5.3-0.3c-6.3,3.2-12.7,6.1-19,9.2
	c-1.6,0.8-3,1.9-4.5,2.8c-15.6,9.2-32.1,14.9-49.7,17.1c-23.1,2.9-44.6-2.7-65.4-13.3c-10.5-5.4-21-10.8-31.7-15.9
	c-8-3.8-16.4-6.2-25.2-5.8c-7.4,0.3-14.6,1.8-21.4,4.3c-2.7,2.7-5.4,5.4-8.1,8.1c0,0,0,0,0,0c9.7-4.5,20.7,4.4,19.7,15.8
	c-0.3,3.7-1.9,6.6-5,8.2c-1.8,1-3.7,0.7-5.2-1c-1.2-1.4-1.6-2.9-0.1-4.9c0.8,1.1,1.4,2.1,2.1,3c4.1-1.6,5.3-3.8,4.5-8
	C35.8,88.9,26.4,85,20,90.6c-4.6,4-8.1,9-10.2,15c-4.2,12-6.3,24.2-5,37.2c2,19.2,8,36.5,16.9,52.9c5.7,10.5,12.3,20.5,16.3,32.1
	c1.6,4.6,2.6,9.6,3.2,14.5c0.4,3.3-0.2,4.1-3.2,6.5c0.5,0.5,0.7,1.4,0.4,2.1c0.1,0.1,0.2,0.3,0.3,0.5c2.3,1.9,2.4,4.1,2.6,6.3
	c0.3,5.8-1.2,11.2-3.6,16.1c-3.8,8-7.9,15.8-12.2,23.4c-5.9,10.3-11.1,20.9-15.2,32.2c-5.2,14.3-7.6,29.2-6.3,44.6
	c1,11.3,4,21.8,10.2,31.1c3.2,4.8,7.3,7.1,12.9,7.1c5.1-0.1,9.5-6.1,9.6-11.7c0-2.2-0.8-4.2-2.7-5.2c-2-1.1-3,0.8-3.9,2.4
	c-1.9-2-1.3-3.5-0.2-4.9c1.1-1.4,2.6-1.8,4.2-1.3c3.3,1,5.5,4.2,6,8.5c0.9,8.5-6.5,20-18.7,16.2c-1.7-0.5-3.3-1.4-4.6-2.4
	c2.4,2.4,4.8,4.8,7.1,7.1c5.8,2.6,11.9,4.4,18.2,5.9c12.7,3.1,24.4-0.7,35.9-5.6c8.5-3.7,16.8-8.2,25-12.6
	c11.1-5.9,22.5-10.9,34.6-13.8c12.5-3,24.9-3.3,37.6-1.7c18.3,2.3,35.3,9.1,51.3,19c0.6,0.4,1.2,0.7,1.9,1
	c6.8,3.2,13.7,6.3,20.9,9.7c4.1-2.1,8.7-4.7,13.4-7.1c9.4-4.7,18.8-9.6,28.4-14c9.6-4.4,19.7-6.9,30-8.5c19-2.9,37.6-0.4,55.6,6.8
	c4.9,2,9.6,4.4,14.3,6.8c10.4,5.2,20.7,10.7,31.2,15.5c7.7,3.5,15.8,6.2,24.2,5.7c8.1-0.4,15.9-2,23.3-5l6.1-6.1
	C471.1,417.7,465.8,415.9,462.2,409.9z M41.8,250.2c4.1-4.4,5.2-4.4,10.6-0.1C46.8,253.9,46.8,253.9,41.8,250.2z M448.1,250.2
	c4.1-4.4,6.2-3.9,10.4-0.3C453.7,254.2,453.3,254.2,448.1,250.2z"/>
<g id="Layer_1_00000150074016270379930390000008187434915751293329_">
	<g>
		
			<linearGradient id="SVGID_1_" gradientUnits="userSpaceOnUse" x1="-92.0995" y1="-54.4996" x2="696.8098" y2="227.2198" gradientTransform="matrix(1 0 0 -1 0 500)">
			<stop  offset="0" style="stop-color:#00AEEF"/>
			<stop  offset="0.2598" style="stop-color:#262262"/>
			<stop  offset="0.5056" style="stop-color:#00AEEF"/>
			<stop  offset="0.7635" style="stop-color:#2E3192"/>
			<stop  offset="0.9944" style="stop-color:#00AEEF"/>
		</linearGradient>
		<path class="st1" d="M197,449.6c-0.7,1.2-0.7,3.1-0.7,4.7c0,0.6,1.1,1.4,1.8,1.6c0.4,0.1,1.3-0.5,1.6-1.1
			c1.5-3.4,2.8-6.8,4.7-11.4C200.5,445,198.5,447.1,197,449.6z"/>
		
			<linearGradient id="SVGID_00000055668409702354871080000012167745734295776647_" gradientUnits="userSpaceOnUse" x1="-90.3632" y1="-47.489" x2="689.6144" y2="231.0411" gradientTransform="matrix(1 0 0 -1 0 500)">
			<stop  offset="0" style="stop-color:#00AEEF"/>
			<stop  offset="0.2598" style="stop-color:#262262"/>
			<stop  offset="0.5056" style="stop-color:#00AEEF"/>
			<stop  offset="0.7635" style="stop-color:#2E3192"/>
			<stop  offset="0.9944" style="stop-color:#00AEEF"/>
		</linearGradient>
		
			<path style="fill:url(#SVGID_00000055668409702354871080000012167745734295776647_);stroke:#000000;stroke-width:2;stroke-miterlimit:10;" d="
			M169.8,451.9c-0.5,0.8-0.9,1.6-1.2,2.5c-0.6,1.8-0.5,3.5,1.1,4.6c1.5,1,2.6-0.3,3.5-1.4c2.9-3.2,5.7-6.5,8.5-9.8
			c0.2-0.2,0.1-0.7,0.1-1.1C177.5,445.9,172.4,448,169.8,451.9z"/>
		
			<linearGradient id="SVGID_00000135673768183973324710000008752339020678305417_" gradientUnits="userSpaceOnUse" x1="-144.0231" y1="102.5032" x2="667.0579" y2="392.1403" gradientTransform="matrix(1 0 0 -1 0 500)">
			<stop  offset="0" style="stop-color:#00AEEF"/>
			<stop  offset="0.2598" style="stop-color:#262262"/>
			<stop  offset="0.5056" style="stop-color:#00AEEF"/>
			<stop  offset="0.7635" style="stop-color:#2E3192"/>
			<stop  offset="0.9944" style="stop-color:#00AEEF"/>
		</linearGradient>
		
			<path style="fill:url(#SVGID_00000135673768183973324710000008752339020678305417_);stroke:#000000;stroke-width:2;stroke-miterlimit:10;" d="
			M21.5,416.3c12.3,3.8,19.6-7.7,18.7-16.2c-0.5-4.3-2.7-7.6-6-8.5c-1.7-0.5-3.1-0.1-4.2,1.3c-1.1,1.4-1.7,2.9,0.2,4.9
			c0.9-1.6,1.9-3.5,3.9-2.4c1.9,1,2.7,3,2.7,5.2c-0.1,5.6-4.5,11.6-9.6,11.7c-5.5,0.1-9.6-2.2-12.9-7.1c-6.2-9.2-9.2-19.8-10.2-31.1
			c-1.3-15.4,1.1-30.3,6.3-44.6c4.1-11.3,9.3-21.9,15.2-32.2c4.4-7.6,8.4-15.5,12.2-23.4c2.4-4.9,3.9-10.3,3.6-16.1
			c-0.1-2.3-0.3-4.6-2.9-6.5c1.3,9.1-2,16.4-5.3,23.4c-3,6.3-6.4,12.3-9.7,18.4c-4.6,8.4-9.5,16.5-12.6,25.8c-1.4,4.3-3,8.6-4.3,13
			c-1.2,4.1-2.2,8.4-3.4,13.4c-0.3-15.8,1.9-30,8.7-43.1c2.5-4.8,5.4-9.4,8.4-13.9c4.3-6.5,8.7-12.9,11.7-20.4
			c1.8-4.5,2.9-9,1.6-13.9c-1.1,6.7-3.6,12.6-7.1,17.9c-2.5,3.9-5.3,7.6-8.1,11.2c-5.3,6.9-10.1,14.1-13.4,22.5
			c-3.4,8.6-4.6,17.8-4.8,27c-0.1,5.3,1.1,10.7,1.7,16c0.2,1.9,0.4,3.8,0.2,5.6c-0.6,8.4-1.7,16.8-0.4,25.3
			c1.3,8.6,3.4,16.9,7.5,24.4C12,409.4,15.6,414.4,21.5,416.3z"/>
		
			<linearGradient id="SVGID_00000008130979443971827980000016265866188240790936_" gradientUnits="userSpaceOnUse" x1="-86.1571" y1="-40.5675" x2="677.6821" y2="232.1994" gradientTransform="matrix(1 0 0 -1 0 500)">
			<stop  offset="0" style="stop-color:#00AEEF"/>
			<stop  offset="0.2598" style="stop-color:#262262"/>
			<stop  offset="0.5056" style="stop-color:#00AEEF"/>
			<stop  offset="0.7635" style="stop-color:#2E3192"/>
			<stop  offset="0.9944" style="stop-color:#00AEEF"/>
		</linearGradient>
		
			<path style="fill:url(#SVGID_00000008130979443971827980000016265866188240790936_);stroke:#000000;stroke-width:2;stroke-miterlimit:10;" d="
			M198.8,439.7c-12.9,0-25.8-0.5-38.7-0.7c-0.9,0-1.9,0.6-2.9,0.9c12.2,2.9,24.3,5,36.5,4.6c-2.2,1.4-4.5,2.6-6.7,4.1
			c-1.9,1.3-2.9,3.3-2.8,5.7c0.1,1,0.7,2.1,1.5,2.6c0.4,0.3,1.7-0.2,2.2-0.8c2.8-3.5,5.5-7.1,8.5-11.2c-1.2-0.2-2-0.3-2.8-0.5
			c0.8-0.3,1.6-0.7,2.4-0.9c3.9-0.9,7.8-1.5,11.6-2.7c2.5-0.7,5.1-1.4,7.9-4.6c-3,0.7-4.8,1.2-6.6,1.6
			C205.6,438.5,202.2,439.7,198.8,439.7z"/>
		
			<linearGradient id="SVGID_00000042729727410316617050000015126003500289931686_" gradientUnits="userSpaceOnUse" x1="-58.551" y1="-88.1051" x2="685.6385" y2="177.645" gradientTransform="matrix(1 0 0 -1 0 500)">
			<stop  offset="0" style="stop-color:#00AEEF"/>
			<stop  offset="0.2598" style="stop-color:#262262"/>
			<stop  offset="0.5056" style="stop-color:#00AEEF"/>
			<stop  offset="0.7635" style="stop-color:#2E3192"/>
			<stop  offset="0.9944" style="stop-color:#00AEEF"/>
		</linearGradient>
		
			<path style="fill:url(#SVGID_00000042729727410316617050000015126003500289931686_);stroke:#000000;stroke-width:2;stroke-miterlimit:10;" d="
			M314.9,445.9c4.2,4.7,7.5,8.5,10.9,12.2c0.5,0.6,1.8,1,2.2,0.7c0.7-0.6,1.5-1.9,1.4-2.7c-0.2-1.6-0.6-3.6-1.6-4.7
			C324.7,447.7,320.7,445.9,314.9,445.9z"/>
		
			<linearGradient id="SVGID_00000011710184955175643880000000765500649645662604_" gradientUnits="userSpaceOnUse" x1="-70.9501" y1="-78.3333" x2="689.3539" y2="193.1713" gradientTransform="matrix(1 0 0 -1 0 500)">
			<stop  offset="0" style="stop-color:#00AEEF"/>
			<stop  offset="0.2598" style="stop-color:#262262"/>
			<stop  offset="0.5056" style="stop-color:#00AEEF"/>
			<stop  offset="0.7635" style="stop-color:#2E3192"/>
			<stop  offset="0.9944" style="stop-color:#00AEEF"/>
		</linearGradient>
		
			<path style="fill:url(#SVGID_00000011710184955175643880000000765500649645662604_);stroke:#000000;stroke-width:2;stroke-miterlimit:10;" d="
			M305.1,439.9c-6.4,0.1-12.7-0.9-18.9-2.9c-1-0.3-2.2-0.3-3.3-0.5c3.3,3.4,7.3,4.5,11.2,5.7c3.1,0.9,6.4,1.5,9.5,2.2
			c-0.6,0.4-1.3,0.8-2,1.2c2.9,3.7,5.4,7.1,8.1,10.3c0.5,0.6,2.2,1.1,2.6,0.7c0.8-0.7,1.4-2.2,1.3-3.3c-0.3-2.6-1.9-4.5-4-5.7
			c-2-1.1-4-2.2-6-3.3c12.2,0.3,24.1-1.6,36-4.3c-2.4-0.5-4.8-0.5-7.2-0.5C323.5,439.7,314.3,439.8,305.1,439.9z"/>
		
			<linearGradient id="SVGID_00000060028818887035954370000003650303042047463060_" gradientUnits="userSpaceOnUse" x1="-156.5208" y1="177.5283" x2="605.9679" y2="449.813" gradientTransform="matrix(1 0 0 -1 0 500)">
			<stop  offset="0" style="stop-color:#00AEEF"/>
			<stop  offset="0.2598" style="stop-color:#262262"/>
			<stop  offset="0.5056" style="stop-color:#00AEEF"/>
			<stop  offset="0.7635" style="stop-color:#2E3192"/>
			<stop  offset="0.9944" style="stop-color:#00AEEF"/>
		</linearGradient>
		
			<path style="fill:url(#SVGID_00000060028818887035954370000003650303042047463060_);stroke:#000000;stroke-width:2;stroke-miterlimit:10;" d="
			M52.3,250c-5.4-4.3-6.5-4.3-10.6,0.1C46.8,253.9,46.8,253.9,52.3,250z"/>
		
			<linearGradient id="SVGID_00000058568061572691000250000001045514669745079213_" gradientUnits="userSpaceOnUse" x1="-53.598" y1="-74.6224" x2="671.8803" y2="184.4458" gradientTransform="matrix(1 0 0 -1 0 500)">
			<stop  offset="0" style="stop-color:#00AEEF"/>
			<stop  offset="0.2598" style="stop-color:#262262"/>
			<stop  offset="0.5056" style="stop-color:#00AEEF"/>
			<stop  offset="0.7635" style="stop-color:#2E3192"/>
			<stop  offset="0.9944" style="stop-color:#00AEEF"/>
		</linearGradient>
		
			<path style="fill:url(#SVGID_00000058568061572691000250000001045514669745079213_);stroke:#000000;stroke-width:2;stroke-miterlimit:10;" d="
			M293.2,443.2c1.9,4.5,3.1,7.7,4.6,10.9c0.4,0.8,1.5,1.2,2.3,1.8c0.5-1.1,1.4-2.1,1.5-3.2c0.1-1.2-0.5-2.6-1.1-3.7
			C299.1,446.3,296.9,444.7,293.2,443.2z"/>
		
			<linearGradient id="SVGID_00000096046193739585863030000003664830075926759054_" gradientUnits="userSpaceOnUse" x1="-163.5498" y1="193.4856" x2="604.6643" y2="467.8148" gradientTransform="matrix(1 0 0 -1 0 500)">
			<stop  offset="0" style="stop-color:#00AEEF"/>
			<stop  offset="0.2598" style="stop-color:#262262"/>
			<stop  offset="0.5056" style="stop-color:#00AEEF"/>
			<stop  offset="0.7635" style="stop-color:#2E3192"/>
			<stop  offset="0.9944" style="stop-color:#00AEEF"/>
		</linearGradient>
		
			<path style="fill:url(#SVGID_00000096046193739585863030000003664830075926759054_);stroke:#000000;stroke-width:2;stroke-miterlimit:10;" d="
			M27.8,249.3c-1.1-1.2-2.2-2.3-3.2-3.4c0.6-0.8,1.2-1.5,1.9-2.4c-1.1-0.8-1.9-1.6-2.8-2c-2.8-1.5-4.1-4-4.1-7.4
			c0-0.8,0.1-1.6-0.1-2.3c-0.4-1.2-1-3-1.7-3.1c-1.1-0.2-2.7,0.5-3.6,1.4c-2.5,2.7-2.6,6.7,0,9.9c1.6,2.1,3.9,3.5,6.5,5.8
			c-2.5-0.8-4.3-1.5-6.1-1.9c-1.1-0.3-2.6-0.7-3.5-0.2c-3.1,1.6-5.9,3.6-9.1,5.6c2.3,3.8,5.6,4.8,8.4,6.3c2.2,1.2,14.8-2,16.6-4
			C27.4,251,27.5,250.1,27.8,249.3z"/>
		
			<linearGradient id="SVGID_00000131343485185099878780000015212747543259114377_" gradientUnits="userSpaceOnUse" x1="-182.693" y1="267.186" x2="581.1049" y2="539.9383" gradientTransform="matrix(1 0 0 -1 0 500)">
			<stop  offset="0" style="stop-color:#00AEEF"/>
			<stop  offset="0.2598" style="stop-color:#262262"/>
			<stop  offset="0.5056" style="stop-color:#00AEEF"/>
			<stop  offset="0.7635" style="stop-color:#2E3192"/>
			<stop  offset="0.9944" style="stop-color:#00AEEF"/>
		</linearGradient>
		
			<path style="fill:url(#SVGID_00000131343485185099878780000015212747543259114377_);stroke:#000000;stroke-width:2;stroke-miterlimit:10;" d="
			M310.4,59.4c8.1,0.3,16.2,0.7,24.3,1c1.7,0.1,3.5-0.1,5.2-0.2c-11.9-3.2-23.8-5.2-36.6-4.5c2.5-1.3,4.4-1.8,5.8-3.1
			c1.7-1.5,3.2-3.4,4.3-5.5c1.1-1.9,0.4-3.7-1.9-4.7c-0.6,0.5-1.3,1-1.9,1.7c-2,2.4-4.2,4.7-5.7,7.4c-2.5,4.4-6.2,5.4-10.3,6.4
			c-3.8,0.9-7.7,2-10.6,5.8c0.8-0.2,1.6-0.2,2.4-0.5C293.5,60.5,301.9,59.1,310.4,59.4z"/>
		
			<linearGradient id="SVGID_00000047764903088828876780000009056306799351861147_" gradientUnits="userSpaceOnUse" x1="-186.8339" y1="316.6852" x2="554.4686" y2="581.4042" gradientTransform="matrix(1 0 0 -1 0 500)">
			<stop  offset="0" style="stop-color:#00AEEF"/>
			<stop  offset="0.2598" style="stop-color:#262262"/>
			<stop  offset="0.5056" style="stop-color:#00AEEF"/>
			<stop  offset="0.7635" style="stop-color:#2E3192"/>
			<stop  offset="0.9944" style="stop-color:#00AEEF"/>
		</linearGradient>
		
			<path style="fill:url(#SVGID_00000047764903088828876780000009056306799351861147_);stroke:#000000;stroke-width:2;stroke-miterlimit:10;" d="
			M196.1,54.5c-2.3-3-3.8-5-5.4-7c-1.5-1.9-2.4-4.6-5-5.1c-1.7,3.5-1.9,4.4-0.6,6.3C187.5,52.4,190.8,54.4,196.1,54.5z"/>
		
			<linearGradient id="SVGID_00000162327680827267190480000003426594828090451130_" gradientUnits="userSpaceOnUse" x1="-203.188" y1="271.4997" x2="587.8012" y2="553.9619" gradientTransform="matrix(1 0 0 -1 0 500)">
			<stop  offset="0" style="stop-color:#00AEEF"/>
			<stop  offset="0.2598" style="stop-color:#262262"/>
			<stop  offset="0.5056" style="stop-color:#00AEEF"/>
			<stop  offset="0.7635" style="stop-color:#2E3192"/>
			<stop  offset="0.9944" style="stop-color:#00AEEF"/>
		</linearGradient>
		
			<path style="fill:url(#SVGID_00000162327680827267190480000003426594828090451130_);stroke:#000000;stroke-width:2;stroke-miterlimit:10;" d="
			M300.3,43.8c-2.2,1.6-5.2,7.6-6.2,12.1C300.5,53.5,303,48.8,300.3,43.8z"/>
		
			<linearGradient id="SVGID_00000128456172990883930830000016521681223837742780_" gradientUnits="userSpaceOnUse" x1="-160.2289" y1="172.5428" x2="621.8109" y2="451.8091" gradientTransform="matrix(1 0 0 -1 0 500)">
			<stop  offset="0" style="stop-color:#00AEEF"/>
			<stop  offset="0.2598" style="stop-color:#262262"/>
			<stop  offset="0.5056" style="stop-color:#00AEEF"/>
			<stop  offset="0.7635" style="stop-color:#2E3192"/>
			<stop  offset="0.9944" style="stop-color:#00AEEF"/>
		</linearGradient>
		
			<path style="fill:url(#SVGID_00000128456172990883930830000016521681223837742780_);stroke:#000000;stroke-width:2;stroke-miterlimit:10;" d="
			M25.8,256.9c0.2-0.1,0.2-0.7,0.3-1.4c-6.3-1.2-11,1.2-13.2,6.6c-1.3,3.2-0.5,6.9,2,8.7c2.2,1.7,4.5,0.8,4.4-2.1
			C18.9,262.8,21.2,259.2,25.8,256.9z"/>
		
			<linearGradient id="SVGID_00000048492610753873624450000015714091662502874282_" gradientUnits="userSpaceOnUse" x1="-194.3192" y1="268.027" x2="585.2578" y2="546.414" gradientTransform="matrix(1 0 0 -1 0 500)">
			<stop  offset="0" style="stop-color:#00AEEF"/>
			<stop  offset="0.2598" style="stop-color:#262262"/>
			<stop  offset="0.5056" style="stop-color:#00AEEF"/>
			<stop  offset="0.7635" style="stop-color:#2E3192"/>
			<stop  offset="0.9944" style="stop-color:#00AEEF"/>
		</linearGradient>
		
			<path style="fill:url(#SVGID_00000048492610753873624450000015714091662502874282_);stroke:#000000;stroke-width:2;stroke-miterlimit:10;" d="
			M328.8,46.8c1.4-2.1,1.2-4.2-1.4-6.2c-4,4.1-7.8,7.9-11.5,11.8c-0.2,0.2-0.1,0.7-0.2,1.5C321.2,53.9,325.6,51.7,328.8,46.8z"/>
		
			<linearGradient id="SVGID_00000013167033650248537590000009715490229519950260_" gradientUnits="userSpaceOnUse" x1="-193.2912" y1="303.1787" x2="567.0179" y2="574.685" gradientTransform="matrix(1 0 0 -1 0 500)">
			<stop  offset="0" style="stop-color:#00AEEF"/>
			<stop  offset="0.2598" style="stop-color:#262262"/>
			<stop  offset="0.5056" style="stop-color:#00AEEF"/>
			<stop  offset="0.7635" style="stop-color:#2E3192"/>
			<stop  offset="0.9944" style="stop-color:#00AEEF"/>
		</linearGradient>
		
			<path style="fill:url(#SVGID_00000013167033650248537590000009715490229519950260_);stroke:#000000;stroke-width:2;stroke-miterlimit:10;" d="
			M177.8,60c11.6-1.3,23-0.5,34.2,2.7c0.8,0.2,1.7,0.3,2.6,0.4c-1.5-1.8-3.1-2.6-4.9-3.4c-2.2-1-4.4-2-6.6-3c0,0,0,0,0,0
			c-4.4-0.4-8.9-1-13.3-1.3c-9.3-0.6-18.5,1.6-27.7,2.6c-1.5,0.2-3,0.9-4.5,1.4C164.4,60.1,171.2,60.8,177.8,60z"/>
		
			<linearGradient id="SVGID_00000066488333345731670100000014702025991228827834_" gradientUnits="userSpaceOnUse" x1="-192.5577" y1="253.7652" x2="610.6121" y2="540.577" gradientTransform="matrix(1 0 0 -1 0 500)">
			<stop  offset="0" style="stop-color:#00AEEF"/>
			<stop  offset="0.2598" style="stop-color:#262262"/>
			<stop  offset="0.5056" style="stop-color:#00AEEF"/>
			<stop  offset="0.7635" style="stop-color:#2E3192"/>
			<stop  offset="0.9944" style="stop-color:#00AEEF"/>
		</linearGradient>
		
			<path style="fill:url(#SVGID_00000066488333345731670100000014702025991228827834_);stroke:#000000;stroke-width:2;stroke-miterlimit:10;" d="
			M17.8,216.6c6.5,8.5,12.9,17.1,14.9,28.6c0.1,0.5,0.5,0.9,0.7,1.4c0.2,0,0.4-0.1,0.6-0.1c-0.2-2.2-0.2-4.5-0.5-6.7
			c-1.3-8.8-5.7-16.1-10.3-23.1c-4.9-7.4-10.2-14.6-13.5-23.2c-4.4-11.4-6.6-23.1-5.5-36.7c3.2,16.5,8.6,30.8,15.8,44.3
			c4.8,8.9,9.4,18,13.8,27.1c3.2,6.5,5.6,13.2,3.3,21.4c3.8-3,4.5-3.6,4-7.2c-0.6-4.9-1.6-9.9-3.2-14.5c-4-11.6-10.6-21.6-16.3-32.1
			C12.9,179.4,6.8,162,4.8,142.9c-1.3-13,0.8-25.3,5-37.2c2.1-6,5.7-11,10.2-15c6.4-5.6,15.8-1.7,17.6,7.1c0.8,4.2-0.4,6.4-4.5,8
			c-0.7-1-1.3-1.9-2.1-3c-1.5,2-1.1,3.5,0.1,4.9c1.5,1.7,3.4,2,5.2,1c3-1.6,4.6-4.5,5-8.2c1.1-11.4-10-20.3-19.6-15.8
			c-4.5,2.1-7.8,5.7-10.4,10.1C3,108.7,0.5,124.3,2.2,140.9c0.4,4,0.6,7.9-0.2,12c-2.3,12.4-2,24.8,1.5,37.1
			C6.4,200.1,11.7,208.6,17.8,216.6z"/>
		
			<linearGradient id="SVGID_00000148648305665989281370000015783113717686456194_" gradientUnits="userSpaceOnUse" x1="-181.9285" y1="313.3055" x2="553.4568" y2="575.9116" gradientTransform="matrix(1 0 0 -1 0 500)">
			<stop  offset="0" style="stop-color:#00AEEF"/>
			<stop  offset="0.2598" style="stop-color:#262262"/>
			<stop  offset="0.5056" style="stop-color:#00AEEF"/>
			<stop  offset="0.7635" style="stop-color:#2E3192"/>
			<stop  offset="0.9944" style="stop-color:#00AEEF"/>
		</linearGradient>
		
			<path style="fill:url(#SVGID_00000148648305665989281370000015783113717686456194_);stroke:#000000;stroke-width:2;stroke-miterlimit:10;" d="
			M203.8,54.4c-1.2-3.3-2.7-6.5-4.2-9.7c-0.3-0.6-1-0.9-1.5-1.3c-2.6,3.2-2.9,4.8-0.6,7.8c1.6,2.1,3.7,3.8,5.5,5.7
			C203.3,56,204,55,203.8,54.4z"/>
		
			<linearGradient id="SVGID_00000088110823488145031910000014810966724629283248_" gradientUnits="userSpaceOnUse" x1="-190.692" y1="321.7245" x2="553.6897" y2="587.5432" gradientTransform="matrix(1 0 0 -1 0 500)">
			<stop  offset="0" style="stop-color:#00AEEF"/>
			<stop  offset="0.2598" style="stop-color:#262262"/>
			<stop  offset="0.5056" style="stop-color:#00AEEF"/>
			<stop  offset="0.7635" style="stop-color:#2E3192"/>
			<stop  offset="0.9944" style="stop-color:#00AEEF"/>
		</linearGradient>
		
			<path style="fill:url(#SVGID_00000088110823488145031910000014810966724629283248_);stroke:#000000;stroke-width:2;stroke-miterlimit:10;" d="
			M171.7,50.2c3,2.3,6.3,3.8,10.6,3.3c-3.6-4.3-6.7-8.1-9.9-11.7c-0.6-0.6-2.1-1-2.7-0.7c-0.7,0.4-1.2,1.8-1.2,2.8
			C168.4,46.7,169.8,48.7,171.7,50.2z"/>
		
			<linearGradient id="SVGID_00000054971041692491273390000007615604570553674938_" gradientUnits="userSpaceOnUse" x1="-79.9682" y1="-53.0266" x2="682.3149" y2="219.1848" gradientTransform="matrix(1 0 0 -1 0 500)">
			<stop  offset="0" style="stop-color:#00AEEF"/>
			<stop  offset="0.2598" style="stop-color:#262262"/>
			<stop  offset="0.5056" style="stop-color:#00AEEF"/>
			<stop  offset="0.7635" style="stop-color:#2E3192"/>
			<stop  offset="0.9944" style="stop-color:#00AEEF"/>
		</linearGradient>
		
			<path style="fill:url(#SVGID_00000054971041692491273390000007615604570553674938_);stroke:#000000;stroke-width:2;stroke-miterlimit:10;" d="
			M446.4,428.1c-8.4,0.5-16.5-2.2-24.2-5.7c-10.5-4.8-20.8-10.4-31.2-15.5c-4.7-2.4-9.4-4.8-14.3-6.8c-18-7.2-36.5-9.7-55.6-6.8
			c-10.3,1.5-20.4,4-30,8.5c-9.5,4.4-19,9.2-28.4,14c-4.7,2.4-9.3,4.9-13.4,7.1c-7.2-3.4-14.1-6.5-20.9-9.7c-0.6-0.3-1.3-0.6-1.9-1
			c-16-9.9-32.9-16.7-51.3-19c-12.6-1.6-25.1-1.3-37.6,1.7c-12.1,2.9-23.4,7.9-34.6,13.8c-8.3,4.4-16.5,9-25,12.6
			c-11.5,4.9-23.2,8.7-35.9,5.6c-11.8-2.9-23.1-6.5-32.6-15.4c-1.7-1.6-3.3-3.1-4.9-4.7c0,1.6,0.5,2.7,1.2,3.6
			c6.2,7.8,14,13.1,22.6,16.9c17,7.5,35,8.6,53,8.9c8.1,0.1,16.2-0.9,24.2-2c11.6-1.6,23.2-3.6,34.8-5.6c17.9-3.1,35.4-8.4,53.6-10
			c8.2-0.7,16.2-0.2,24.2,0.7c0.8,0.1,1.7,0.4,2.5,0.8c1.8,0.9,2.5,2.5,1.3,4.1c-1.5,2-3.3,4-5.3,5.4c-5.6,3.8-12,5.2-18.4,5.3
			c-8.4,0.1-16.9-0.7-25.4-0.9c-10.2-0.2-20.4-0.3-30.6-0.2c-3.8,0-7.6,0.4-11.3,1.2c-8.3,1.8-16.6,4.1-24.2,8.5
			c-7.9,4.6-14.1,11.3-18,20.1c-5.2,11.7-2.9,26.4,7.6,33c5.2,3.2,10.7,4.2,16.5,2.4c8.2-2.5,15-7.2,19-15.7c3.8-8,2-16.4-4.3-21.6
			c-5.4-4.5-13.9-2.9-17.5,3.3c-1.4,2.5-1.1,5.5,0.8,7.3c1.8,1.7,5,1.8,6.8,0.1c1.8-1.6,2.2-4.1,1.1-6.7c-0.4-0.9-0.9-1.8-1.4-2.9
			c8.7-1,14,6,12.1,14.7c-2.7,11.9-16.7,19.4-27.6,15.9c-5.8-1.9-9.4-6.4-10.6-13c-1-5.4-0.3-10.9,2.2-15.7
			c3.8-7.3,8.8-13.4,15.7-17.1c11.4-6,23.3-9.8,35.9-10c16.6-0.2,33.2,0.1,49.8,0c3.9,0,8-0.5,11.8-1.5c7.7-2,15-4.9,18.5-14
			c0.1-0.1,0.3-0.2,0.4-0.3c5,0.1,12.7,3.5,16.8,7.5c-6.1,6.5-10.2,14-9.7,23.9c0.5,9.9,5.2,17.2,11.1,24c-7.2,4-14.8,3.9-20.6,0
			c-2.7-1.8-3.6-4.5-3.6-7.8c0-2.8-0.2-5.8,2.9-7c0.4,1.6,0.5,3.2,1.2,4.5c0.9,1.6,2.4,2.2,4.1,1.4c1.6-0.7,2.4-2.1,2.3-4.1
			c-0.2-2.1-1.1-3.7-3-4.1c-5.3-1.1-9.3,2.5-9.6,8.5c-0.2,5.4,1.5,9.7,6.1,12.4c6.7,3.9,13.7,4.2,20.6,1.5c3.3-1.3,6.1-1.4,9.4,0
			c6,2.5,12.3,2.5,18.3-0.1c4.8-2,8.1-5.8,8.7-11.9c0.6-6.5-3.5-11.2-9.3-10.6c-2,0.2-3.8,2-3.8,4c-0.1,2.2,1,3.7,2.7,4.4
			c1.7,0.8,3.6-0.3,4.5-2.6c0.4-0.9,0.4-2,0.7-3.4c4.4,6.2,3.2,13-2.4,15.7c-6.5,3.1-12.9,2.7-19.8-1.1c7.1-6.3,11.1-14.1,11.8-23.5
			c0.8-9.8-4.1-17.4-9.4-24.5c6.9-4.6,11.4-6.5,17.2-7.2c1.6,6.7,5.9,10,11.1,12.2c5.9,2.5,11.9,3.9,18.2,3.9
			c15.6-0.1,31.1,0,46.7-0.3c13.2-0.2,25.8,2.8,37.7,8.9c10.3,5.3,18.1,13.6,20.2,26.7c0.9,5.5-0.4,10.7-3.7,15
			c-4.2,5.6-9.8,6.8-16,6c-8.1-1.1-14.5-5.6-17.9-13.9c-3.6-8.8,0.2-15.7,7.7-17.9c0.9-0.2,1.9,0.2,3.2,0.5c-0.6,1.3-1,2.1-1.2,3
			c-1,3.5,0,6.1,2.4,7.3c2.4,1.1,5.2,0.3,6.4-1.9c1.5-2.6,1-5.3-1.4-7.7c-7-7.1-17.2-4.8-21.2,4.7c-2.5,5.8-1.5,11.4,1.4,16.5
			c4.7,8.6,11.9,13,20.7,14.7c6.5,1.2,12-0.8,16.8-5.3c8.9-8.3,9.7-21,3.7-32.5c-4.2-8.2-10.4-14.5-18.1-18.4
			c-10.8-5.5-22-9.1-34-9.3c-8-0.1-15.9-0.1-23.9,0.1c-9.5,0.2-19,0.7-28.5,1.1c-5.6,0.2-11.1-0.8-16.3-2.6c-3.1-1.1-6-2.9-8.8-4.8
			c-2-1.3-3.2-3.4-3.2-6.7c1.6-0.5,3.2-1.1,4.9-1.5c10.8-2.4,21.8-1.6,32.5,0.2c15.7,2.7,31.2,6.5,46.9,9.4
			c12.9,2.4,25.9,5,38.9,5.9c9.7,0.7,19.5,1.7,29.4,0.7c9.5-0.9,18.9-1.5,28.2-3.9c14-3.6,27-9.6,36.6-22.4c0.7-0.9,1.2-2,1.8-3
			c-3.3,2.3-5.9,5.4-9,7.8C473.7,423.2,460.5,427.4,446.4,428.1z M218.5,410.5c-3.2-0.3-6.5-0.7-9.7-0.9c-15.6-0.9-31,1.5-46.3,5
			c-16.7,3.8-33.5,7.5-50.3,10.8c-8.1,1.6-16.5,2-24.7,2.9c-3.6,0.4-7.1,0.7-10.7,0.8c14-4.5,27.1-11.6,40.6-17.6
			c11.1-5,22.6-8.2,34.5-9.8c20.1-2.7,39.6-0.4,58.9,5.9c2.6,0.9,5.2,1.7,7.8,2.6C218.5,410.2,218.5,410.4,218.5,410.5z
			 M249.1,473.7c-13.3-10.1-13.9-31.3,0.1-40C262.4,444.6,262.4,463.4,249.1,473.7z M417.7,429.2c-8.4-0.9-16.8-1.7-25.2-2.9
			c-20.9-2.9-41.4-8.2-62-12.9c-13.9-3.2-28-4.7-42.2-3.9c-1.7,0.1-3.4,0-5,0c0-0.3-0.1-0.6-0.1-0.9c7-1.9,14-3.9,21.1-5.5
			c11.7-2.7,23.7-3,35.6-2.3c10,0.6,20,2.5,29.4,6.2c11.2,4.5,22.2,9.6,33.3,14.4c6,2.6,12,4.9,18.2,7.5
			C419.5,429.1,418.6,429.3,417.7,429.2z"/>
		
			<linearGradient id="SVGID_00000008844673038531038150000005003966780503320988_" gradientUnits="userSpaceOnUse" x1="-112.6871" y1="37.2187" x2="656.6154" y2="311.9365" gradientTransform="matrix(1 0 0 -1 0 500)">
			<stop  offset="0" style="stop-color:#00AEEF"/>
			<stop  offset="0.2598" style="stop-color:#262262"/>
			<stop  offset="0.5056" style="stop-color:#00AEEF"/>
			<stop  offset="0.7635" style="stop-color:#2E3192"/>
			<stop  offset="0.9944" style="stop-color:#00AEEF"/>
		</linearGradient>
		
			<path style="fill:url(#SVGID_00000008844673038531038150000005003966780503320988_);stroke:#000000;stroke-width:2;stroke-miterlimit:10;" d="
			M480.2,254.8c-2.2,0.1-4.7-0.9-7,1.8c1.2,0.8,2,1.4,3,1.9c3.5,1.6,5.1,4.4,4.9,8.5c0,0.6-0.1,1.2,0.1,1.7c0.4,1,0.8,2.4,1.5,2.7
			c0.7,0.3,2-0.2,2.7-0.9c3.3-3.1,2.8-9.1-1-12.5C483.1,256.7,481.5,255.8,480.2,254.8c1.3,0.2,2.7,0.1,4,0.6
			c5.9,2.2,9.5-2,13.8-5.7c-4.7-3.9-8.7-7.9-15.2-5.2c1.5-2,2.7-3.2,3.5-4.6c1.4-2.4,1.7-5,0.8-7.7c-0.8-2.3-2.8-4-4.2-3.4
			c-1.9,0.7-1.9,2.6-1.8,4.3c0.3,4-1.8,6.4-4.5,8.5c-1,0.8-2.1,1.6-3.3,2.5c1.1,0.9,1.8,1.5,2.2,1.9c-1.3,1.4-2.5,2.6-3.6,3.9
			C474.6,252.8,474.6,252.8,480.2,254.8z"/>
		
			<linearGradient id="SVGID_00000080186240016594962790000002396708166167516319_" gradientUnits="userSpaceOnUse" x1="-172.2742" y1="105.5996" x2="639.2675" y2="395.4012" gradientTransform="matrix(1 0 0 -1 0 500)">
			<stop  offset="0" style="stop-color:#00AEEF"/>
			<stop  offset="0.2598" style="stop-color:#262262"/>
			<stop  offset="0.5056" style="stop-color:#00AEEF"/>
			<stop  offset="0.7635" style="stop-color:#2E3192"/>
			<stop  offset="0.9944" style="stop-color:#00AEEF"/>
		</linearGradient>
		
			<path style="fill:url(#SVGID_00000080186240016594962790000002396708166167516319_);stroke:#000000;stroke-width:2;stroke-miterlimit:10;" d="
			M483.3,87.5c-4.4-4.2-9.5-5.6-15-3.4c-5.5,2.2-8.8,6.6-9.6,13.2c-0.6,4.7,1.5,9.5,4.9,11.1c1.7,0.8,3.4,1.1,4.9-0.3
			c1.5-1.4,1.7-3.2,0.8-5.5c-1.1,1-2.2,1.8-3.1,2.6c-3.5-2.4-4.3-4.6-3.2-8.7c2.2-8.4,11.2-11.5,17.6-5.9c3.6,3.1,6.2,7.2,8.4,11.6
			c7,14.2,7.8,29.5,6.2,45c-1.3,12.1-4.7,23.7-10,34.5c-4.1,8.5-8.5,16.8-12.9,25c-4.6,8.4-9.3,16.8-11.9,26.2
			c-0.9,3.4-1.1,7.2-1.2,10.8c-0.1,2.2,0.5,4.4,2.9,5.6c0-9.8,0.7-13.4,4.5-21.7c2.3-5.1,4.9-10.2,7.5-15.2
			c6.1-11.4,12.4-22.7,16.5-35.3c1.2-3.6,2.2-7.3,3.2-11c0.9-3.4,1.6-7,2.4-10.4c0.5,1.6,0.5,3.2,0.5,4.7c0.2,14.8-2.9,28.7-10,41.2
			c-3.1,5.5-6.8,10.7-10.2,16c-4,6.1-7.7,12.4-9.4,19.8c-0.9,4-0.9,5.3,0.4,9.1c1-7.6,4.1-14,7.9-20c1.8-2.8,3.8-5.5,5.8-8.1
			c6.9-9,13-18.5,15.9-30.1c2-7.8,3.1-15.8,2.4-23.9c-0.4-5-1.5-9.8-2.2-14.8c-0.2-1.5,0.1-3,0.2-4.5c0.7-12.1,1.3-24.3-2.4-36
			C492.7,100.8,489.3,93.2,483.3,87.5z"/>
		
			<linearGradient id="SVGID_00000175314645980451976130000017716640741579553170_" gradientUnits="userSpaceOnUse" x1="-115.4273" y1="-43.1417" x2="687.9111" y2="243.7304" gradientTransform="matrix(1 0 0 -1 0 500)">
			<stop  offset="0" style="stop-color:#00AEEF"/>
			<stop  offset="0.2598" style="stop-color:#262262"/>
			<stop  offset="0.5056" style="stop-color:#00AEEF"/>
			<stop  offset="0.7635" style="stop-color:#2E3192"/>
			<stop  offset="0.9944" style="stop-color:#00AEEF"/>
		</linearGradient>
		
			<path style="fill:url(#SVGID_00000175314645980451976130000017716640741579553170_);stroke:#000000;stroke-width:2;stroke-miterlimit:10;" d="
			M479.5,279.9c-5.7-7.5-11-15.4-12.1-25.7c0-0.4-0.6-0.7-1.5-1.5c-0.1,2.1-0.5,3.7-0.2,5c1,4.1,1.7,8.4,3.5,12
			c2.9,5.9,6.2,11.6,9.9,16.9c6,8.8,11.6,17.7,14.7,28.4c2.8,9.4,3,19,3.3,28.7c-0.7-1.4-1.1-2.8-1.5-4.2
			c-3.1-13.7-8-26.6-14.5-38.8c-5.3-9.9-10.6-19.9-15.5-30c-2.8-5.7-5-11.8-3.9-18.9c-3.4,2.3-3.6,5.8-3,9.5
			c1.3,7.6,4,14.8,7.6,21.4c3.3,6.1,6.8,12,10.3,18c8.7,14.8,15.1,30.7,18.5,48c2.9,14.9,2,29.5-2.8,43.7c-2.2,6.6-5.5,12.5-10.4,17
			c-6.3,5.7-15.3,2.9-17.8-5.4c-1.1-3.8-0.4-6,3-9c1,0.8,2,1.7,3.3,2.7c0.9-2.4,0.7-4.4-1.2-5.8c-1.6-1.2-3.3-0.8-4.9,0.3
			c-5.2,3.4-6.2,11.4-2.2,17.8c5.9,9.6,16.2,8.4,21.8,3.2c3.5-3.2,6.1-7.2,8.3-11.7c6.8-13.6,7.7-28.3,6.2-43.2
			c-0.5-5.2,0.2-9.9,0.8-14.8c1.8-14.1,0.5-27.6-5.1-40.5C490.4,294.2,485,287.1,479.5,279.9z"/>
		
			<linearGradient id="SVGID_00000066509114967319894660000004260184205871221664_" gradientUnits="userSpaceOnUse" x1="-111.068" y1="48.4137" x2="651.9875" y2="320.9008" gradientTransform="matrix(1 0 0 -1 0 500)">
			<stop  offset="0" style="stop-color:#00AEEF"/>
			<stop  offset="0.2598" style="stop-color:#262262"/>
			<stop  offset="0.5056" style="stop-color:#00AEEF"/>
			<stop  offset="0.7635" style="stop-color:#2E3192"/>
			<stop  offset="0.9944" style="stop-color:#00AEEF"/>
		</linearGradient>
		
			<path style="fill:url(#SVGID_00000066509114967319894660000004260184205871221664_);stroke:#000000;stroke-width:2;stroke-miterlimit:10;" d="
			M448.1,250.2c5.2,4,5.6,4,10.4-0.3C454.3,246.3,452.3,245.8,448.1,250.2z"/>
		
			<linearGradient id="SVGID_00000065765415867585800990000006897319225076046496_" gradientUnits="userSpaceOnUse" x1="-187.7149" y1="281.1497" x2="574.6061" y2="553.3745" gradientTransform="matrix(1 0 0 -1 0 500)">
			<stop  offset="0" style="stop-color:#00AEEF"/>
			<stop  offset="0.2598" style="stop-color:#262262"/>
			<stop  offset="0.5056" style="stop-color:#00AEEF"/>
			<stop  offset="0.7635" style="stop-color:#2E3192"/>
			<stop  offset="0.9944" style="stop-color:#00AEEF"/>
		</linearGradient>
		
			<path style="fill:url(#SVGID_00000065765415867585800990000006897319225076046496_);stroke:#000000;stroke-width:2;stroke-miterlimit:10;" d="
			M400.7,64.8c-5.5,0.3-11.1,0.5-16.5,1.5c-16.7,3.1-33.4,6.2-50,9.8c-16.3,3.6-32.7,6-49.4,4.8c-3.2-0.2-6.4-1-9.6-1.5
			c0.6-4.9,1.5-6.4,4.8-8.7c4.8-3.3,10.2-5.2,15.7-5.4c10-0.4,20.1-0.6,30.1,0.1c12.6,0.9,25.2,1.6,37.7-0.3
			c10-1.5,19.7-4.4,28.5-10c9.6-6.2,16.8-14.7,19-27.4c2.9-16.5-10.1-29.5-23.7-27.4c-5.1,0.8-9.7,3.1-13.8,6.3
			c-4.8,3.8-8.1,8.9-9.4,15.4c-1.3,6.7,1.8,13.8,7.3,17c5.3,3.1,11.2,1.7,15.5-3.5c2-2.5,2.2-4.8,0.4-7.2c-1.6-2.2-3.9-2.7-6-1.4
			c-2.4,1.5-3.4,3.9-2.4,6.8c0.4,1.1,1,2.1,1.6,3.3c-6.5,0.3-10.3-1.7-11.7-6.7c-1.2-4.1-1.3-8.4,0.9-12.3
			c5.1-8.8,12.8-13.2,21.9-12.7C402,5.8,409,15.9,406.6,28c-2.2,11.1-8.6,18.7-17.3,23.9c-11.5,6.8-24,9.9-36.8,10.5
			c-9.7,0.4-19.4,0.1-29,0c-5.7-0.1-11.4-0.9-17.1-0.8c-6.7,0.1-13.5,0.7-19.9,3.4c-6,2.5-12,5.3-13.7,13.9
			c-6.2-2-12.1-3.8-17.4-7.8c13.3-16.4,13.2-31.5-1.8-48.6c6.4-3.3,12.8-3.5,19.2-0.6c1.2,0.5,2.4,1.5,3.3,2.6
			c3.5,4.1,3,9.3-0.9,12.6c-0.3-1.3-0.4-2.7-0.9-3.8c-0.8-1.8-2.5-2.5-3.9-1.6c-1.2,0.7-2.4,2.3-2.8,3.7c-0.5,1.8,0.7,3.3,2.3,4
			c3.7,1.7,8.4-0.5,10-4.7c2-5.2,0-12.2-4.5-15.2c-6.8-4.6-14-5.2-21.4-2.3c-3.6,1.5-6.6,1.7-10.3,0.2c-5.8-2.4-11.9-2-17.8,0.2
			c-2.9,1.1-5.1,3.2-6.8,6c-1.9,3.1-2,6.6-1.3,10c0.5,2.3,1.3,4.5,3.9,4.8c1.9,0.3,3.9,1,5.9,0.9c1.7-0.1,2.8-1.8,2.5-3.6
			c-0.2-1.3-0.8-2.9-1.8-3.7c-1.4-1.2-3.1-0.6-4.1,0.8c-0.7,0.9-0.8,2.4-1.3,3.5c-0.3,0.7-0.7,1.3-1.1,2c-0.6-1.4-1.4-2.7-1.7-4.2
			c-1.2-4.6,0.1-9,3.2-11.4c4.9-3.8,15.4-3.8,20.8,0.2c-6.1,6.4-10.6,13.7-11.2,23.4c-0.6,10,4,17.5,9.7,24.9
			c-5.7,3.6-10.9,6.2-17.1,7.5c-2.4-8.9-8.8-12.2-15.9-14.1c-6-1.6-12.2-2.6-18.4-3c-5.5-0.3-11,0.6-16.5,0.8
			c-7.9,0.2-15.9,0-23.9,0.2c-13.4,0.2-26.1-2.9-38.3-8.6c-9.8-4.5-17.2-12.2-20.5-23.8c-3.4-11.6,2.2-22,12.7-24.7
			c4.7-1.2,9,0.5,13.1,2.5c5.4,2.6,9.7,6.8,11.7,13.2c2.9,9.1-2.6,16.6-11.6,15.5c0.5-1.1,1-2,1.3-3c0.9-3,0.2-5.4-2.2-6.9
			c-2.1-1.4-4.5-1-6.1,1c-1.7,2.1-2,5.5-0.3,7.4c3.3,3.9,7.3,6.7,12.4,5.3c5.1-1.3,11.1-6.5,10.9-14.9c-0.1-4.4-0.9-8.4-3.2-11.9
			c-5.6-8.8-13.5-13-22.9-13.6c-5.6-0.3-10.5,2-14.6,6.2c-7.5,7.8-8.8,21-3.4,31.4c5.7,10.8,14,17.6,24.5,22.1
			c18,7.7,36.6,7,55.3,6.3c11-0.4,22.1-0.9,33.1-0.6c5.5,0.1,10.9,2.1,15.7,5.4c2.8,1.9,4.8,4.3,4,8.8c-2.2,0.5-4.4,1.4-6.5,1.5
			c-14.2,0.7-28.3,0.5-42.3-2.6c-19.3-4.3-38.5-9.1-58.1-11.6c-9.8-1.2-19.5-2.5-29.4-2.9c-7.9-0.3-15.9,0.2-23.8,0.9
			c-7.4,0.7-14.8,1.7-22,3.6C26.5,72.1,14.1,78.5,4.8,91c-0.7,0.9-1.1,2-1.7,3.1c3.7-2.6,6.5-6.1,9.9-8.6
			C24.6,76.9,37.4,72.6,51.1,72c8.8-0.4,17.2,2,25.2,5.8c10.7,5,21.2,10.5,31.7,15.9c20.8,10.6,42.3,16.2,65.4,13.3
			c17.6-2.2,34.1-7.9,49.7-17.1c1.5-0.9,3-2,4.5-2.8c6.3-3.1,12.7-6.1,19-9.2c1.9-1,3.4-0.8,5.3,0.3c5.6,3,11.3,5.7,17,8.5
			c1.3,0.6,2.5,1.2,3.7,2c23.5,14,48.2,21.7,75.2,18.4c11.3-1.3,22.2-3.8,32.6-8.8c11.7-5.7,23.2-12,34.9-17.7
			c13.6-6.6,27.6-11,42.8-7.3c10.6,2.6,20.7,6.2,29.2,14c1.5,1.3,3.1,2.5,4.6,3.7c-2.3-5.3-6.4-8.2-10.3-11.3
			c-7.3-5.7-15.8-8.7-24.3-11.2c-10.7-3.2-21.8-4.1-32.8-4.5C416.6,63.6,408.6,64.3,400.7,64.8z M193,97c-9,1.9-18.1,2.8-27.3,2.5
			c-16.1-0.4-31.6-3.9-46.5-10.3c-10.9-4.7-21.8-9.8-32.7-14.7c-2.9-1.3-5.9-2.2-8.8-3.2c0-0.2,0-0.4,0.1-0.7
			c7,0.6,14.1,0.9,21.1,1.8c25.4,3.2,50.3,9.9,75.4,15.2c11.8,2.5,23.6,3.4,35.6,2.8c2.5-0.1,5.1-0.7,7.8,0.1
			C209.4,92.7,201.3,95.2,193,97z M249.2,66.5c-13.8-12.4-13.9-29.1-0.6-40.3C260.2,33.2,264.6,54.3,249.2,66.5z M397.1,80.9
			c-6.6,2.9-13.1,6.1-19.6,8.9c-10.7,4.6-21.7,7.6-33.1,8.6c-6.5,0.6-13.1,1.2-19.6,0.9c-14.9-0.6-29.4-3.9-43.5-9.7
			c2.9,0.3,5.9,0.7,8.8,0.8c14.9,0.8,29.6-1.8,44.1-5c18.8-4.1,37.5-8.3,56.4-11.9c8.6-1.6,17.5-1.9,26.2-2.8c1-0.1,2,0,3.5,0
			C412.2,74.4,404.6,77.6,397.1,80.9z"/>
		<path class="st25" d="M203.1,56.8C203.1,56.8,203.1,56.8,203.1,56.8C203.1,56.8,203.1,56.8,203.1,56.8
			C203.1,56.8,203.1,56.8,203.1,56.8z"/>
		
			<linearGradient id="SVGID_00000031897278480444618690000011721692154121227194_" gradientUnits="userSpaceOnUse" x1="104.4248" y1="407.9334" x2="291.9397" y2="474.8951" gradientTransform="matrix(1 0 0 -1 0 500)">
			<stop  offset="0" style="stop-color:#00AEEF"/>
			<stop  offset="0.2598" style="stop-color:#262262"/>
			<stop  offset="0.5056" style="stop-color:#00AEEF"/>
			<stop  offset="0.7635" style="stop-color:#2E3192"/>
			<stop  offset="0.9944" style="stop-color:#00AEEF"/>
		</linearGradient>
		
			<path style="fill:url(#SVGID_00000031897278480444618690000011721692154121227194_);stroke:#000000;stroke-width:2;stroke-miterlimit:10;" d="
			M203.1,56.8C203.1,56.8,203.1,56.8,203.1,56.8C203.1,56.8,203.1,56.8,203.1,56.8C203.1,56.8,203.1,56.8,203.1,56.8z"/>
	</g>
	
		<linearGradient id="SVGID_00000163775573054669289310000001377966605915206065_" gradientUnits="userSpaceOnUse" x1="-53.545" y1="106.9141" x2="525.7657" y2="313.7859" gradientTransform="matrix(1 0 0 -1 0 500)">
		<stop  offset="0" style="stop-color:#FAE862"/>
		<stop  offset="0.2598" style="stop-color:#B8A240"/>
		<stop  offset="0.5056" style="stop-color:#F6E95F"/>
		<stop  offset="0.7635" style="stop-color:#C69E3B"/>
		<stop  offset="1" style="stop-color:#ECD74F"/>
	</linearGradient>
	
		<rect x="-17.7" y="41" style="display:none;fill:url(#SVGID_00000163775573054669289310000001377966605915206065_);" width="500" height="500"/>
</g>
<g id="Layer_2_00000029048083402642162620000014231870612800549819_" class="st28">
	<g class="st29">
		<g>
			<path d="M393.2,20.1c33.9,0,67.8,0,101.7,0c0,134.6,0,269.2,0,403.8c-155.1,0-310.2,0-465.3,0c0-134.6,0-269.2,0-403.8
				c5,0,10,0,15,0c-0.8,6.5,1,12.1,6.4,16.2c-2.1,1.7-4.8,2-6.5,4.4c2.2,1.4,4.1,2.7,6.2,4c-1,1.1-1.6,1.8-2.4,2.6
				c-2.6,2.5-3.8,5.6-3.9,9.2c0,2.1,0.2,4.2,0.4,6.3c0.8,6.5,3.1,12.8,1.3,19.5c0,0.1,0,0.3,0,0.4c0.1,1,1.1,1.6,2,1
				c0.5-0.2,0.9-0.6,1.2-1c2.8-3.9,4.5-8,2-12.8c-0.3-0.6-0.5-1.2-0.7-1.7c1-1.3,3.4-0.9,3.2-3.1c-1.5-0.7-3.1-1.1-4.1-2.1
				c-3.8-3.8-3.2-11.4,0.9-14.9c4.6-3.9,12.6-3.2,16.3,1.6c0.8,1.1,1.6,2.6,1.6,3.9c0,1.4-0.7,3-1.6,4.2c-0.8,1.1-2.2,1.2-3.3,0.6
				c0.1-2,0.5-3.8,0.3-5.6c-0.3-2-1.9-3.4-3.3-3.5c-1.7,0-3.2,1.4-3.8,3.4c-0.9,3.1,1,7.4,4,8.5c1.2,0.5,2.6,0.7,3.8,0.4
				c4.1-0.9,6.9-6.4,5.4-10.4c-1.4-3.8-4.3-6.2-8.1-7.5c-1.1-0.4-2.2-0.7-3.3-1c1.8-2.1,3.5-0.6,5.4,0c1.1-1,2.2-2,3.4-3.1l0,0
				c0.3,0.2,0.8,0.5,0.8,0.6c-0.4,0.8-0.9,1.7-1.7,2.8c4.6-2,7.2-1.4,9.2,1.6c1.1,1.8,1,2.4-0.9,4.1c-0.2-0.2-0.5-0.3-0.5-0.5
				c-0.1-1.1-0.7-1.9-1.7-1.5c-0.6,0.3-1.2,1.3-1.3,2.1c-0.2,1.6,1.1,2.9,2.7,3.4c2.6,0.7,4.9-0.7,5.5-3.6c0.2-1.2,0.2-2.5,0.2-3.8
				c2.5-0.8,4.9-1.5,7.2-2.4c1.4-0.5,3.1-0.9,3.4-2.8l0,0c0.6-0.4,1.5-0.7,1.8-1.3c1.1-2,2.2-3.9,2.8-6c0.6-2.3,1.3-3.9,4.1-3.7
				c0.8,0,1.8-0.5,2.5-0.9c1.6-1,1.7-2.5,1.4-4.1c-0.3-1.6-1.3-2.7-2.9-2.8c-0.8-0.1-1.9,0.3-2.3,0.9c-0.7,1,0.1,1.6,1.2,1.9
				c0.4,0.1,0.7,0.3,1.5,0.5c-1.1,0.7-1.5,1.1-2,1.2c-3.3,0.5-4.8-0.9-5.7-5.4c48.4,0,96.8,0,145.1,0c1.1,0.8,2.1,1.9,3.4,2.5
				c4,1.9,8.3,2.7,12.6,2.2c4.7-0.6,9.2-1.6,13.8-2.7c1.5-0.3,2.8-1.3,4.1-2c2.1,0,4.2,0,6.3,0c-2.1,0.8-4.1,1.6-6.2,2.2
				c-1,0.3-2.1,0.4-2.2,1.7c5.5,4.7,13.6,2.8,17.1-4c8.7,0,17.4,0,26,0c1.3,3.4,0.8,6.7-0.7,9.9c-1.7,3.4-5.2,4.7-8.6,3.2
				c-1.5-0.6-1.8-1.7-1.2-3.1c1.9-0.6,3.7-1,5.4-1.7c1.6-0.7,2.4-2.2,2.1-3.9c-0.2-0.9-0.8-2-1.6-2.4c-2.9-1.7-7.2-0.2-9.2,3
				c-1.9,3.1-1.5,6.6,1.4,8.8c4.1,3.2,10.4,2.3,12.9-1.7c0.8-1.2,1.5-2.4,2.3-3.7c0.5,1.1,1,2.1,1.5,2.9c2.8,4.5,7.7,5.7,12.3,3.2
				c3.4-1.8,4.6-5.3,3-8.6c-1.7-3.6-6.3-5.7-9.5-4.3c-2.1,0.9-2.8,3-1.5,4.8c1.1,1.6,2.7,2.5,4.6,2.9c1,0.2,2,0.3,2.9,0.5
				c0.4,1.7-0.4,2.6-1.5,3c-2.3,0.7-4.6,0.9-6.7-0.8c-1.9-1.6-2.8-3.8-3-6.2c-0.1-2-0.1-3.9-0.1-5.9c8.7,0,17.4,0,26,0
				c0.8,1,1.6,2,2.5,3c3.2,4.1,9.7,3.9,13,2.5c1-0.4,2-0.9,1.7-2.5c-0.7-0.2-1.5-0.5-2.3-0.8c-2-0.8-4.1-1.5-6.1-2.3
				c2.1,0,4.2,0,6.3,0c0.8,0.4,1.6,0.9,2.4,1.2c4.7,1.9,9.5,2.8,14.5,3.2C381.9,25.2,387.9,24.2,393.2,20.1z M214.2,101.4
				c-3.4-0.3-6.8-0.7-10.1-0.9c-7.1-0.4-14.1,1.1-21.1,1.7c-1.1,0.1-2.3,0.6-3.4,0.9c5.2,0.4,10.3,0.8,15.4,0.3
				c8.8-0.9,17.5-0.4,26,1.9c0.6,0.2,1.3,0.2,1.9,0.3c-1.1-1.2-2.4-1.8-3.7-2.3C217.5,102.7,215.8,102,214.2,101.4
				c0.2-0.6,0.7-1.3,0.5-1.7c-0.9-2.2-2-4.4-3.2-6.6c-0.2-0.4-0.7-0.6-1.1-0.9c-2,2.2-2.2,3.3-0.5,5.3
				C211.1,99,212.7,100.1,214.2,101.4z M290.6,365.6c9.2,0.2,18.3-1.1,27.4-2.9c-1.8-0.4-3.6-0.4-5.5-0.4c-7,0-13.9,0-20.9,0.1
				c-4.9,0.1-9.7-0.6-14.4-2c-0.8-0.2-1.6-0.2-2.5-0.3c2.5,2.3,5.5,3.1,8.5,3.9C285.8,364.7,288.2,365.1,290.6,365.6
				c-0.5,0.3-1,0.5-1.6,0.9c2.2,2.5,4.1,4.9,6.1,7c0.4,0.4,1.7,0.8,2,0.5c0.6-0.5,1.1-1.5,1-2.2c-0.2-1.8-1.4-3.1-3-3.9
				C293.7,367,292.1,366.3,290.6,365.6z M207.1,365.6c-1.7,0.9-3.4,1.8-5.1,2.8c-1.4,0.9-2.2,2.2-2.1,3.9c0.1,0.6,0.6,1.4,1.1,1.8
				c0.3,0.2,1.3-0.1,1.7-0.5c2.1-2.4,4.2-4.9,6.5-7.6C208.2,365.8,207.6,365.7,207.1,365.6c0.6-0.2,1.1-0.5,1.8-0.6
				c2.9-0.6,5.9-1,8.8-1.8c1.9-0.5,3.9-1,6-3.2c-2.3,0.5-3.7,0.8-5,1.1c-2.6,0.5-5.1,1.2-7.7,1.2c-9.8,0-19.6-0.3-29.4-0.5
				c-0.7,0-1.4,0.4-2.2,0.6C188.6,364.4,197.8,365.8,207.1,365.6z M424.7,236.2c1,0.1,2.1,0.1,3.1,0.4c4.5,1.5,7.2-1.4,10.5-3.9
				c-3.6-2.7-6.6-5.4-11.6-3.6c1.2-1.4,2-2.2,2.7-3.2c1-1.6,1.3-3.4,0.6-5.3c-0.6-1.6-2.1-2.7-3.2-2.3c-1.4,0.5-1.4,1.8-1.3,2.9
				c0.2,2.7-1.3,4.4-3.4,5.8c-0.8,0.5-1.6,1.1-2.5,1.7c0.8,0.6,1.4,1,1.7,1.3c-1,0.9-1.9,1.8-2.8,2.6
				C420.5,234.9,420.5,234.9,424.7,236.2c-1.6,0.1-3.5-0.6-5.2,1.2c0.9,0.5,1.6,1,2.2,1.3c2.6,1.1,3.9,3,3.7,5.8
				c0,0.4-0.1,0.8,0.1,1.2c0.3,0.7,0.6,1.6,1.2,1.8c0.5,0.2,1.5-0.2,2-0.6c2.5-2.1,2.1-6.2-0.8-8.6
				C427,237.6,425.8,236.9,424.7,236.2z M265.4,305.6L265.4,305.6c-0.9-1.7-2.5-1.8-4.1-1.3c-2.9,0.9-5.8,1.8-8.6,2.9
				c-1.8,0.7-3.4,0.9-5.3,0.1c-2.5-1-5.2-2-7.8-2.7c-1.3-0.4-3.1-0.7-4.2-0.2c-1.8,0.9-3.3,0.5-4.9,0.1c-1.8-0.5-3.4-0.2-4.9,0.6
				c-2.4,1.3-2.9,3.3-1.5,5.6c1.5,2.5,3.9,3.6,6.6,3.6c3.4,0.1,6.9,0,10.2-0.7c3.3-0.7,5.2,0.5,6.9,2.8c-1.2,1.8-2.4,1.6-3.8,0.6
				c-3.1-2.3-6.5-2.6-10.1-1.9c-2.4,0.5-4,2.4-4,4.3c0,1.9,1.6,3.7,4,4.2c2.5,0.5,5,0.4,7.3-0.7c1.4-0.7,2.8-1.4,4.1-2
				c2.3,2.4,4.1,4.5,2.9,7.9c-0.4,1-0.2,2.4,0.1,3.5c0.2,0.6,1.3,1.2,2.1,1.4c0.4,0.1,1.2-0.9,1.4-1.5c0.2-0.7,0.2-1.6,0.1-2.3
				c-0.3-1.4-0.7-2.8-1.1-4.3c1.2-1.5,2.4-3,3.7-4.5c1.8,0.8,3.1,1.8,4.6,2.1c2.1,0.5,4.4,0.8,6.5,0.7c2.1-0.1,4.2-2.6,4.1-4.1
				c-0.1-1.7-2.1-3.9-4.1-4.4c-0.5-0.1-1-0.1-1.6-0.2c-3.1-0.2-6,0.1-8.5,2.3c-1.6,1.4-2.8,0.8-3.9-0.7c2.3-2.9,4.9-3.6,8.4-2.6
				c2.8,0.8,6,0.5,9,0.4c2.4-0.1,4.6-1.2,6.1-3.1c1.8-2.2,1.4-4.7-1.2-5.8c-1.4-0.6-3-0.8-4.5-0.7
				C268.2,304.7,266.8,305.3,265.4,305.6z M228.3,88.8c1.5,0.2,3,0.7,4.4,0.6c1.3-0.1,2.1-1.2,1.9-2.5c-0.1-0.9-0.6-2-1.3-2.6
				c-1-0.8-2.3-0.4-3.1,0.6c-0.5,0.6-0.6,1.6-1,2.4C229,87.8,228.7,88.3,228.3,88.8c-0.4-1-0.9-2-1.2-2.9c-0.9-3.1,0.1-6.1,2.4-7.8
				c3.8-2.6,11.7-2.6,15.8,0.2c-4.6,4.4-8,9.3-8.5,15.9c-0.5,6.8,3,11.9,7.4,16.9c-4.3,2.4-8.3,4.2-13,5.1
				c-1.8-6.1-6.7-8.3-12.1-9.6c-4.6-1.1-9.3-1.8-14-2c-4.2-0.2-8.4,0.4-12.6,0.5c-6,0.1-12.1,0-18.1,0.1c-10.1,0.2-19.9-2-29.1-5.8
				c-7.4-3.1-13.1-8.3-15.6-16.2c-2.6-7.9,1.6-15,9.7-16.8c3.5-0.8,6.8,0.3,9.9,1.7c4.1,1.8,7.4,4.6,8.9,9c2.2,6.2-2,11.3-8.8,10.6
				c0.4-0.7,0.8-1.4,1-2c0.7-2,0.1-3.7-1.6-4.7c-1.6-1-3.4-0.7-4.6,0.7c-1.3,1.4-1.5,3.7-0.2,5.1c2.6,2.6,5.5,4.6,9.4,3.7
				c3.9-0.9,8.4-4.4,8.3-10.2c-0.1-3-0.7-5.7-2.4-8.2c-4.3-6-10.3-8.8-17.4-9.2c-4.2-0.2-8,1.3-11.1,4.2c-5.7,5.3-6.7,14.3-2.6,21.4
				c4.3,7.4,10.7,12,18.6,15.1c13.7,5.2,27.8,4.8,42,4.3c8.4-0.3,16.8-0.6,25.2-0.4c4.2,0.1,8.3,1.4,11.9,3.7c2.1,1.3,3.7,2.9,3,6
				c-1.7,0.3-3.3,0.9-5,1c-10.8,0.4-21.5,0.4-32.2-1.8c-14.7-2.9-29.3-6.2-44.2-7.9c-7.4-0.8-14.9-1.7-22.3-2
				c-6-0.2-12.1,0.1-18.1,0.6c-5.6,0.5-11.2,1.2-16.7,2.5c-10.4,2.5-19.9,6.8-26.9,15.3c-0.5,0.6-0.8,1.4-1.3,2.1
				c2.8-1.8,5-4.1,7.5-5.8c8.7-5.8,18.5-8.7,28.9-9.2c6.7-0.3,13.1,1.4,19.2,4c8.1,3.4,16.1,7.2,24.1,10.8
				c15.8,7.2,32.1,11,49.7,9.1c13.4-1.5,25.9-5.4,37.8-11.7c1.2-0.6,2.2-1.4,3.4-1.9c4.8-2.1,9.6-4.1,14.4-6.3
				c1.5-0.7,2.6-0.5,4,0.2c4.2,2.1,8.6,3.9,12.9,5.8c1,0.4,1.9,0.8,2.8,1.3c17.9,9.6,36.6,14.8,57.1,12.6c8.6-0.9,16.9-2.6,24.8-6
				c8.9-3.9,17.6-8.2,26.5-12.1c10.4-4.5,21-7.5,32.5-5c8,1.8,15.7,4.3,22.2,9.5c1.1,0.9,2.4,1.7,3.5,2.5c-1.7-3.6-4.9-5.6-7.8-7.7
				c-5.6-3.9-12-5.9-18.5-7.7c-8.2-2.2-16.6-2.8-24.9-3.1c-6-0.2-12.1,0.3-18.1,0.6c-4.2,0.2-8.4,0.4-12.5,1
				c-12.7,2.1-25.4,4.2-38,6.7c-12.4,2.5-24.9,4.1-37.5,3.3c-2.5-0.2-4.9-0.7-7.3-1c0.5-3.4,1.1-4.4,3.7-5.9
				c3.7-2.2,7.7-3.6,11.9-3.7c7.6-0.2,15.3-0.4,22.9,0.1c9.6,0.6,19.1,1.1,28.7-0.2c7.6-1,15-3,21.7-6.8c7.3-4.2,12.8-10,14.4-18.7
				c2.2-11.3-7.7-20.1-18-18.7c-3.8,0.5-7.4,2.1-10.5,4.3c-3.7,2.6-6.2,6-7.1,10.5c-1,4.6,1.4,9.4,5.6,11.6
				c4.1,2.1,8.5,1.2,11.8-2.4c1.5-1.7,1.6-3.2,0.3-4.9c-1.2-1.5-3-1.9-4.6-1c-1.9,1-2.6,2.7-1.9,4.6c0.3,0.8,0.8,1.5,1.2,2.3
				c-4.9,0.2-7.8-1.2-8.9-4.6c-0.9-2.8-1-5.8,0.7-8.4c3.9-6,9.7-9,16.7-8.7c7.9,0.4,13.3,7.3,11.4,15.5c-1.7,7.6-6.5,12.8-13.2,16.3
				c-8.7,4.7-18.2,6.8-28,7.2c-7.4,0.3-14.7,0.1-22.1,0c-4.3-0.1-8.6-0.6-13-0.6c-5.1,0.1-10.3,0.5-15.1,2.3
				c-4.6,1.7-9.1,3.6-10.4,9.4c-4.7-1.4-9.2-2.6-13.2-5.3c10.1-11.2,10.1-21.4-1.3-33.1c4.9-2.2,9.7-2.4,14.6-0.4
				c0.9,0.4,1.8,1.1,2.5,1.8c2.6,2.8,2.3,6.3-0.6,8.6c-0.2-0.9-0.3-1.8-0.7-2.6c-0.6-1.2-1.9-1.7-3-1.1c-0.9,0.5-1.8,1.6-2.1,2.5
				c-0.3,1.2,0.5,2.2,1.7,2.8c2.8,1.2,6.4-0.3,7.6-3.2c1.5-3.6,0-8.3-3.4-10.3c-5.1-3.1-10.7-3.6-16.3-1.5c-2.7,1-5,1.2-7.8,0.1
				c-4.4-1.6-9-1.3-13.5,0.1c-2.2,0.7-3.9,2.2-5.2,4.1c-1.4,2.1-1.5,4.5-0.9,6.8C225.7,87.1,226.4,88.6,228.3,88.8z M267.1,350.1
				c1.2,4.5,4.5,6.8,8.4,8.3c4.5,1.7,9,2.7,13.9,2.6c11.8-0.1,23.7,0,35.5-0.2c10-0.2,19.6,1.9,28.7,6c7.8,3.6,13.7,9.3,15.4,18.2
				c0.7,3.8-0.3,7.3-2.8,10.3c-3.2,3.8-7.5,4.6-12.1,4.1c-6.2-0.7-11-3.8-13.6-9.5c-2.7-6,0.2-10.7,5.8-12.2
				c0.6-0.2,1.4,0.2,2.4,0.3c-0.4,0.9-0.8,1.4-1,2c-0.7,2.4,0,4.2,1.9,5c1.8,0.8,3.9,0.2,4.9-1.3c1.1-1.8,0.8-3.6-1-5.2
				c-5.3-4.8-13.1-3.3-16.1,3.2c-1.9,4-1.1,7.8,1,11.3c3.6,5.9,9,8.9,15.7,10c4.9,0.8,9.1-0.5,12.8-3.6c6.8-5.7,7.3-14.3,2.9-22.2
				c-3.2-5.6-7.9-9.9-13.7-12.6c-8.2-3.7-16.8-6.2-25.8-6.4c-6-0.1-12.1-0.1-18.1,0c-7.2,0.1-14.4,0.5-21.6,0.8
				c-4.3,0.2-8.4-0.5-12.4-1.8c-2.3-0.7-4.5-2-6.7-3.3c-1.5-0.9-2.5-2.3-2.4-4.5c1.2-0.4,2.5-0.8,3.7-1c8.2-1.6,16.5-1.1,24.7,0.2
				c11.9,1.8,23.7,4.4,35.6,6.4c9.8,1.6,19.7,3.4,29.6,4c7.4,0.5,14.8,1.1,22.4,0.5c7.2-0.6,14.4-1,21.4-2.7
				c10.7-2.5,20.5-6.6,27.8-15.3c0.5-0.6,0.9-1.4,1.4-2c-2.5,1.6-4.5,3.7-6.8,5.3c-8.9,6.1-19,9-29.6,9.5
				c-6.4,0.3-12.5-1.5-18.4-3.9c-8-3.3-15.8-7.1-23.7-10.6c-3.6-1.6-7.2-3.3-10.9-4.6c-13.7-4.9-27.8-6.6-42.2-4.6
				c-7.9,1.1-15.5,2.8-22.8,5.8c-7.3,3-14.4,6.3-21.6,9.5c-3.6,1.6-7.1,3.4-10.2,4.8c-5.5-2.3-10.7-4.4-15.9-6.6
				c-0.5-0.2-1-0.4-1.4-0.7c-12.2-6.8-25-11.4-39-12.9c-9.6-1.1-19.1-0.9-28.6,1.2c-9.2,2-17.8,5.4-26.3,9.4c-6.3,3-12.5,6.1-19,8.6
				c-8.7,3.4-17.7,5.9-27.3,3.8c-8.9-1.9-17.6-4.4-24.8-10.5c-1.3-1.1-2.5-2.1-3.8-3.2c0,1.1,0.4,1.9,0.9,2.5
				c4.7,5.3,10.6,8.9,17.2,11.5c13,5.1,26.6,5.9,40.3,6c6.1,0.1,12.3-0.6,18.4-1.3c8.9-1.1,17.7-2.4,26.5-3.8
				c13.6-2.1,26.9-5.7,40.7-6.8c6.2-0.5,12.3-0.1,18.4,0.5c0.6,0.1,1.3,0.3,1.9,0.5c1.4,0.6,1.9,1.7,1,2.8c-1.1,1.4-2.5,2.8-4,3.7
				c-4.3,2.6-9.1,3.5-14,3.6c-6.4,0.1-12.8-0.5-19.3-0.6c-7.8-0.1-15.5-0.2-23.3-0.1c-2.9,0-5.8,0.3-8.6,0.8
				c-6.3,1.2-12.6,2.8-18.4,5.8c-6,3.1-10.7,7.7-13.7,13.7c-3.9,8-2.2,18,5.8,22.5c3.9,2.2,8.1,2.9,12.5,1.6
				c6.2-1.7,11.4-4.9,14.4-10.7c2.9-5.5,1.5-11.2-3.3-14.7c-4.1-3.1-10.6-2-13.3,2.2c-1.1,1.7-0.8,3.8,0.6,5
				c1.4,1.1,3.8,1.2,5.1,0.1c1.4-1.1,1.7-2.8,0.8-4.6c-0.3-0.6-0.7-1.2-1.1-2c6.6-0.7,10.7,4.1,9.2,10c-2,8.1-12.7,13.2-21,10.8
				c-4.4-1.3-7.2-4.4-8.1-8.9c-0.8-3.7-0.3-7.4,1.6-10.7c2.9-5,6.7-9.1,12-11.6c8.6-4.1,17.7-6.7,27.3-6.8c12.6-0.1,25.2,0.1,37.8,0
				c3,0,6.1-0.3,9-1c5.8-1.4,11.4-3.4,14.1-9.5c0-0.1,0.2-0.1,0.3-0.2c3.8,0.1,9.7,2.4,12.8,5.1c-4.6,4.4-7.8,9.5-7.4,16.3
				c0.4,6.7,4,11.7,8.4,16.3c-5.4,2.8-11.2,2.6-15.7,0c-2.1-1.2-2.8-3.1-2.8-5.3c0-1.9-0.1-3.9,2.2-4.8c0.3,1.1,0.4,2.2,0.9,3
				c0.7,1.1,1.8,1.5,3.1,1c1.2-0.5,1.9-1.4,1.8-2.8c-0.1-1.5-0.8-2.5-2.3-2.8c-4-0.7-7.1,1.7-7.3,5.8c-0.2,3.7,1.2,6.6,4.6,8.4
				c5.1,2.6,10.4,2.9,15.7,1c2.5-0.9,4.6-1,7.1,0c4.6,1.7,9.3,1.7,13.9,0c3.7-1.4,6.1-4,6.6-8.1c0.5-4.5-2.7-7.7-7.1-7.2
				c-1.5,0.2-2.9,1.4-2.9,2.8c0,1.5,0.7,2.5,2.1,3c1.3,0.5,2.8-0.2,3.5-1.8c0.3-0.6,0.3-1.4,0.5-2.3c3.3,4.2,2.5,8.9-1.8,10.7
				c-4.9,2.1-9.8,1.8-15-0.8c5.4-4.3,8.4-9.6,9-16c0.6-6.7-3.1-11.9-7.2-16.7C259.3,351.8,262.7,350.5,267.1,350.1z M85.1,230.7
				c0.2,0,0.3,0,0.5-0.1c-0.1-1.5-0.1-3.1-0.4-4.6c-1-6-4.3-10.9-7.8-15.7c-3.7-5.1-7.7-9.9-10.3-15.8c-3.4-7.8-5-15.8-4.2-25
				c2.4,11.2,6.5,21,12,30.2c3.6,6.1,7.1,12.2,10.5,18.5c2.4,4.4,4.3,9,2.5,14.6c2.9-2,3.4-2.4,3.1-4.9c-0.5-3.3-1.2-6.7-2.4-9.9
				c-3.1-7.9-8.1-14.7-12.4-21.9c-6.7-11.1-11.3-23-12.8-36c-1-8.9,0.6-17.2,3.8-25.4c1.6-4.1,4.3-7.5,7.8-10.2
				c4.8-3.8,12-1.2,13.4,4.8c0.6,2.8-0.3,4.4-3.4,5.4c-0.5-0.6-1-1.3-1.6-2.1c-1.1,1.3-0.8,2.4,0.1,3.3c1.1,1.2,2.6,1.4,4,0.7
				c2.3-1.1,3.5-3.1,3.8-5.6c0.8-7.8-7.6-13.8-14.9-10.8c-3.4,1.4-5.9,3.8-7.9,6.9c-6.3,9.7-8.2,20.3-6.9,31.6
				c0.3,2.8,0.4,5.4-0.1,8.2c-1.8,8.5-1.5,16.9,1.1,25.2c2.2,6.9,6.2,12.7,10.8,18.1c5,5.8,9.8,11.7,11.3,19.5
				C84.7,230.1,84.9,230.4,85.1,230.7z M85.2,235.7c-0.8,4.6-2.7,8.6-5.4,12.2c-1.9,2.6-4,5.2-6.2,7.7c-4.1,4.7-7.7,9.6-10.2,15.3
				c-2.6,5.9-3.5,12.1-3.6,18.4c-0.1,3.6,0.8,7.3,1.3,10.9c0.2,1.3,0.3,2.6,0.2,3.9c-0.5,5.7-1.3,11.4-0.3,17.2
				c1,5.9,2.6,11.5,5.7,16.6c2.3,3.7,5,7.1,9.5,8.4c9.3,2.6,14.9-5.3,14.2-11c-0.3-2.9-2.1-5.2-4.6-5.8c-1.3-0.3-2.4-0.1-3.2,0.9
				c-0.8,0.9-1.3,2,0.1,3.3c0.7-1.1,1.4-2.4,3-1.6c1.4,0.7,2.1,2.1,2,3.6c-0.1,3.8-3.4,7.9-7.3,8c-4.2,0-7.3-1.5-9.8-4.8
				c-4.7-6.3-7-13.5-7.8-21.2c-1-10.5,0.8-20.6,4.8-30.4c3.1-7.7,7.1-14.9,11.5-21.9c3.3-5.2,6.4-10.5,9.3-16c1.8-3.4,3-7,2.7-11
				c-0.1-1.6-0.2-3.1-2.2-4.4c1,6.2-1.5,11.1-4.1,15.9c-2.3,4.3-4.9,8.4-7.4,12.5c-3.5,5.7-7.2,11.3-9.6,17.6
				c-1.1,3-2.3,5.9-3.2,8.9c-0.9,2.8-1.7,5.7-2.6,9.1c-0.2-10.7,1.5-20.5,6.6-29.4c1.9-3.3,4.1-6.4,6.4-9.5
				c3.3-4.4,6.6-8.8,8.9-13.9C85.3,242.1,86.2,239,85.2,235.7z M410.7,234.2c-2.6,1.6-2.8,3.9-2.3,6.5c1,5.2,3,10.1,5.8,14.6
				c2.5,4.2,5.2,8.2,7.9,12.3c6.6,10.1,11.5,20.9,14.1,32.7c2.2,10.1,1.5,20.1-2.1,29.8c-1.7,4.5-4.1,8.5-7.9,11.6
				c-4.8,3.9-11.6,2-13.5-3.7c-0.8-2.6-0.3-4.1,2.3-6.1c0.8,0.5,1.5,1.1,2.5,1.8c0.6-1.7,0.6-3-0.9-3.9c-1.2-0.8-2.5-0.5-3.7,0.2
				c-4,2.3-4.7,7.8-1.7,12.1c4.5,6.6,12.3,5.7,16.6,2.2c2.7-2.2,4.6-4.9,6.3-8c5.1-9.3,5.8-19.3,4.7-29.5c-0.4-3.5,0.1-6.8,0.6-10.1
				c1.4-9.6,0.3-18.8-3.9-27.6c-2.8-5.9-7-10.8-11.1-15.7c-4.4-5.1-8.4-10.5-9.2-17.5c0-0.2-0.5-0.4-1.1-1c-0.1,1.4-0.4,2.5-0.1,3.4
				c0.7,2.8,1.3,5.7,2.6,8.2c2.2,4,4.7,7.9,7.5,11.5c4.6,6,8.8,12.1,11.2,19.3c2.1,6.4,2.3,13,2.5,19.6c-0.5-0.9-0.9-1.9-1.1-2.9
				c-2.4-9.4-6-18.1-11-26.5c-4-6.8-8-13.6-11.8-20.5C411.6,243.2,409.9,239,410.7,234.2z M414.2,134.4c-2.6-1.7-3.2-3.2-2.4-5.9
				c1.7-5.7,8.5-7.8,13.4-4.1c2.7,2.1,4.7,4.9,6.4,7.9c5.3,9.6,5.9,20.1,4.7,30.6c-1,8.2-3.6,16.2-7.6,23.5
				c-3.1,5.8-6.4,11.4-9.8,17.1c-3.5,5.7-7,11.4-9,17.9c-0.7,2.3-0.8,4.9-0.9,7.4c-0.1,1.5,0.4,3,2.2,3.8c0-6.7,0.5-9.1,3.4-14.8
				c1.8-3.5,3.7-7,5.7-10.3c4.7-7.8,9.4-15.5,12.5-24.1c0.9-2.5,1.7-5,2.4-7.5c0.7-2.4,1.2-4.7,1.8-7.1c0.4,1.1,0.4,2.1,0.4,3.2
				c0.2,10.1-2.2,19.5-7.6,28.1c-2.4,3.8-5.2,7.3-7.8,10.9c-3,4.2-5.8,8.4-7.1,13.5c-0.7,2.8-0.7,3.6,0.3,6.2
				c0.8-5.2,3.1-9.6,6-13.6c1.4-1.9,2.9-3.7,4.4-5.5c5.2-6.1,9.9-12.6,12.1-20.5c1.5-5.3,2.4-10.8,1.8-16.3
				c-0.3-3.4-1.1-6.7-1.6-10.1c-0.1-1,0.1-2.1,0.1-3.1c0.5-8.3,1-16.5-1.8-24.6c-1.9-5.5-4.5-10.7-9-14.6c-3.3-2.9-7.2-3.8-11.4-2.3
				c-4.2,1.5-6.7,4.5-7.3,9c-0.5,3.2,1.1,6.5,3.7,7.6c1.3,0.5,2.6,0.7,3.7-0.2c1.2-0.9,1.3-2.2,0.6-3.8
				C415.6,133.3,414.9,133.8,414.2,134.4z M326.6,244.4c0-8.8,0-17.1,0-25.5c0.7-0.3,1.2-0.5,1.6-0.6c1.2-0.2,2.1-0.9,1.7-2.1
				c-0.2-0.6-1.3-1.2-2.1-1.3c-1.8-0.2-3.7-0.2-5.5-0.1c-1.4,0.1-3.4-0.7-3.9,1.5c-0.4,1.4,0.5,2.1,3.6,2.7c0.1,3.2,0.5,6.4-0.3,9.5
				c-4.2,0.9-12.1,0.7-15-0.3c0-2.8,0-5.6,0-8.6c0.6-0.3,1.1-0.7,1.7-0.9c1.2-0.5,1.7-1.5,1.2-2.5c-0.3-0.6-1.3-1.4-2-1.4
				c-2.6-0.2-5.2-0.1-7.9,0c-0.6,0-1.6,0.8-1.7,1.2c-0.1,0.8,0.3,1.8,0.9,2.3c0.6,0.6,1.6,0.8,2.6,1.2c0.1,8.3,0.3,16.5-0.1,24.8
				c-0.9,0.2-1.6,0.4-2.2,0.5c-1.3,0.4-1.7,1.4-1.3,2.4c0.3,0.7,1.2,1.5,1.9,1.5c2.6,0.2,5.2,0.2,7.9,0c0.7-0.1,1.7-0.9,1.9-1.5
				c0.1-0.7-0.4-1.6-1-2.2c-0.5-0.5-1.3-0.7-2-1.1c-0.1-3.5-0.5-6.9,0.2-10.2c3.9-0.8,11.9-0.8,15,0.1c0,3.4,0,6.9,0,10.4
				c-0.7,0.2-1.2,0.4-1.7,0.5c-1.5,0.2-2,1.1-1.8,2.5c0.2,1.4,1.3,1.6,2.4,1.6c2.4,0,4.7,0,7.1,0c1.1,0,2.1-0.3,2.3-1.6
				c0.2-1.5-0.6-2.2-2-2.4C327.6,244.8,327.1,244.6,326.6,244.4z M247.9,140.2c-0.7,1.1-1.7,2.4-2.6,3.9c-1.7,2.7-2.8,5.6-3.2,8.8
				c-0.6,4.4,3,9.1,7.2,9.2c4,0.1,8.9-4.2,7.9-9.3c-0.9-4.9-3.1-9.1-5.9-12.5c0.2-2.4,0-4.4,0.6-6.1c0.7-1.8,2.1-3.2,3.4-4.9
				c-2.1-2.5-3.2-5.4-6-7.6c-1.9,2.6-3.6,5-5.4,7.5c1,1.4,1.9,2.4,2.6,3.7c0.5,0.9,0.9,1.9,1,2.8
				C247.8,137.1,247.8,138.5,247.9,140.2z M117.1,229.5c-2.4-3.8-4.5-6.9-6.5-10c0.3-0.4,0.4-0.6,0.7-0.8c0.9-0.7,1.4-1.6,1-2.7
				c-0.4-1.3-1.6-1.2-2.6-1.2c-2,0-3.9,0-5.9,0c-1,0-1.9,0.2-2.1,1.4c-0.3,1.2,0.1,2.3,1.3,2.5c2.5,0.4,3.4,2.3,4.5,4
				c1.5,2.3,2.7,4.9,4.5,6.9c3.9,4.6,2.6,9.7,2.5,14.9c-1.3,0.2-2.3,0.1-3,0.6c-0.6,0.4-1.1,1.4-1.2,2.1c0,0.5,0.8,1.6,1.3,1.6
				c3.4,0.1,6.8,0.1,10.2,0.1c1.1,0,1.8-0.8,1.6-1.8c-0.2-0.7-0.8-1.6-1.4-2c-0.7-0.4-1.7-0.4-2.9-0.6c0-3.3-0.1-6.4,0.1-9.5
				c0-0.9,0.5-1.8,1-2.5c2.4-3.9,5-7.7,7.5-11.6c0.8-1.2,1.5-2.4,3.2-2.7c1.1-0.1,1.6-1.1,1.2-2c-0.2-0.6-1.1-1.2-1.7-1.2
				c-2.1-0.2-4.2-0.2-6.3-0.1c-0.8,0.1-1.9,0.4-2.3,1c-0.7,0.9-0.2,2,0.7,2.8c0.4,0.3,0.7,0.8,1.2,1.4
				C121.4,223,119.4,225.9,117.1,229.5z M229.1,215.3c-4.4-0.9-8.4-0.5-12.2-0.5c-4,0-8.1-0.5-12.3,0.4c0,2.4,0,4.5,0,6.6
				c0,1.1,0.7,1.7,1.7,1.8c1.2,0.1,2.1-0.3,2.3-1.6c0.2-0.9,0.3-1.8,0.4-2.7c2-0.5,3.7-0.8,5.3,0.2c0.6,4.9,0.4,21.9-0.3,25
				c-0.8,0.1-1.8,0.1-2.6,0.5c-0.6,0.4-1.2,1.3-1.3,2.1c-0.2,1,0.6,1.8,1.6,1.8c3.3,0.1,6.6,0,9.8,0c1.1,0,1.7-0.6,1.8-1.7
				c0.1-1.2-0.4-2-1.7-2.2c-0.9-0.1-1.7-0.4-2.8-0.6c0-8.4-0.2-16.6,0.2-25.1c2-0.2,3.8-0.4,5.6-0.6c0.1,1.4,0.2,2.2,0.3,3.2
				c0.1,1.3,0.8,1.9,2,1.9c1.3,0,1.9-0.8,1.9-2C229.2,219.6,229.1,217.7,229.1,215.3z M259,236.5c-3.1,2.8-3.9,7.6-8.6,8.8
				c-0.4,0.1-0.7,1.4-0.6,2.1c0.1,0.6,0.9,1.4,1.5,1.5c1.8,0.2,3.7,0.2,5.5,0.1c2.1-0.1,2.8-1.1,2.2-3.1c-0.2-0.7-0.8-1.3-1.2-2
				c1-1.4,1.9-2.6,3-4.2c1.3,1.6,2.3,3,3.3,4.3c-0.4,0.7-0.8,1.2-1,1.8c-0.6,2.1,0,3,2.2,3.1c1.8,0.1,3.7,0.1,5.5-0.1
				c0.6-0.1,1.5-0.9,1.6-1.4c0-0.8-0.4-1.7-1-2.3c-0.6-0.6-1.9-0.6-2.3-1.3c-1.9-2.6-4-5.1-5.2-8.3c0.8-1.2,1.6-2.2,2.3-3.3
				c1.4-2,2.4-4.4,5.3-4.9c0.4-0.1,0.9-1.3,0.8-1.9c-0.1-0.6-0.9-1.4-1.5-1.5c-1.5-0.3-3.1-0.3-4.7-0.2c-2.2,0.1-2.7,1-2.2,3.1
				c0.1,0.6,0.6,1.1,0.9,1.7c-1,1.4-2,2.8-3.2,4.3c-1.1-1.6-2-2.9-2.9-4.3c0.3-0.5,0.7-0.9,0.8-1.4c0.8-2.4,0.2-3.3-2.1-3.4
				c-1.8-0.1-3.7-0.1-5.5,0.1c-0.6,0.1-1.5,0.9-1.5,1.4c-0.1,0.8,0.4,1.7,0.9,2.3c0.7,0.7,1.9,0.9,2.5,1.6
				C255.7,231.4,257.2,233.9,259,236.5z M173.9,224.1c-1.5-0.2-2.4-0.5-3.2-0.4c-1.4,0.1-3.4-0.6-3.9,1.6c-0.6,2.3,1.7,2.2,3,3.3
				c0,3.9,0.1,8,0,12c-0.1,2.9-2.6,5-5.8,4.9c-2.5-0.1-3.4-1.2-3.4-4.7c-0.1-4.5,0-8.9,0-13.4c0-1.1-0.2-2.2-0.4-3.7
				c-2.1,0-3.9-0.2-5.7,0.1c-0.7,0.1-1.5,1.1-1.7,1.8c-0.1,0.5,0.4,1.4,0.9,1.9c0.5,0.5,1.3,0.7,2,1.1c0,4,0,7.8,0,11.6
				c0,1.4,0.1,2.9,0.5,4.3c1,3.8,4.4,5.8,8.2,4.8c1.8-0.4,3.4-1.3,5.1-2c1.6,2.5,4.1,1.6,6.3,1.3c1.3-0.2,1.7-2.2,0.7-3.2
				c-0.6-0.6-1.5-0.9-2.6-1.5C173.9,237.5,173.9,231,173.9,224.1z M351.8,237.1c0.2-1.3,0.4-2,0.5-2.6c0-1.1,0.1-2.1,0-3.1
				c-0.5-5.1-4.4-8.2-9.5-7.8c-3.5,0.3-5.8,2.3-7.4,5.2c-2.1,3.7-2.4,7.6-1.5,11.8c1.6,7.9,8.8,11.1,16.4,7.7c2-0.9,2.1-1.9,0.8-4.4
				c-2.8,0.6-5.5,2.6-8.7,1.1c-2.6-1.2-3.9-3.5-3.7-7.8C342.9,237.1,347.2,237.1,351.8,237.1z M378,237.4c1.2-0.1,2.5-0.2,3.7-0.2
				c2.2-0.1,4.5,0,6.7-0.1c2.7-0.1,3.5-1.1,3-3.8c-0.4-2-1-4.1-1.9-6c-1.1-2.5-3.2-3.6-6-3.8c-3.8-0.3-6.6,1.2-8.8,4.2
				c-2.5,3.4-2.5,7.4-2.3,11.3c0.6,8.9,8.5,12.7,16.2,9.3c2-0.9,2.2-1.6,1.4-4.4c-1.5,0.4-3,0.9-4.5,1.2
				C380.2,246.4,377.2,243.4,378,237.4z M248.5,237c0.8-3.8,0.1-6.8-1.3-9.5c-2.9-5.6-11.4-5.5-15.1,0.1c-2.6,4-3,8.4-2,12.9
				c1.6,7.5,8.3,10.9,15.4,8c2.3-0.9,2.6-1.5,2.1-4.7c-1.8,0.5-3.5,1-5.2,1.4c-2.2,0.6-4.3-0.1-5.7-1.8c-1.5-1.7-2.4-3.7-1.2-6.5
				C239.6,237,243.9,237,248.5,237z M150.6,235.7c-0.5-2.1-0.8-4.4-1.6-6.4c-1.3-3.2-3.7-5.4-7.3-5.8c-3.9-0.4-7.3,0.6-9.5,4.1
				c-3.3,5.2-3.5,10.7-1,16.1c1.6,3.4,4.4,5.8,8.3,5.8c4.1,0,7.3-1.9,9.1-5.8C149.7,241.2,150.5,238.6,150.6,235.7z M227.6,190.4
				c0.2,0.2,0.5,0.4,0.7,0.6c1.1-1.2,2.2-2.4,3.3-3.5c1,0.9,1.9,2.4,3,2.6c1.2,0.2,2.6-0.8,3.9-1.2c4,3.5,8.3,1.8,10.1-4.6
				c-1,1-1.5,1.6-2.1,2.2c-0.8,0.7-1.5,1.5-2.4,1.9c-1.4,0.7-2.6-0.2-2.7-1.8c-0.2-3.1,1.3-5.1,4.3-5.8c0.8-0.2,1.6-0.6,3-1.1
				c-2.1-0.4-3.4-0.6-4.8-0.8c0.7-2.9,3.5-4.6,3-7.8c-2.1,0.1-2.9,1.5-3.6,2.8c-1.6,3.1-3.6,6-4.1,9.6c-0.3,2.1-1.2,4-3.7,4.5
				c-2.4-4,1.1-6.2,2.2-9.1c-1.1,0.8-2.3,1.6-3.4,2.4c-3.5-2.6-4.9-2.3-6.9,1.5c-0.6,1.2-1.1,2.4-1.9,3.5c-1.2,1.7-2.9,2.8-5,2.5
				c-0.5-0.1-1.1-0.6-1.3-1.1c-0.1-0.3,0.3-1,0.6-1.3c0.6-0.4,1.5-0.6,2.1-1c1.2-0.9,2.5-1.9,3.4-3.1c0.8-1.1,1-2.5-0.1-3.6
				c-1-1-2.2-0.8-3.3-0.3c-2.5,1.1-4.2,3.1-5.4,5.5c-0.9,1.8-1.5,3.7,0,5.5c1.1,1.4,3.6,1.8,5.9,0.9c1.1-0.4,2.2-1.1,2.9-1.9
				c1.2-1.4,2.1-3,3.2-4.5c0.6-0.8,1.1-1.6,1.9-2.6c1.5,1.9,0.9,3.2-0.2,4.5C229.2,187.3,227.7,188.5,227.6,190.4z M286.3,245.3
				c-0.7,0-1.1,0.1-1.5,0.1c-3.1,0.1-3.5-0.1-3.6-3.1c-0.1-2.8,0-5.5,0-8.3c0-1.9,0.1-3.9,0.2-5.9c1.4-0.2,2.4-0.3,3.4-0.4
				c1.1-0.1,1.9-0.7,1.7-1.8c-0.2-0.8-0.8-1.7-1.5-2c-1-0.5-2.2-0.5-3.5-0.7c-0.1-1.1-0.3-2-0.4-2.9c-0.1-1.3-0.6-2.3-2.1-2.3
				c-1.5,0-2.6,0.5-2.7,2.2c-0.1,0.9-0.2,1.8-0.2,2.6c-1,1.1-2.9,1-2.9,3c0.1,2,2.2,1.6,3.1,3.1c0,4.1,0,8.4,0,12.7
				c0,1.2,0,2.4,0.3,3.5c0.9,3.4,4.6,5.2,7.8,4.1C286.1,248.6,286.9,247.5,286.3,245.3z M288.4,177.4c-1.4,1.7-1.4,1.7-1.8,3.5
				c-0.7,2.7-1.6,5.3-4.1,7c-0.9,0.6-2.2,0.8-3.3,0.9c-0.5,0-1.1-0.8-1.9-1.4c1.6-0.8,2.8-1.2,3.9-1.9c1-0.6,1.9-1.4,2.5-2.3
				c0.8-1.1,1.1-2.5,0-3.6c-1.1-1.2-2.4-0.8-3.6-0.1c-2.1,1.1-3.4,2.8-4.5,4.8c-1.3,2.4-1.1,4.4,0.5,5.8c1.6,1.4,4.1,1.6,6.1-0.1
				c1.6-1.3,2.8-3.1,4.1-4.7c0.7-0.9,1.2-1.9,2.1-3.5c0.2,1.2,0.5,1.8,0.4,2.2c-0.2,1-0.6,2-1,3c-0.4,1.1-0.3,2.2,0.7,2.8
				c0.8,0.5,1.9,0.7,2.9,0.5c1-0.1,1.9-0.8,2.8-1.3c1.8,2.2,3.9,2.5,6.4,1.6c2.6-1,4.1-2.8,4.4-5.5c-4.8,4.6-5.2,4.8-8.1,2.5
				c1.2-0.6,2.1-1.2,3.1-1.6c1.7-0.8,3-2.1,3.7-3.9c0.7-2-0.5-3.5-2.6-3c-1.1,0.3-2.3,0.8-3.1,1.6c-1.3,1.4-2.5,3-3.4,4.7
				c-0.8,1.6-1.6,2.9-3.8,3.2c0.2-2,0.9-3.9,0.5-5.6C290.9,181,289.5,179.4,288.4,177.4z M358.2,228.6c0,5.1,0,10.3,0,15.6
				c-0.7,0.3-1.5,0.4-1.8,0.9c-0.5,0.6-1,1.6-0.9,2.3c0.2,0.6,1.2,1.4,1.9,1.5c2.4,0.2,4.7,0.1,7.1,0c1,0,1.9-0.5,1.9-1.6
				c-0.1-0.8-0.6-1.6-1.1-2.2c-0.4-0.4-1.1-0.6-1.9-0.9c0-4-0.1-7.9,0-11.8c0.1-2.2,1.2-3.3,3.4-3.8c1.1-0.3,2.2-0.4,3.2-0.6
				c0.2-0.7,0.4-1.1,0.4-1.5c-0.1-2.6-1-3.4-3.4-2.6c-1.1,0.4-2.1,1-3.4,1.6c-1-2-2.9-1.9-4.8-1.8c-1.3,0-2.8,0-3.2,1.6
				c-0.6,2,1.1,2.3,2.3,3C357.9,228.2,358,228.4,358.2,228.6z M182.3,244.1c-0.7,0.4-1.6,0.6-2,1.1c-0.5,0.6-0.9,1.6-0.7,2.4
				c0.1,0.5,1.1,1.2,1.7,1.3c2.5,0.1,5,0.1,7.5,0c0.6,0,1.6-0.8,1.7-1.3c0.1-0.8-0.3-1.7-0.8-2.4c-0.4-0.5-1.3-0.7-2.2-1.1
				c0-4-0.1-7.9,0-11.8c0.1-2.1,0.9-3.1,3-3.6c1.2-0.3,2.5-0.5,4.2-0.8c-0.3-1.5-0.2-3.2-1-3.7c-0.9-0.5-2.5-0.2-3.6,0.2
				c-1,0.3-1.9,1.2-2.9,1.8c-1.4-2.5-1.5-2.6-4.4-2.5c-1.3,0-2.8-0.3-3.2,1.5c-0.5,1.9,0.8,2.5,2.3,3c0.2,0.1,0.3,0.4,0.6,0.7
				C182.3,233.8,182.3,238.9,182.3,244.1z M219.2,307.2c-0.3-0.4-0.7-1.1-1.3-1.4c-0.5-0.3-1.3-0.2-1.9-0.1
				c-3.2,0.2-6.5,0.7-9.8,0.8c-4.5,0.1-8.9,0-13.4,0s-8.9,0-13.4,0c-4.5,0-8.9,0-13.4,0c-4.5,0-9-0.3-13.4,0.1
				c-4.4,0.4-8.6-1.6-13-0.3c-0.7,0.2-1.7-0.5-2.5-0.8c-0.9-0.3-1.7-0.8-2.6-1c-1.6-0.4-3,0.2-3.6,1.6c-0.3,0.8-0.1,2.1,0.3,2.9
				c0.7,1.3,2,1.7,3.4,1.3c0.9-0.3,1.7-0.6,2.5-1.1c1.5-0.8,2.9-1,4.5-0.1c0.6,0.3,1.6,0.4,2.2,0.1c2.2-1.2,4.6-1,6.9-1
				c17.6,0,35.2-0.1,52.8,0c4.3,0,8.6-0.8,12.8,1.2C217.5,309.9,219.1,308.8,219.2,307.2z M319.3,308.2
				C319.3,308.2,319.3,308.1,319.3,308.2c9.7-0.1,19.4-0.1,29.1-0.1c1.4,0,2.9,0.1,4.3,0.2c2.2,0.3,4.4,1.5,6.7,0.2
				c0.6-0.3,1.7,0.3,2.6,0.6c1,0.3,1.9,0.9,2.9,1.1c1.4,0.3,2.7-0.3,3.3-1.6c0.4-0.7,0.4-1.8,0.1-2.6c-0.5-1.4-1.8-1.8-3.2-1.8
				c-0.4,0-0.8,0.1-1.1,0.3c-2.4,1.1-4.7,2.5-7.4,0.8c-0.2-0.1-0.7,0.2-1.1,0.2c-2,0.3-4.1,0.7-6.2,0.8c-17.1,0-34.1,0.1-51.2,0
				c-5.1,0-10.2,0.8-15.2-0.8c-0.2-0.1-0.6-0.1-0.8,0c-0.6,0.5-1.6,1-1.8,1.7c-0.3,1.2,0.5,2,1.7,2.2c0.5,0.1,1.1,0,1.5-0.3
				c2.1-1.2,4.3-1,6.5-1C299.9,308.2,309.6,308.2,319.3,308.2z M79.9,228.6c-0.9-0.6-1.5-1.1-2.2-1.4c-2.1-1-3.1-2.7-3.2-5
				c0-0.5,0.1-1.1-0.1-1.6c-0.3-0.8-0.8-2.1-1.3-2.1c-0.9-0.1-2.1,0.3-2.7,1c-1.9,1.9-2,4.5,0,6.7c1.2,1.4,2.9,2.4,4.9,3.9
				c-1.9-0.6-3.3-1-4.7-1.3c-0.9-0.2-1.9-0.5-2.6-0.2c-2.3,1.1-4.5,2.5-6.9,3.8c1.7,2.6,4.2,3.3,6.4,4.3c1.7,0.8,11.2-1.4,12.6-2.7
				c0.3-0.3,0.4-0.9,0.7-1.5c-0.9-0.8-1.7-1.6-2.4-2.3C78.9,229.6,79.3,229.2,79.9,228.6z M267.1,177.4c0.2-1.2,0.3-2.2,0.5-3.2
				c0.2-1,0.7-2,0.8-3c0.3-2-1-3.1-2.8-2.5c-2.1,0.7-3.6,2.1-4.5,4.2c-0.6,1.4-0.3,2.5,1.3,3.1c2-4.2,2-4.2,3.7-5.2
				c-1.1,3.4-1.5,6.9-4.6,9.1c1.7,2.1,0.3,3.8-0.1,5.7c-0.4,2-0.9,4-1.3,6c0.4,0.1,0.7,0.3,1.1,0.4c3.2-2.9,2.4-7.9,5.1-11.4
				c0.6-0.1,1.4-0.2,2.1-0.2c0.9,0,1.8,0.1,2.8,0.2c-0.6,2.8-1.3,5.3-1.7,7.9c-0.2,1.4-0.2,2.9,2.2,3.3c0.3-1.8,0.7-3.4,1-5.1
				c0.4-2.3,0.3-4.7,2.2-6.5c0.2-0.2,0.5-0.8,0.4-1c-1.3-2.9,0.7-5.3,1.2-7.9c0.1-0.8,0.2-1.6,0.4-3.2c-2.3,1.6-2.5,3.6-3.2,5.2
				c-0.7,1.6-1.2,3.4-1.9,5.3C270.1,178.2,268.8,177.8,267.1,177.4z M310.3,181.7c0,0.4,0,0.7-0.1,1.1c0.6,0.2,1.1,0.6,1.7,0.6
				c3.4,0,6.8-0.1,10.2-0.1c2.9,0,5.7,0.1,8.6,0.4c1.2,0.2,2.4,1.1,3.3,1.9c1,1,1.7,2.4,1.1,3.9c-0.6,1.5-1.7,2.2-3.9,2.3
				c0.9-0.7,1.3-1.1,1.7-1.5c1.1-1.1,1.4-2.2,0.4-3.5c-1-1.2-2.6-1.5-3.9-0.8c-1.2,0.7-1.8,1.8-1.8,3.3c0,1.6,0.9,2.7,2.4,3.3
				c2,0.8,4.7,0.1,5.8-1.3c1.1-1.6,1-4.6-0.3-6.3c-0.8-1.1-1.7-2.3-2.5-3.3c2.7-1.9,3.6-3.4,3.5-5.9c-0.2-3.4-3.9-5.5-6.9-4
				c-1.7,0.9-2.4,2.9-1.7,4.7c0.7,1.6,2.5,2.5,4.2,1.9c1.1-0.3,1.8-1.1,1.8-2.3c0-1.2-0.6-2-1.7-2.3c-0.8-0.2-1.6-0.1-3.1-0.2
				c3.9-0.8,5.5-0.4,6.1,1.3c0.5,1.5-0.8,4.3-2.8,5.1c-1.8,0.7-3.8,1.1-5.7,1.2c-4,0.2-8.1,0.1-12.2,0.1
				C313.1,181.7,311.7,181.7,310.3,181.7z M274.9,106c0.6-0.1,1.2-0.2,1.8-0.3c6.2-1.8,12.5-2.7,19-2.5c6.1,0.2,12.3,0.5,18.4,0.7
				c1.3,0,2.6-0.1,3.9-0.2c-9-2.2-18-3.6-27.9-3.1c1.9-0.9,3.4-1.2,4.4-2.1c1.3-1,2.4-2.3,3.3-3.7c0.8-1.3,0.3-2.5-1.4-3.2
				c-0.4,0.3-1,0.7-1.4,1.1c-1.5,1.7-3.2,3.2-4.3,5.1c-1.9,3-4.7,3.7-7.8,4.4C280.1,102.7,277.1,103.4,274.9,106z M166.6,182.1
				c-1.2,1.6-2.5,2.9-3.3,4.5c-1.1,2.1-0.3,4.4,1.4,5.6c1.7,1.2,4.8,1,6.3-0.3c1.4-1.2,1.6-3.1,0.5-4.6c-1.1-1.5-3.2-2.1-4.5-1.1
				c-0.7,0.6-1.4,1.6-1.4,2.5c0,0.6,0.9,1.4,1.7,1.9c0.6,0.4,1.4,0.3,2.4,0.4c-0.6,0.4-1,0.7-1.3,0.7c-2.1-0.1-3.3-0.9-3.7-2.3
				c-0.4-1.7,0.2-4,1.9-4.8c1.3-0.7,2.9-0.9,4.5-1.2c1.3-0.2,2.9,0.2,4.3-1.3c-1.3-0.2-2.2-0.2-3-0.4c-1.8-0.4-3.6-0.7-5.3-1.4
				c-2.2-1-3.1-3.1-2.4-5.2c0.8-2.2,2.5-1.8,5.1-1.6c-1.1,0.3-1.4,0.4-1.7,0.5c-2,0.7-2.8,1.6-2.5,2.8c0.4,1.5,2.4,2.5,4.2,2
				c2.3-0.7,3.1-3.6,1.6-5.4c-1.6-1.9-4.4-2.3-6.4-1c-2.2,1.5-2.9,4.3-1.4,6.6C164.4,180.1,165.6,181.1,166.6,182.1z M233.8,167.6
				c-0.8-0.3-1.1-0.6-1.5-0.6c-5.6-0.2-11.3-0.5-16.8,0.8c-5.9,1.4-11.5,3.6-15.7,8.3c-1.5,1.7-2,3.4-1.2,4.6c1,1.6,2.7,1.4,4.3,1.3
				c0.3,0,0.5-0.1,0.8-0.1c4.2-1.3,7.9-3.5,10.1-7.5c0.1-0.1-0.2-0.4-0.4-0.8c-2,1.4-3.9,3-6,4.2c-2.1,1.2-4.3,2.5-7,1.1
				c0.4-1.9,1.6-3.1,3-4.1c4.7-3.4,9.9-5.3,15.7-5.4c3.4-0.1,6.8,0,10.2-0.1C230.8,169.2,232.4,169.2,233.8,167.6z M255.6,295.1
				c1,0.2,1.8,0.4,2.5,0.4c0.8,0,1.6,0,2.4-0.1c2.3-0.4,3.3-1.9,2.9-4.2c-0.2-1.1-0.3-2.3-0.3-3.4c0-2.4-0.7-3.4-3.1-3.6
				c-1.4-0.1-2.8,0-4.4,0.1C255,288.2,254.9,291.6,255.6,295.1z M171.3,291.4c2-2.8,2.4-4.2,1.2-5.6c-1.9-2.3-4.3-1.8-7.2-1
				c0,3.1,0,6.1,0,9c0,0.5,0.6,1,0.8,1.5c2.3-0.6,0.8-3,2-3.9c2,0.6,1.8,3.9,4.9,3.8C172.4,293.7,171.8,292.5,171.3,291.4z
				 M358.1,291.5c1.9,0.8,1.9,3.8,4.8,3.8c-0.7-1.5-1.2-2.7-1.8-4c1.1-1.5,3.2-3.1,1.5-5.4c-1.8-2.4-4.3-1.8-6.6-1.3
				c-0.9,3.2-0.9,8-0.2,10.2c0.1,0.2,0.6,0.4,0.8,0.5c0.2-0.1,0.5-0.1,0.5-0.2C357.4,293.8,357.8,292.6,358.1,291.5z M241.2,284.5
				c-1.6,3-1.5,8.5,0.2,10.9c2-1.7,0.4-4.3,1.4-6.2c2.4,1.5,2.6,5.4,6.3,6.2c0.7-3.5,0.5-6.7,0.2-9.9c0-0.4-0.6-0.7-1.1-1.2
				c-1.9,2-0.4,4.5-1.6,6.5c-0.9-1.3-1.7-2.5-2.5-3.6C243.4,286.1,243,284.4,241.2,284.5z M79.6,236.7c-4.8-0.9-8.4,0.8-10,4.5
				c-1,2.2-0.3,4.7,1.5,5.9c1.7,1.1,3.4,0.6,3.3-1.4c-0.3-4,1.5-6.5,4.9-8.1C79.5,237.6,79.5,237.2,79.6,236.7z M322.8,284.5
				c-1.1,3.2-0.5,6.4-0.5,9.5c0,0.4,0.4,1,0.8,1.3c2.4,1.6,7.6-0.1,8.4-2.9c1.5-5.3-1.4-8.4-5.5-8.1
				C324.9,284.3,323.9,284.4,322.8,284.5z M315.1,49.8c4.3-7.1,4.3-9.2,0-13.7c-1.8,1.7-2.1,4.1-3.1,6.1c-0.1,0.3,0,0.8,0.1,1.1
				C313,45.5,314,47.5,315.1,49.8z M154.3,290c0.1-3.5-2-5.7-5.5-5.8c-3.5-0.1-6.1,2.3-6.1,5.7c0,3,2.3,5.5,5.4,5.7
				C151.7,295.7,154.2,293.5,154.3,290z M277.6,295c1.1-1.4,2.8-2.9,5.3-4.5c1.5-0.9,1.6-2.3,1.4-3.8c-0.2-1.5-1.1-2.3-2.6-2.4
				c-1.4-0.1-2.8,0-4.3,0.1C276.8,288.2,276.9,291.6,277.6,295z M238.3,295.9c-0.3-5.1-2.1-9.7-4.1-11.4c-2,2-4.2,7.8-4.1,11.2
				C232.6,293.4,235.1,291.4,238.3,295.9z M297,283.8c-2.7,3.4-4.5,8.4-4.3,11.2c1.3-0.6,2.6-1.3,4-1.8c2-0.8,2.5,1.9,4.6,2.1
				C300.4,291.2,299,287.7,297,283.8z M345.1,295.9c2.1-3.7,2-9.4-0.1-11.5c-0.5,1.5-1,3-1.5,4.6c-1.2-0.1-2.4-0.2-3.4-0.2
				c-0.5-1.5-0.8-2.8-1.2-4.1c-0.3,0-0.6,0.1-0.8,0.1c-0.8,3.1-0.4,6.3-0.3,9.4c0,0.4,0.5,0.7,1.1,1.4c0.5-1.8,0.8-3.1,1.2-4.7
				c1.3,0.1,2.4,0.1,3.5,0.2C344.2,292.6,344.5,293.9,345.1,295.9z M206.8,192.3c3.4-1,3.7-4.2,5.2-6.5c1.6-2.5,3-5.3,4.2-8
				c1.1-2.5,3.3-4.6,3.9-8.2c-1.1,0.6-1.9,0.7-2.1,1.1C213.9,177.8,210,184.8,206.8,192.3z M299.1,366.6c3.2,3.2,5.7,5.8,8.3,8.3
				c0.4,0.4,1.4,0.7,1.7,0.5c0.5-0.4,1.2-1.3,1.1-1.9c-0.1-1.1-0.5-2.4-1.2-3.2C306.5,367.8,303.5,366.5,299.1,366.6z M265.1,284.5
				c-1.1,3.1-0.6,6.3-0.4,9.3c0,0.5,0.9,1.4,1.4,1.5c1.4,0.2,3,0.6,4.7-0.9c-0.9-0.3-1.5-0.5-2-0.8c-0.6-0.4-1.5-0.8-1.5-1.3
				c-0.1-0.5,0.7-1.1,1.2-1.6c0.4-0.4,0.9-0.6,1.5-1.1c-0.7-0.4-1.1-0.5-1.4-0.7c-0.5-0.5-1-1-1.5-1.5c0.5-0.5,1-1,1.5-1.4
				c0.5-0.4,1.2-0.6,1.9-0.8c0-0.2-0.1-0.5-0.1-0.7C268.7,284.5,267,284.5,265.1,284.5z M312.5,292.2c-1,0.5-2,1-3.1,1.4
				c-2.7,0.8-4.9-0.7-5.1-3.3c-0.3-3,2-4.9,5.1-4.1c1,0.2,2,0.7,3.5,1.2c-2.1-3-4.4-3.8-7.1-3c-2,0.7-3.4,2.8-3.5,5.2
				c-0.1,2.6,1.3,4.7,3.6,5.5C308.7,296.2,310.9,295.5,312.5,292.2z M365.1,284.7c-0.6,3.4-0.6,6.9,0.1,10.5c2.1,0.3,3.8,0.7,6-0.6
				c-1.2-0.4-1.9-0.6-2.5-0.9c-0.5-0.3-1.2-0.8-1.2-1.2c-0.1-0.5,0.4-1.1,0.9-1.5c0.5-0.5,1.1-0.7,2-1.2c-0.7-0.4-1.1-0.5-1.4-0.8
				c-0.5-0.5-1.4-0.9-1.5-1.5c-0.2-1.2,0.9-1.4,1.8-1.6c0.5-0.1,1-0.5,1.9-0.8C368.2,284.1,368.2,284.1,365.1,284.7z M197.9,367.1
				c-3.3-0.6-7.1,0.9-9.1,3.5c-0.4,0.5-0.7,1.1-0.9,1.7c-0.4,1.2-0.4,2.4,0.8,3.1c1.1,0.7,1.9-0.2,2.7-0.9c2.2-2.2,4.3-4.4,6.5-6.7
				C198,367.7,197.9,367.4,197.9,367.1z M227.6,287.6c-1.7-3.2-4.4-4.2-7.1-3.1c-2.3,0.9-3.7,3.8-3.2,6.5c0.6,3,3.1,4.8,6.4,4.5
				c2.4-0.2,3.1-0.8,3.3-3.2c-2.3,1.2-4.6,2.6-6.8,0.2c-1.3-1.3-1.3-3.6-0.2-5.1C222.1,284.6,224.5,286.4,227.6,287.6z M308.6,90.3
				c-3,2.8-5.9,5.4-8.8,8c-0.1,0.1-0.1,0.5-0.2,1c4.2,0.1,7.5-1.5,10-4.8C310.7,93.1,310.6,91.6,308.6,90.3z M198.4,99.1
				c-2.7-2.9-5.1-5.5-7.5-8c-0.4-0.4-1.6-0.7-2.1-0.4c-0.5,0.3-0.9,1.2-0.9,1.9c-0.1,1.9,1,3.2,2.5,4.2
				C192.6,98.4,195.1,99.5,198.4,99.1z M199.4,287.7c-1.5-0.9-1.4-3.4-3.9-3.1c0,2.3,2.1,3.4,2.4,5.3c-0.3,1.9-2.5,3-2.3,5.3
				c2.3,0,2.3-2.4,3.8-3.1c1.2,0.8,1.2,2.9,3.5,3c-0.2-0.9-0.3-1.6-0.6-2c-1.9-2.3-1.7-4.5,0.1-6.7c0.3-0.4,0.2-1.1,0.3-1.7
				c-0.2-0.1-0.4-0.2-0.7-0.4C201.2,285.4,200.4,286.5,199.4,287.7z M55.5,48.7c-3.4,0.2-5.4,1.7-6.1,4c-0.8,2.5,0.1,5.2,2.1,6.2
				c0.6,0.3,1.6,0.3,2.1-0.1c0.4-0.3,0.7-1.5,0.5-2C52.5,54,53.5,51.5,55.5,48.7z M163.5,284.9c-0.3,0-0.6-0.1-0.8-0.1
				c-0.2,0.6-0.5,1.1-0.5,1.7c-0.1,1.2,0,2.4-0.1,3.5c-0.1,2.8-0.7,3.7-2.4,3.7c-1.6-0.1-2.1-0.9-2.2-3.5c-0.1-1.3,0.1-2.6-0.1-3.9
				c-0.1-0.6-0.6-1.1-1.3-2.2c-0.8,3.3-0.7,5.9-0.4,8.5c0.2,2,1.8,3,3.9,3c2.2,0,3.8-1,4-3C163.9,290,164.1,287.4,163.5,284.9z
				 M353.9,284.7c-1.9-0.7-3.6-0.8-5.7,0.3c-0.1,3.4-0.5,6.8,0.3,10.4c2.1,0,3.8,0.6,6-0.8c-1.9-0.6-3.1-1-4.1-1.3
				c-1.4-3.3,2.5-1.9,2.9-3.8c-1.1-0.4-2.1-0.8-3.1-1.1C349.3,284.9,353.4,286.8,353.9,284.7z M317.2,288.4c-1-3.5,3-1.6,3.6-3.7
				c-1.9-0.7-3.6-0.8-5.7,0.2c-0.1,3.4-0.5,6.9,0.3,10.2c2.1,0.4,3.8,0.7,6.1-0.5c-1.9-0.6-3.1-1-4.2-1.4c-1.5-3.3,2.4-1.9,2.9-3.7
				C319.1,289.2,318.1,288.8,317.2,288.4z M193.9,294.5c-1.2-0.4-1.7-0.6-2.2-0.7c-1-0.2-2-0.5-1.7-1.6c0.1-0.5,0.9-1,1.5-1.4
				c0.5-0.3,1.1-0.4,2.3-0.9c-1.2-0.5-1.8-0.6-2.3-0.9c-0.6-0.4-1.4-0.8-1.6-1.3c-0.3-1.2,0.7-1.4,1.7-1.6c0.6-0.1,1.1-0.4,2.1-0.9
				c-2.3-1.1-3.9-1.1-5.7-0.1c-0.2,3.3-0.5,6.7,0.3,10.2C190.1,295.5,191.7,295.9,193.9,294.5z M179.7,284.7c2,2.5,2,2.5,2.1,5.7
				c0,1-0.1,2.1,0.1,3.1c0.1,0.6,0.6,1.2,1.1,2c1.8-1.6,1.1-3.4,1.2-5c0.1-3.3,0.1-3.3,2-5.7C184,284,181.9,283.9,179.7,284.7z
				 M208.8,99.8c-1.7-2-2.9-3.4-4.1-4.7c-1.1-1.3-1.8-3.1-3.8-3.5c-1.3,2.4-1.4,3-0.5,4.3C202.3,98.4,204.8,99.7,208.8,99.8z
				 M142,284.9c-0.3-0.2-0.6-0.3-0.8-0.5c-1,1.4-2,2.7-3,4.1c-1.4-1.3-1.3-3.4-3.7-4.1c0.2,2.4,1.3,4,2.3,5.5c1,1.6-0.1,3.9,1.9,5.5
				c0.4-2.2,0.6-4,1.2-5.6C140.6,288.1,142,286.8,142,284.9z M282.6,364.7c1.4,3,2.4,5.3,3.5,7.4c0.3,0.6,1.1,0.8,1.8,1.2
				c0.4-0.7,1.1-1.4,1.1-2.2c0-0.8-0.4-1.8-0.8-2.5C287.1,366.8,285.4,365.8,282.6,364.7z M208.6,287c1.2-0.8,2-1.3,3.1-2
				c-2.6-1-4.6-1-7.9,0.1c3.8,1.1,3.1,3.5,3.1,5.6c0,1,0,2.1,0.1,3.1c0.1,0.5,0.6,0.9,0.9,1.3c0.2-0.1,0.4-0.1,0.7-0.2
				C208.6,292.2,208.6,289.5,208.6,287z M215.2,364.9c-3,1-4.5,2.5-5.6,4.2c-0.6,0.8-0.6,2.1-0.5,3.2c0,0.4,0.9,0.9,1.4,1.1
				c0.3,0.1,1-0.4,1.2-0.7C212.7,370.3,213.7,368,215.2,364.9z M288,92.5c-1.6,1.1-4,5.2-4.8,8.2C288.2,99.1,290,95.9,288,92.5z
				 M285.9,294.7c1.8,1.1,3.4,1.1,5.6-0.1c-1.5-0.6-2.6-1-3.5-1.3c-1.1-2.9,0.6-6.1-1.9-9.4C285.5,288,285.7,291.4,285.9,294.7z
				 M99.6,233.1c-4.1-2.9-4.9-2.9-8,0.1C95.3,235.7,95.3,235.7,99.6,233.1z M400.4,233.2c3.9,2.7,4.3,2.7,7.9-0.2
				C405.1,230.5,403.5,230.1,400.4,233.2z M189.9,182.6c-2.6-1.4-4.8-0.9-6.8-0.9c-2.1,0.1-4.5-0.7-6.8,0.9
				C179.9,183.6,185.9,183.6,189.9,182.6z"/>
			<path class="st30" d="M67.4,39.8c-1.1,1-2.3,2.1-3.4,3.1c-1.9-0.6-3.6-2.1-5.4,0c1.1,0.3,2.2,0.6,3.3,1c3.8,1.3,6.7,3.6,8.1,7.5
				c1.5,3.9-1.3,9.5-5.4,10.4c-1.2,0.3-2.7,0-3.8-0.4c-3-1.2-4.9-5.4-4-8.5c0.6-2,2.1-3.5,3.8-3.4c1.4,0,3,1.4,3.3,3.5
				c0.2,1.8-0.2,3.6-0.3,5.6c1.1,0.6,2.5,0.5,3.3-0.6c0.9-1.2,1.6-2.8,1.6-4.2c0-1.3-0.7-2.8-1.6-3.9c-3.7-4.8-11.8-5.5-16.3-1.6
				c-4.1,3.5-4.7,11.1-0.9,14.9c1,1,2.7,1.4,4.1,2.1c0.2,2.2-2.2,1.8-3.2,3.1c0.2,0.5,0.4,1.1,0.7,1.7c2.5,4.8,0.8,8.9-2,12.8
				c-0.3,0.4-0.8,0.7-1.2,1c-0.9,0.5-1.9,0-2-1c0-0.1,0-0.3,0-0.4c1.8-6.6-0.5-13-1.3-19.5c-0.2-2.1-0.5-4.2-0.4-6.3
				c0-3.5,1.3-6.7,3.9-9.2c0.7-0.7,1.4-1.5,2.4-2.6c-2.1-1.4-4-2.6-6.2-4c1.6-2.4,4.4-2.7,6.5-4.4c-5.4-4.1-7.2-9.6-6.4-16.2
				c1,0,2.1,0,3.2,0c-0.2,1-0.4,2-0.5,3.1c-0.3,3.4,0.2,6.5,2.7,9c4.8,4.8,13.8,4,17.5-1.7c1.7-2.6,1.3-5.8-1-7.8
				c-1.1-0.9-2.1-1.1-3.1,0.1c0.3,1.2,0.8,2.5,0.9,3.7c0.2,2.4-1.6,5-3.4,5.1c-2,0.1-4.5-2.9-4.2-5.3c0.2-1.3,0.6-2.5,1.2-3.7
				c0.4-0.9,1.1-1.8,1.7-2.6c2.6,0,5.3,0,7.9,0c0.8,1.2,1.5,2.4,2.2,3.7c0.9,1.7,1.3,3.5,0.7,5.3c-0.8,2.6-2.2,4.7-4.6,6.1
				c-2.8,1.7-5.8,2.7-9.3,2.5c1.7,0.6,3.1,1.2,4.8,1.7c0.8-0.4,1.7-0.8,2.5-1.2C65.1,38.8,66.3,39.3,67.4,39.8z"/>
			<path class="st30" d="M317.5,20.1c0,2,0,3.9,0.1,5.9c0.1,2.5,1,4.6,3,6.2c2.1,1.7,4.4,1.5,6.7,0.8c1.1-0.3,2-1.3,1.5-3
				c-0.9-0.1-1.9-0.3-2.9-0.5c-1.9-0.4-3.5-1.3-4.6-2.9c-1.3-1.9-0.6-4,1.5-4.8c3.2-1.4,7.8,0.7,9.5,4.3c1.6,3.3,0.3,6.8-3,8.6
				c-4.7,2.5-9.5,1.2-12.3-3.2c-0.6-0.9-1-1.9-1.5-2.9c-0.8,1.3-1.6,2.5-2.3,3.7c-2.5,4-8.8,4.9-12.9,1.7c-2.8-2.2-3.3-5.7-1.4-8.8
				c2-3.2,6.3-4.7,9.2-3c0.8,0.4,1.4,1.5,1.6,2.4c0.3,1.7-0.5,3.2-2.1,3.9c-1.7,0.7-3.5,1.1-5.4,1.7c-0.6,1.3-0.2,2.4,1.2,3.1
				c3.5,1.5,7,0.2,8.6-3.2c1.6-3.2,2-6.5,0.7-9.9C314.3,20.1,315.9,20.1,317.5,20.1z"/>
			<path d="M67.4,39.8c-1.2-0.5-2.4-1-3.7-1.6c-0.8,0.4-1.8,0.9-2.5,1.2c-1.6-0.6-3.1-1.1-4.8-1.7c3.5,0.2,6.5-0.8,9.3-2.5
				c2.4-1.5,3.8-3.6,4.6-6.1c0.6-1.8,0.3-3.6-0.7-5.3c-0.7-1.2-1.5-2.5-2.2-3.7c4.7,0,9.5,0,14.2,0c-0.3,0.2-0.6,0.5-0.9,0.7
				c-1.6,1.2-2.5,2.6-1.9,4.7c0.7,2.1,2.3,3.1,4.4,3.3c1.1,0.1,2.3,0,3.4,0c0.5,1.9,0.8,3.8,1.4,5.6c0.6,1.8,1.5,3.6,2.2,5.4l0,0
				c-3.4-1.6-6.9-3.1-10-4.6c-0.6-1.8-0.8-3.7-1.6-5.2c-1.7-2.9-5.4-2.6-7,0.4c-0.7,1.4-0.4,3,0.8,3.4c1.4,0.5,1.8-0.6,2.2-1.6
				c0.1-0.2,0.4-0.3,0.6-0.4c1.6,2,1.8,2.9,0.4,4.3c-0.9,1-2.2,1.9-3.5,2.5c-2,1-3.6-0.7-5.5-1.6C67,38.4,67.2,39.1,67.4,39.8
				L67.4,39.8z"/>
			<path class="st30" d="M90.3,39.9c-0.8-1.8-1.6-3.5-2.2-5.4c-0.6-1.8-1-3.7-1.4-5.6c-1.2,0-2.3,0.1-3.4,0
				c-2.1-0.2-3.7-1.2-4.4-3.3c-0.6-2,0.3-3.5,1.9-4.7c0.3-0.2,0.6-0.5,0.9-0.7c0.5,0,1.1,0,1.6,0c0.5,0.7,1.1,1.3,1.6,2
				c-0.8,1-1.5,1.8-2.3,2.8c4.1,0.9,5.8-0.3,7-4.7c1.1,0,2.1,0,3.2,0c0.9,4.4,2.4,5.8,5.7,5.4c0.4-0.1,0.8-0.5,2-1.2
				c-0.8-0.3-1.1-0.5-1.5-0.5c-1-0.3-1.8-1-1.2-1.9c0.4-0.6,1.6-0.9,2.3-0.9c1.6,0.1,2.6,1.2,2.9,2.8c0.3,1.6,0.2,3.2-1.4,4.1
				c-0.8,0.5-1.7,1-2.5,0.9c-2.7-0.1-3.5,1.4-4.1,3.7c-0.6,2.1-1.7,4.1-2.8,6C91.8,39.2,90.9,39.5,90.3,39.9z"/>
			<path d="M59.5,20.1c-0.6,0.9-1.3,1.7-1.7,2.6c-0.5,1.2-1,2.5-1.2,3.7c-0.3,2.4,2.2,5.4,4.2,5.3c1.8-0.1,3.6-2.7,3.4-5.1
				c-0.1-1.3-0.6-2.5-0.9-3.7c1.1-1.2,2.1-1,3.1-0.1c2.3,1.9,2.7,5.2,1,7.8c-3.8,5.7-12.7,6.5-17.5,1.7c-2.6-2.6-3-5.7-2.7-9
				c0.1-1,0.3-2,0.5-3.1C51.7,20.1,55.6,20.1,59.5,20.1z M55.3,32.4c-2-2.7-2.5-5.5-1.4-8.6c0.5-1.5-0.9-2.5-2.4-1.7
				c-0.9,0.5-1.8,1.2-2.2,2.1C47.8,27.9,50.6,32,55.3,32.4z"/>
			<path class="st30" d="M271.7,20.1c-1.4,0.7-2.7,1.7-4.1,2c-4.6,1-9.2,2.1-13.8,2.7c-4.3,0.5-8.6-0.3-12.6-2.2
				c-1.2-0.6-2.2-1.6-3.4-2.5c1.6,0,3.1,0,4.7,0c3,1.7,6.3,2.2,9.7,2.2c2.6,0,4.9-0.4,6.8-2.2C263.3,20.1,267.5,20.1,271.7,20.1z"/>
			<path class="st30" d="M393.2,20.1c-5.3,4-11.3,5.1-17.8,4.5c-5-0.5-9.9-1.4-14.5-3.2c-0.8-0.3-1.6-0.8-2.4-1.2
				c4.5,0,8.9,0,13.4,0c4.1,3.1,10.7,3.1,15.8,0C389.5,20.1,391.3,20.1,393.2,20.1z"/>
			<path class="st30" d="M286.7,20.1c-3.5,6.8-11.6,8.6-17.1,4c0.1-1.4,1.2-1.4,2.2-1.7c2.1-0.7,4.1-1.5,6.2-2.2
				C280.9,20.1,283.8,20.1,286.7,20.1z"/>
			<path class="st30" d="M352.2,20.1c2,0.8,4.1,1.5,6.1,2.3c0.8,0.3,1.6,0.5,2.3,0.8c0.3,1.7-0.7,2.1-1.7,2.5
				c-3.3,1.4-9.7,1.5-13-2.5c-0.8-1-1.6-2-2.5-3C346.4,20.1,349.3,20.1,352.2,20.1z"/>
			<path d="M259.1,20.1c-1.9,1.8-4.3,2.3-6.8,2.2c-3.4-0.1-6.7-0.5-9.7-2.2C248.1,20.1,253.6,20.1,259.1,20.1z"/>
			<path d="M387.6,20.1c-5.1,3.1-11.7,3.1-15.8,0C377.1,20.1,382.4,20.1,387.6,20.1z"/>
			<path d="M89.5,20.1c-1.2,4.4-2.9,5.7-7,4.7c0.8-0.9,1.4-1.7,2.3-2.8c-0.5-0.6-1-1.3-1.6-2C85.3,20.1,87.4,20.1,89.5,20.1z"/>
			<path class="st30" d="M326.6,244.4c0.5,0.2,1,0.4,1.5,0.5c1.4,0.2,2.1,0.9,2,2.4c-0.2,1.4-1.2,1.6-2.3,1.6c-2.4,0-4.7,0-7.1,0
				c-1.1,0-2.1-0.2-2.4-1.6c-0.2-1.4,0.4-2.3,1.8-2.5c0.5-0.1,1-0.3,1.7-0.5c0-3.5,0-7,0-10.4c-3.1-0.9-11.1-0.9-15-0.1
				c-0.7,3.3-0.3,6.7-0.2,10.2c0.7,0.4,1.5,0.5,2,1.1c0.5,0.6,1.1,1.6,1,2.2c-0.1,0.6-1.2,1.5-1.9,1.5c-2.6,0.2-5.2,0.2-7.9,0
				c-0.7,0-1.6-0.8-1.9-1.5c-0.4-1,0-2.1,1.3-2.4c0.6-0.2,1.2-0.3,2.2-0.5c0.4-8.3,0.2-16.5,0.1-24.8c-1-0.4-2-0.6-2.6-1.2
				c-0.5-0.5-1-1.6-0.9-2.3c0-0.5,1.1-1.2,1.7-1.2c2.6-0.1,5.2-0.2,7.9,0c0.7,0.1,1.7,0.8,2,1.4c0.5,1,0,2-1.2,2.5
				c-0.6,0.2-1.1,0.6-1.7,0.9c0,3,0,5.9,0,8.6c2.9,1.1,10.8,1.2,15,0.3c0.8-3.1,0.4-6.4,0.3-9.5c-3.1-0.7-3.9-1.3-3.6-2.7
				c0.6-2.2,2.5-1.4,3.9-1.5c1.8-0.1,3.7-0.1,5.5,0.1c0.8,0.1,1.8,0.7,2.1,1.3c0.5,1.2-0.5,1.9-1.7,2.1c-0.5,0.1-1,0.4-1.6,0.6
				C326.6,227.3,326.6,235.6,326.6,244.4z"/>
			<path class="st30" d="M265.4,305.6c1.4-0.4,2.8-0.9,4.2-1c1.5,0,3.2,0.1,4.5,0.7c2.6,1.1,3,3.6,1.2,5.8c-1.6,2-3.7,3-6.1,3.1
				c-3,0.1-6.1,0.4-9-0.4c-3.5-0.9-6.1-0.3-8.4,2.6c1.1,1.5,2.2,2.1,3.9,0.7c2.5-2.1,5.4-2.4,8.5-2.3c0.5,0,1.1,0,1.6,0.2
				c2,0.5,4,2.6,4.1,4.4c0.1,1.5-2,4-4.1,4.1c-2.2,0.1-4.4-0.2-6.5-0.7c-1.5-0.3-2.9-1.3-4.6-2.1c-1.2,1.5-2.4,3-3.7,4.5
				c0.4,1.5,0.8,2.9,1.1,4.3c0.1,0.8,0.2,1.6-0.1,2.3c-0.2,0.6-1,1.6-1.4,1.5c-0.8-0.1-1.9-0.7-2.1-1.4c-0.4-1-0.5-2.4-0.1-3.5
				c1.3-3.4-0.6-5.5-2.9-7.9c-1.4,0.7-2.8,1.4-4.1,2c-2.4,1.1-4.8,1.3-7.3,0.7c-2.5-0.5-4-2.3-4-4.2c0-1.9,1.6-3.8,4-4.3
				c3.6-0.8,7.1-0.4,10.1,1.9c1.4,1,2.6,1.2,3.8-0.6c-1.7-2.3-3.6-3.5-6.9-2.8c-3.3,0.7-6.8,0.8-10.2,0.7c-2.7,0-5.1-1.2-6.6-3.6
				c-1.4-2.3-0.9-4.3,1.5-5.6c1.5-0.8,3.2-1.1,4.9-0.6c1.6,0.4,3.2,0.8,4.9-0.1c1.1-0.5,2.9-0.2,4.2,0.2c2.6,0.7,5.3,1.6,7.8,2.7
				c1.9,0.8,3.5,0.6,5.3-0.1c2.8-1.1,5.7-2,8.6-2.9C262.9,303.8,264.5,304,265.4,305.6c-4.7-0.5-8.8,1.1-12.8,3.6
				c3.8,2.1,3.8,2.1,6.9,0.1C261.4,308.1,263.4,306.9,265.4,305.6z M258.5,311.6c1.6,0.4,2.6,0.8,3.7,0.9c3.3,0.3,6.6,0.7,9.7-0.8
				c1.8-0.8,2.9-2.4,2.7-3.5c-0.2-1.3-2.2-2.3-4.2-2.1c-0.5,0-1,0.2-1.5,0.3C265.1,307.2,261.9,308.8,258.5,311.6z M241.6,311.3
				c-3.1-1.6-5.4-3.1-8-4c-1.9-0.7-4.1-0.8-6.1-0.7c-2.2,0.1-2.7,2-1.1,3.6c1.4,1.5,3.3,2.1,5.3,2.3
				C234.7,312.7,237.9,312.8,241.6,311.3z M256.4,319.6c1.4,1.5,3.4,2,5.2,2.4c1.2,0.2,2.6,0.2,3.9-0.1c1.2-0.2,2.3-1.2,2-2.5
				c-0.2-0.9-1-1.9-1.9-2.2C262.8,315.8,258.8,317,256.4,319.6z M244,319.6c-3-2.9-6-3-9.1-2.6c-1.8,0.2-3,1.5-2.8,2.7
				c0.3,1.5,1.5,2.1,2.9,2.2c1.3,0.1,2.6,0.1,3.8-0.2C240.3,321.2,241.8,320.4,244,319.6z M247.5,309.1c-4-1.5-7.5-4-12.4-3.2
				c2.1,1.3,4,2.3,5.6,3.5C243,311.3,245.1,311.2,247.5,309.1z M254,312.7c-3-3-5.6-2.1-8.7,0c1.6,1,3.1,2,4.6,2.9
				C251.4,314.6,252.7,313.7,254,312.7z M252.7,320.1c-3.2-2.7-3.2-2.7-5.3,0.3c0.7,1.3,1.3,2.7,2.7,3.7
				C251,322.7,251.8,321.5,252.7,320.1z"/>
			<path class="st30" d="M117.1,229.5c2.4-3.6,4.3-6.5,6.3-9.5c-0.5-0.6-0.8-1-1.2-1.4c-0.9-0.8-1.4-1.8-0.7-2.8
				c0.4-0.6,1.5-0.9,2.3-1c2.1-0.1,4.2-0.1,6.3,0.1c0.6,0.1,1.5,0.6,1.7,1.2c0.4,1-0.1,1.9-1.2,2c-1.7,0.2-2.4,1.5-3.2,2.7
				c-2.5,3.9-5,7.7-7.5,11.6c-0.5,0.8-1,1.7-1,2.5c-0.1,3.1-0.1,6.2-0.1,9.5c1.2,0.2,2.2,0.2,2.9,0.6c0.7,0.4,1.3,1.2,1.4,2
				c0.2,1-0.5,1.8-1.6,1.8c-3.4,0.1-6.8,0.1-10.2-0.1c-0.5,0-1.3-1-1.3-1.6c0-0.8,0.6-1.7,1.2-2.1c0.7-0.4,1.7-0.4,3-0.6
				c0.1-5.2,1.4-10.3-2.5-14.9c-1.8-2.1-3-4.6-4.5-6.9c-1.1-1.7-2-3.7-4.5-4c-1.2-0.2-1.6-1.3-1.3-2.5c0.2-1.1,1.2-1.3,2.1-1.4
				c2,0,3.9,0,5.9,0c1,0,2.2-0.1,2.6,1.2c0.4,1.1-0.1,2-1,2.7c-0.2,0.1-0.3,0.4-0.7,0.8C112.6,222.6,114.6,225.7,117.1,229.5z"/>
			<path class="st30" d="M229.1,215.3c0,2.3,0,4.3,0,6.2c0,1.2-0.7,2-1.9,2c-1.3,0-1.9-0.6-2-1.9c-0.1-0.9-0.2-1.8-0.3-3.2
				c-1.9,0.2-3.6,0.4-5.6,0.6c-0.4,8.5-0.1,16.7-0.2,25.1c1.1,0.2,1.9,0.5,2.8,0.6c1.3,0.2,1.8,1,1.7,2.2c-0.1,1.1-0.7,1.7-1.8,1.7
				c-3.3,0.1-6.6,0.1-9.8,0c-1.1,0-1.8-0.8-1.6-1.8c0.1-0.8,0.7-1.7,1.3-2.1c0.7-0.4,1.7-0.4,2.6-0.5c0.7-3.1,0.9-20.1,0.3-25
				c-1.6-1-3.4-0.7-5.3-0.2c-0.2,0.9-0.3,1.8-0.4,2.7c-0.2,1.3-1.1,1.7-2.3,1.6c-1.1-0.1-1.7-0.7-1.7-1.8c-0.1-2.1,0-4.2,0-6.6
				c4.3-1,8.3-0.4,12.3-0.4C220.8,214.8,224.7,214.4,229.1,215.3z"/>
			<path class="st30" d="M259,236.5c-1.8-2.6-3.3-5.1-5.1-7.4c-0.6-0.8-1.8-0.9-2.5-1.6c-0.6-0.6-1-1.5-0.9-2.3
				c0-0.5,0.9-1.4,1.5-1.4c1.8-0.2,3.7-0.2,5.5-0.1c2.4,0.1,2.9,1.1,2.1,3.4c-0.1,0.5-0.5,0.9-0.8,1.4c0.9,1.4,1.8,2.6,2.9,4.3
				c1.1-1.6,2.1-2.9,3.2-4.3c-0.3-0.6-0.7-1.1-0.9-1.7c-0.5-2.1,0-3,2.2-3.1c1.6-0.1,3.2-0.1,4.7,0.2c0.6,0.1,1.4,0.9,1.5,1.5
				c0.1,0.6-0.4,1.8-0.8,1.9c-2.9,0.5-3.8,3-5.3,4.9c-0.8,1.1-1.5,2.1-2.3,3.3c1.2,3.1,3.3,5.6,5.2,8.3c0.5,0.6,1.7,0.7,2.3,1.3
				c0.6,0.6,1,1.5,1,2.3c0,0.5-1,1.3-1.6,1.4c-1.8,0.2-3.7,0.2-5.5,0.1c-2.1-0.1-2.8-1.1-2.2-3.1c0.2-0.6,0.6-1.1,1-1.8
				c-1-1.4-2.1-2.7-3.3-4.3c-1.1,1.6-2,2.8-3,4.2c0.4,0.7,1,1.3,1.2,2c0.6,2,0,3-2.2,3.1c-1.8,0.1-3.7,0.1-5.5-0.1
				c-0.6-0.1-1.4-0.9-1.5-1.5c-0.1-0.6,0.2-2,0.6-2.1C255.1,244.1,255.9,239.3,259,236.5z"/>
			<path class="st30" d="M173.9,224.1c0,6.9,0,13.4,0,19.9c1,0.6,1.9,0.9,2.6,1.5c1,1,0.6,3-0.7,3.2c-2.2,0.3-4.7,1.1-6.3-1.3
				c-1.7,0.7-3.4,1.5-5.1,2c-3.8,1-7.1-1-8.2-4.8c-0.4-1.4-0.5-2.8-0.5-4.3c-0.1-3.8,0-7.6,0-11.6c-0.7-0.4-1.5-0.6-2-1.1
				s-1.1-1.4-0.9-1.9c0.2-0.7,1-1.7,1.7-1.8c1.8-0.2,3.6-0.1,5.7-0.1c0.2,1.5,0.4,2.6,0.4,3.7c0,4.5,0,8.9,0,13.4
				c0,3.4,0.9,4.6,3.4,4.7c3.2,0.1,5.7-2,5.8-4.9c0.1-4.1,0-8.1,0-12c-1.3-1.1-3.6-1-3-3.3c0.6-2.2,2.4-1.5,3.9-1.6
				C171.6,223.6,172.5,223.9,173.9,224.1z"/>
			<path class="st30" d="M351.8,237.1c-4.6,0-8.9,0-13.1,0c-0.2,4.3,1,6.6,3.7,7.8c3.2,1.5,5.8-0.5,8.7-1.1c1.3,2.6,1.2,3.5-0.8,4.4
				c-7.6,3.4-14.8,0.2-16.4-7.7c-0.8-4.2-0.6-8.1,1.5-11.8c1.6-2.9,3.9-4.9,7.4-5.2c5.1-0.4,8.9,2.8,9.5,7.8c0.1,1,0.1,2.1,0,3.1
				C352.2,235.1,352,235.8,351.8,237.1z M347.8,232.5c-0.5-3.4-2-5.2-4.2-5.3c-2.5-0.1-4.2,1.9-4.9,5.8
				C341.8,232.8,344.8,233.6,347.8,232.5z"/>
			<path class="st30" d="M378,237.4c-0.8,6,2.3,9,7.7,7.8c1.5-0.3,3-0.8,4.5-1.2c0.8,2.7,0.7,3.5-1.4,4.4
				c-7.8,3.4-15.6-0.4-16.2-9.3c-0.3-3.9-0.2-7.9,2.3-11.3c2.2-3,5-4.5,8.8-4.2c2.7,0.2,4.9,1.3,6,3.8c0.8,1.9,1.5,3.9,1.9,6
				c0.5,2.7-0.3,3.6-3,3.8c-2.2,0.1-4.5,0-6.7,0.1C380.4,237.1,379.1,237.3,378,237.4z M377.7,232.4c3.6,0.8,5.4,0.8,8.5,0
				c0.3-3.2-0.4-4.5-2.8-4.8C380.1,227.1,378.6,228.4,377.7,232.4z"/>
			<path class="st30" d="M248.5,237c-4.5,0-8.8,0-13.1,0c-1.2,2.8-0.2,4.8,1.2,6.5c1.4,1.6,3.5,2.3,5.7,1.8c1.8-0.4,3.5-0.9,5.2-1.4
				c0.5,3.2,0.2,3.7-2.1,4.7c-7.1,2.8-13.8-0.6-15.4-8c-1-4.5-0.6-8.9,2-12.9c3.6-5.6,12.2-5.7,15.1-0.1
				C248.6,230.2,249.3,233.2,248.5,237z M243.8,232.7c-0.2-4.1-1.1-5.1-4.1-5.1c-3,0-4.2,1.4-4.5,5.1
				C237.9,233.2,240.7,233.2,243.8,232.7z"/>
			<path class="st30" d="M150.6,235.7c-0.1,2.9-0.9,5.5-2.1,8.1c-1.8,3.9-5,5.8-9.1,5.8c-3.9,0-6.7-2.4-8.3-5.8
				c-2.5-5.5-2.3-10.9,1-16.1c2.2-3.5,5.6-4.5,9.5-4.1c3.7,0.4,6,2.6,7.3,5.8C149.9,231.3,150.1,233.6,150.6,235.7z M145.8,236.1
				c-0.4-1.8-0.6-3.8-1.2-5.6c-1-2.7-2.2-3.1-5.2-3c-2.3,0.1-3.6,1.3-4.1,3.4c-0.9,3.8-0.9,7.5,0.5,11.2c0.8,2,2.2,3.2,4.4,3.3
				c2.1,0.1,4-1.2,4.7-3.5C145.2,240.2,145.4,238.2,145.8,236.1z"/>
			<path class="st30" d="M67.4,39.9c-0.2-0.8-0.4-1.5-0.7-2.8c2,1,3.6,2.6,5.5,1.6c1.3-0.6,2.5-1.5,3.5-2.5c1.3-1.4,1.1-2.3-0.4-4.3
				c-0.2,0.1-0.5,0.2-0.6,0.4c-0.4,1-0.8,2.1-2.2,1.6c-1.2-0.4-1.5-2-0.8-3.4c1.6-3,5.2-3.3,7-0.4c0.9,1.5,1.1,3.4,1.6,5.2
				c3.1,1.4,6.5,3,10,4.6c-0.3,1.9-2,2.3-3.4,2.8c-2.3,0.9-4.7,1.6-7.2,2.4c-0.1,1.3,0,2.6-0.2,3.8c-0.6,2.9-2.8,4.3-5.5,3.6
				c-1.6-0.4-2.9-1.8-2.7-3.4c0.1-0.8,0.7-1.8,1.3-2.1c1.1-0.5,1.6,0.4,1.7,1.5c0,0.2,0.3,0.3,0.5,0.5c1.9-1.7,2-2.3,0.9-4.1
				c-1.9-3-4.6-3.6-9.2-1.6c0.7-1.2,1.2-2,1.7-2.8C68.3,40.4,67.7,40.1,67.4,39.9z"/>
			<path class="st30" d="M227.6,190.4c0.2-1.9,1.6-3.1,2.7-4.6c1-1.4,1.6-2.6,0.2-4.5c-0.7,1-1.3,1.8-1.9,2.6
				c-1.1,1.5-2,3.1-3.2,4.5c-0.8,0.8-1.9,1.5-2.9,1.9c-2.2,0.9-4.7,0.5-5.9-0.9c-1.5-1.8-0.9-3.7,0-5.5c1.2-2.4,2.9-4.4,5.4-5.5
				c1.1-0.5,2.3-0.7,3.3,0.3c1.1,1.1,0.9,2.5,0.1,3.6c-0.9,1.2-2.2,2.2-3.4,3.1c-0.6,0.5-1.5,0.6-2.1,1c-0.4,0.3-0.8,1-0.6,1.3
				c0.2,0.5,0.8,1.1,1.3,1.1c2.2,0.2,3.8-0.8,5-2.5c0.8-1.1,1.2-2.3,1.9-3.5c2-3.8,3.5-4.1,6.9-1.5c1.1-0.8,2.3-1.6,3.4-2.4
				c-1.2,3-4.6,5.1-2.2,9.1c2.5-0.5,3.4-2.4,3.7-4.5c0.5-3.6,2.5-6.5,4.1-9.6c0.7-1.3,1.5-2.8,3.6-2.8c0.5,3.2-2.3,5-3,7.8
				c1.4,0.2,2.7,0.4,4.8,0.8c-1.5,0.5-2.2,0.9-3,1.1c-3.1,0.8-4.5,2.7-4.3,5.8c0.1,1.6,1.3,2.4,2.7,1.8c0.9-0.4,1.6-1.2,2.4-1.9
				c0.6-0.6,1.2-1.2,2.1-2.2c-1.8,6.3-6.1,8.1-10.1,4.6c-1.3,0.5-2.7,1.4-3.9,1.2c-1.1-0.2-2-1.7-3-2.6c-1.1,1.1-2.2,2.3-3.3,3.5
				C228,190.8,227.8,190.6,227.6,190.4z"/>
			<path class="st30" d="M286.3,245.3c0.6,2.2-0.2,3.3-1.9,3.9c-3.2,1.2-6.9-0.7-7.8-4.1c-0.3-1.1-0.3-2.3-0.3-3.5
				c0-4.3,0-8.7,0-12.7c-0.9-1.4-3-1.1-3.1-3.1c-0.1-2.1,1.9-1.9,2.9-3c0.1-0.8,0.2-1.7,0.2-2.6c0.1-1.7,1.2-2.2,2.7-2.2
				c1.5,0,2,0.9,2.1,2.3c0.1,0.9,0.2,1.8,0.4,2.9c1.2,0.2,2.5,0.2,3.5,0.7c0.7,0.3,1.3,1.2,1.5,2c0.2,1.1-0.6,1.6-1.7,1.8
				c-1,0.1-2,0.2-3.4,0.4c-0.1,2.1-0.2,4-0.2,5.9c0,2.8-0.1,5.5,0,8.3c0.1,3,0.5,3.3,3.6,3.1C285.2,245.4,285.6,245.3,286.3,245.3z"
				/>
			<path class="st30" d="M288.4,177.4c1.1,2,2.5,3.6,2.9,5.4c0.4,1.6-0.3,3.5-0.5,5.6c2.2-0.3,3-1.6,3.8-3.2
				c0.9-1.7,2.1-3.3,3.4-4.7c0.8-0.8,2-1.3,3.1-1.6c2-0.5,3.3,1,2.6,3c-0.6,1.8-1.9,3.1-3.7,3.9c-1,0.5-2,1-3.1,1.6
				c2.9,2.2,3.3,2.1,8.1-2.5c-0.4,2.7-1.8,4.4-4.4,5.5c-2.5,1-4.6,0.7-6.4-1.6c-1,0.5-1.8,1.2-2.8,1.3c-0.9,0.1-2.1-0.1-2.9-0.5
				c-1-0.6-1.1-1.7-0.7-2.8c0.4-1,0.8-2,1-3c0.1-0.4-0.1-0.9-0.4-2.2c-0.9,1.6-1.4,2.6-2.1,3.5c-1.3,1.6-2.5,3.4-4.1,4.7
				c-2,1.7-4.5,1.6-6.1,0.1c-1.5-1.4-1.8-3.4-0.5-5.8c1-2,2.4-3.7,4.5-4.8c1.2-0.6,2.5-1,3.6,0.1c1.1,1.2,0.8,2.5,0,3.6
				c-0.7,0.9-1.6,1.7-2.5,2.3c-1.1,0.7-2.3,1.1-3.9,1.9c0.8,0.6,1.4,1.4,1.9,1.4c1.1-0.1,2.4-0.3,3.3-0.9c2.4-1.6,3.4-4.3,4.1-7
				C287,179.1,287,179.1,288.4,177.4z"/>
			<path class="st30" d="M358.2,228.6c-0.2-0.2-0.3-0.4-0.4-0.4c-1.2-0.6-2.9-0.9-2.3-3c0.5-1.6,1.9-1.6,3.2-1.6
				c1.9,0,3.8-0.2,4.8,1.8c1.2-0.6,2.3-1.2,3.4-1.6c2.4-0.8,3.4,0,3.4,2.6c0,0.4-0.2,0.8-0.4,1.5c-1,0.2-2.1,0.3-3.2,0.6
				c-2.2,0.5-3.3,1.6-3.4,3.8c-0.1,3.9,0,7.9,0,11.8c0.8,0.4,1.5,0.5,1.9,0.9c0.5,0.6,1,1.4,1.1,2.2c0.1,1.1-0.8,1.6-1.9,1.6
				c-2.4,0.1-4.7,0.2-7.1,0c-0.7-0.1-1.8-0.8-1.9-1.5c-0.2-0.7,0.4-1.7,0.9-2.3c0.3-0.4,1.1-0.6,1.8-0.9
				C358.2,238.9,358.2,233.7,358.2,228.6z"/>
			<path class="st30" d="M182.3,244.1c0-5.2,0-10.3,0-15.3c-0.2-0.3-0.4-0.6-0.6-0.7c-1.5-0.4-2.8-1.1-2.3-3c0.4-1.7,2-1.4,3.2-1.5
				c2.9-0.1,2.9-0.1,4.4,2.5c0.9-0.6,1.8-1.5,2.9-1.8c1.2-0.4,2.8-0.7,3.6-0.2c0.7,0.5,0.6,2.2,1,3.7c-1.7,0.3-3,0.5-4.2,0.8
				c-2,0.6-2.9,1.5-3,3.6c-0.1,3.9,0,7.8,0,11.8c0.9,0.4,1.8,0.6,2.2,1.1c0.5,0.6,0.9,1.6,0.8,2.4c-0.1,0.5-1.1,1.2-1.7,1.3
				c-2.5,0.2-5,0.2-7.5,0c-0.6,0-1.6-0.7-1.7-1.3c-0.1-0.8,0.2-1.8,0.7-2.4C180.7,244.6,181.6,244.5,182.3,244.1z"/>
			<path class="st30" d="M219.2,307.2c-0.1,1.5-1.7,2.7-3,2.1c-4.2-2-8.5-1.2-12.8-1.2c-17.6-0.1-35.2,0-52.8,0
				c-2.3,0-4.7-0.2-6.9,1c-0.6,0.3-1.6,0.2-2.2-0.1c-1.6-0.9-3-0.6-4.5,0.1c-0.8,0.4-1.6,0.8-2.5,1.1c-1.4,0.4-2.7,0-3.4-1.3
				c-0.4-0.8-0.6-2.1-0.3-2.9c0.6-1.5,2-2,3.6-1.6c0.9,0.2,1.7,0.7,2.6,1c0.9,0.3,1.8,1,2.5,0.8c4.4-1.3,8.7,0.7,13,0.3
				c4.4-0.4,8.9-0.1,13.4-0.1c4.5,0,8.9,0,13.4,0c4.5,0,8.9,0,13.4,0s8.9,0.1,13.4,0c3.2-0.1,6.5-0.5,9.8-0.8c0.6,0,1.4-0.1,1.9,0.1
				C218.5,306.1,218.9,306.8,219.2,307.2z"/>
			<path class="st30" d="M319.3,308.2c-9.7,0-19.4,0-29.1,0c-2.2,0-4.5-0.2-6.5,1c-0.4,0.2-1,0.4-1.5,0.3c-1.2-0.2-2-1-1.7-2.2
				c0.2-0.7,1.1-1.2,1.8-1.7c0.2-0.1,0.5-0.1,0.8,0c5,1.6,10.2,0.8,15.2,0.8c17.1,0.1,34.1,0.1,51.2,0c2.1,0,4.1-0.5,6.2-0.8
				c0.4,0,0.9-0.4,1.1-0.2c2.7,1.8,5,0.3,7.4-0.8c0.4-0.2,0.8-0.2,1.1-0.3c1.4-0.1,2.7,0.4,3.2,1.8c0.3,0.8,0.2,1.8-0.1,2.6
				c-0.6,1.3-1.8,1.9-3.3,1.6c-1-0.2-1.9-0.8-2.9-1.1c-0.9-0.3-2-0.9-2.6-0.6c-2.4,1.3-4.5,0.1-6.7-0.2c-1.4-0.2-2.9-0.2-4.3-0.2
				C338.7,308.1,329,308.1,319.3,308.2C319.3,308.1,319.3,308.1,319.3,308.2z"/>
			<path class="st30" d="M267.1,177.4c1.7,0.4,3,0.7,4.6,1.1c0.7-1.9,1.2-3.6,1.9-5.3c0.7-1.6,0.9-3.5,3.2-5.2
				c-0.2,1.6-0.3,2.4-0.4,3.2c-0.5,2.6-2.5,5-1.2,7.9c0.1,0.2-0.2,0.8-0.4,1c-1.9,1.8-1.8,4.2-2.2,6.5c-0.3,1.6-0.6,3.3-1,5.1
				c-2.3-0.4-2.4-1.9-2.2-3.3c0.5-2.6,1.1-5.1,1.7-7.9c-1-0.1-1.9-0.2-2.8-0.2c-0.8,0-1.5,0.1-2.1,0.2c-2.7,3.4-1.8,8.4-5.1,11.4
				c-0.4-0.1-0.7-0.3-1.1-0.4c0.4-2,0.9-4,1.3-6c0.4-1.8,1.8-3.6,0.1-5.7c3.2-2.2,3.5-5.7,4.6-9.1c-1.6,0.9-1.6,0.9-3.7,5.2
				c-1.6-0.6-1.8-1.8-1.3-3.1c0.8-2.1,2.4-3.5,4.5-4.2c1.8-0.6,3.1,0.5,2.8,2.5c-0.1,1-0.6,2-0.8,3
				C267.4,175.2,267.3,176.2,267.1,177.4z"/>
			<path class="st30" d="M310.3,181.7c1.4,0,2.8,0,4.2,0c4.1,0,8.1,0.1,12.2-0.1c1.9-0.1,3.9-0.5,5.7-1.2c2-0.8,3.3-3.7,2.8-5.1
				c-0.6-1.7-2.2-2.2-6.1-1.3c1.5,0.1,2.4,0,3.1,0.2c1.1,0.3,1.8,1.1,1.7,2.3c0,1.2-0.7,1.9-1.8,2.3c-1.7,0.5-3.6-0.3-4.2-1.9
				c-0.8-1.8-0.1-3.8,1.7-4.7c3-1.6,6.7,0.6,6.9,4c0.1,2.5-0.8,4-3.5,5.9c0.8,1.1,1.7,2.2,2.5,3.3c1.3,1.7,1.4,4.7,0.3,6.3
				c-1,1.4-3.8,2.1-5.8,1.3c-1.5-0.6-2.3-1.7-2.4-3.3c0-1.4,0.5-2.6,1.8-3.3c1.3-0.8,2.9-0.4,3.9,0.8c1,1.3,0.7,2.4-0.4,3.5
				c-0.4,0.4-0.9,0.7-1.7,1.5c2.2-0.1,3.4-0.8,3.9-2.3c0.6-1.6,0-2.9-1.1-3.9c-0.9-0.9-2.1-1.8-3.3-1.9c-2.8-0.4-5.7-0.4-8.6-0.4
				c-3.4,0-6.8,0.1-10.2,0.1c-0.6,0-1.1-0.4-1.7-0.6C310.3,182.4,310.3,182.1,310.3,181.7z"/>
			<path class="st30" d="M166.6,182.1c-0.9-1-2.2-2-3.1-3.3c-1.5-2.3-0.8-5.1,1.4-6.6c2.1-1.3,4.8-0.9,6.4,1
				c1.5,1.8,0.7,4.7-1.6,5.4c-1.8,0.5-3.8-0.4-4.2-2c-0.3-1.2,0.5-2.2,2.5-2.8c0.3-0.1,0.6-0.2,1.7-0.5c-2.6-0.2-4.3-0.6-5.1,1.6
				c-0.7,2.1,0.1,4.2,2.4,5.2c1.6,0.7,3.5,1,5.3,1.4c0.8,0.2,1.7,0.2,3,0.4c-1.5,1.6-3,1.1-4.3,1.3c-1.5,0.3-3.1,0.5-4.5,1.2
				c-1.6,0.8-2.3,3.1-1.9,4.8c0.4,1.4,1.6,2.2,3.7,2.3c0.3,0,0.6-0.3,1.3-0.7c-1-0.1-1.9-0.1-2.4-0.4c-0.7-0.4-1.7-1.3-1.7-1.9
				c0-0.9,0.7-1.9,1.4-2.5c1.3-1,3.4-0.4,4.5,1.1c1.1,1.4,0.9,3.4-0.5,4.6c-1.5,1.3-4.6,1.5-6.3,0.3c-1.8-1.2-2.5-3.4-1.4-5.6
				C164,185.1,165.3,183.7,166.6,182.1z"/>
			<path class="st30" d="M233.8,167.6c-1.4,1.7-3,1.7-4.6,1.7c-3.4,0-6.8,0-10.2,0.1c-5.8,0.1-11,2.1-15.7,5.4c-1.4,1-2.6,2.1-3,4.1
				c2.7,1.4,4.9,0.1,7-1.1c2.1-1.2,4-2.8,6-4.2c0.2,0.4,0.5,0.7,0.4,0.8c-2.3,4-5.9,6.2-10.1,7.5c-0.2,0.1-0.5,0.1-0.8,0.1
				c-1.6,0.1-3.2,0.3-4.3-1.3c-0.8-1.2-0.4-2.9,1.2-4.6c4.2-4.7,9.8-6.9,15.7-8.3c5.5-1.3,11.2-0.9,16.8-0.8
				C232.6,166.9,233,167.2,233.8,167.6z"/>
			<path class="st30" d="M255.6,295.1c-0.6-3.5-0.6-7,0-10.8c1.6,0,3-0.2,4.4-0.1c2.4,0.2,3.1,1.2,3.1,3.6c0,1.1,0.1,2.3,0.3,3.4
				c0.4,2.3-0.6,3.8-2.9,4.2c-0.8,0.1-1.6,0.1-2.4,0.1C257.3,295.5,256.6,295.3,255.6,295.1z"/>
			<path class="st30" d="M171.3,291.4c0.5,1.1,1,2.2,1.8,3.9c-3.1,0-2.9-3.2-4.9-3.8c-1.2,0.9,0.3,3.2-2,3.9c-0.3-0.5-0.8-1-0.8-1.5
				c-0.1-3,0-6,0-9c2.9-0.7,5.3-1.3,7.2,1C173.7,287.2,173.3,288.7,171.3,291.4z"/>
			<path class="st30" d="M358.1,291.5c-0.4,1.2-0.7,2.4-1.1,3.6c0,0.1-0.2,0.1-0.5,0.2c-0.2-0.1-0.7-0.2-0.8-0.5
				c-0.8-2.2-0.7-7,0.2-10.2c2.4-0.5,4.8-1.1,6.6,1.3c1.7,2.2-0.4,3.8-1.5,5.4c0.6,1.4,1.1,2.5,1.8,4
				C360,295.2,360,292.2,358.1,291.5z"/>
			<path class="st30" d="M241.2,284.5c1.8,0,2.2,1.6,3,2.7c0.9,1.1,1.6,2.3,2.5,3.6c1.2-2.1-0.3-4.6,1.6-6.5c0.5,0.5,1,0.8,1.1,1.2
				c0.3,3.2,0.5,6.4-0.2,9.9c-3.7-0.8-3.9-4.6-6.3-6.2c-1,1.9,0.6,4.5-1.4,6.2C239.7,293,239.6,287.4,241.2,284.5z"/>
			<path class="st30" d="M322.8,284.5c1.1-0.1,2.2-0.2,3.2-0.3c4.1-0.3,7,2.8,5.5,8.1c-0.8,2.8-6,4.5-8.4,2.9
				c-0.4-0.3-0.8-0.8-0.8-1.3C322.2,290.8,321.7,287.7,322.8,284.5z M324.8,293.4c3.2,0.2,4.1,0,4.8-1.4c0.7-1.3,0.5-3.8-0.5-4.8
				c-1.2-1.3-2.6-1.4-4.3-0.5C324.8,288.8,324.8,291,324.8,293.4z"/>
			<path class="st30" d="M315.1,49.8c-1.1-2.3-2-4.3-3-6.4c-0.1-0.3-0.2-0.8-0.1-1.1c0.9-2.1,1.3-4.5,3.1-6.1
				C319.4,40.6,319.4,42.7,315.1,49.8z"/>
			<path class="st30" d="M154.3,290c-0.1,3.5-2.6,5.7-6.2,5.5c-3-0.1-5.4-2.6-5.4-5.7c0-3.4,2.6-5.8,6.1-5.7
				C152.2,284.3,154.4,286.5,154.3,290z M148.5,293.7c2.4,0.1,3.9-1.5,3.9-3.9c0-2.2-1.4-3.8-3.5-3.9c-2.5-0.1-4,1.2-4.1,3.6
				C144.8,292.3,146,293.7,148.5,293.7z"/>
			<path class="st30" d="M277.6,295c-0.7-3.4-0.9-6.8-0.2-10.6c1.5,0,2.9-0.2,4.3-0.1c1.5,0.1,2.4,0.9,2.6,2.4
				c0.2,1.5,0,2.9-1.4,3.8C280.4,292.1,278.8,293.6,277.6,295z"/>
			<path class="st30" d="M238.3,295.9c-3.1-4.5-5.7-2.5-8.3-0.2c-0.1-3.4,2.2-9.1,4.1-11.2C236.2,286.2,238,290.8,238.3,295.9z"/>
			<path class="st30" d="M297,283.8c2,3.9,3.5,7.4,4.3,11.5c-2.1-0.2-2.6-2.9-4.6-2.1c-1.4,0.5-2.7,1.2-4,1.8
				C292.5,292.2,294.3,287.2,297,283.8z"/>
			<path class="st30" d="M345.1,295.9c-0.6-2-1-3.3-1.4-4.9c-1.1,0-2.2-0.1-3.5-0.2c-0.4,1.6-0.7,2.9-1.2,4.7
				c-0.6-0.7-1.1-1.1-1.1-1.4c-0.1-3.1-0.5-6.3,0.3-9.4c0.3,0,0.6-0.1,0.8-0.1c0.4,1.3,0.7,2.5,1.2,4.1c1,0.1,2.1,0.2,3.4,0.2
				c0.5-1.6,1-3,1.5-4.6C347.1,286.5,347.2,292.2,345.1,295.9z"/>
			<path class="st30" d="M206.8,192.3c3.2-7.5,7.2-14.5,11.1-21.5c0.2-0.4,1-0.6,2.1-1.1c-0.6,3.5-2.7,5.6-3.9,8.2
				c-1.2,2.8-2.6,5.5-4.2,8C210.5,188.1,210.1,191.3,206.8,192.3z"/>
			<path class="st30" d="M265.1,284.5c1.8,0,3.5,0,5.3,0c0,0.2,0.1,0.5,0.1,0.7c-0.6,0.3-1.3,0.5-1.9,0.8c-0.6,0.4-1,1-1.5,1.4
				c0.5,0.5,1,1,1.5,1.5c0.3,0.2,0.7,0.4,1.4,0.7c-0.6,0.5-1.1,0.7-1.5,1.1c-0.5,0.5-1.3,1.1-1.2,1.6c0.1,0.5,1,1,1.5,1.3
				c0.5,0.3,1.1,0.4,2,0.8c-1.6,1.5-3.2,1.1-4.7,0.9c-0.6-0.1-1.4-1-1.4-1.5C264.6,290.8,264.1,287.7,265.1,284.5z"/>
			<path class="st30" d="M312.5,292.2c-1.6,3.2-3.8,4-6.6,3c-2.3-0.9-3.7-2.9-3.6-5.5c0.1-2.4,1.5-4.6,3.5-5.2c2.6-0.9,5-0.1,7.1,3
				c-1.5-0.5-2.5-1-3.5-1.2c-3.1-0.8-5.4,1.1-5.1,4.1c0.2,2.6,2.4,4.1,5.1,3.3C310.5,293.3,311.5,292.7,312.5,292.2z"/>
			<path class="st30" d="M365.1,284.7c3.1-0.6,3.1-0.6,5.9,0.4c-0.8,0.4-1.3,0.7-1.9,0.8c-0.9,0.2-2,0.4-1.8,1.6
				c0.1,0.6,0.9,1,1.5,1.5c0.3,0.2,0.7,0.4,1.4,0.8c-0.8,0.5-1.5,0.7-2,1.2c-0.4,0.4-0.9,1-0.9,1.5c0.1,0.5,0.7,0.9,1.2,1.2
				c0.6,0.3,1.3,0.5,2.5,0.9c-2.1,1.4-3.9,1-6,0.6C364.5,291.7,364.5,288.2,365.1,284.7z"/>
			<path class="st30" d="M227.6,287.6c-3.1-1.2-5.5-3-7.7-0.2c-1.1,1.5-1.1,3.8,0.2,5.1c2.2,2.3,4.5,0.9,6.8-0.2
				c-0.2,2.4-0.9,3-3.3,3.2c-3.3,0.3-5.8-1.5-6.4-4.5c-0.5-2.7,0.9-5.7,3.2-6.5C223.2,283.4,225.9,284.4,227.6,287.6z"/>
			<path class="st30" d="M199.4,287.7c0.9-1.2,1.8-2.2,2.6-3.3c0.2,0.1,0.4,0.2,0.7,0.4c-0.1,0.6,0,1.3-0.3,1.7
				c-1.8,2.2-2,4.4-0.1,6.7c0.4,0.4,0.4,1.1,0.6,2c-2.3-0.1-2.3-2.2-3.5-3c-1.5,0.7-1.6,3.1-3.8,3.1c-0.2-2.3,2-3.4,2.3-5.3
				c-0.3-1.9-2.4-3-2.4-5.3C198,284.3,197.9,286.8,199.4,287.7z"/>
			<path class="st30" d="M55.5,48.7c-2,2.8-2.9,5.2-1.5,8.1c0.2,0.5,0,1.7-0.5,2c-0.5,0.4-1.5,0.4-2.1,0.1c-2-1-2.9-3.7-2.1-6.2
				C50,50.5,52.1,49,55.5,48.7z"/>
			<path class="st30" d="M163.5,284.9c0.6,2.5,0.5,5.1,0.2,7.7c-0.2,2-1.8,3-4,3c-2.1,0-3.7-1-3.9-3c-0.3-2.5-0.4-5.2,0.4-8.5
				c0.7,1.1,1.2,1.6,1.3,2.2c0.1,1.3,0.1,2.6,0.1,3.9c0.1,2.6,0.6,3.4,2.2,3.5c1.7,0.1,2.3-0.8,2.4-3.7c0-1.2,0-2.4,0.1-3.5
				c0-0.6,0.3-1.1,0.5-1.7C162.9,284.8,163.2,284.9,163.5,284.9z"/>
			<path class="st30" d="M353.9,284.7c-0.5,2.1-4.6,0.2-3.6,3.8c1,0.3,2,0.7,3.1,1.1c-0.4,1.9-4.4,0.5-2.9,3.8
				c1.1,0.3,2.2,0.7,4.1,1.3c-2.2,1.4-4,0.8-6,0.8c-0.9-3.6-0.4-7-0.3-10.4C350.2,283.9,352,284,353.9,284.7z"/>
			<path class="st30" d="M317.2,288.4c1,0.4,2,0.7,3,1.1c-0.5,1.9-4.4,0.5-2.9,3.7c1.1,0.4,2.3,0.7,4.2,1.4c-2.4,1.2-4,0.9-6.1,0.5
				c-0.8-3.4-0.4-6.8-0.3-10.2c2.1-1,3.8-1,5.7-0.2C320.2,286.8,316.1,284.9,317.2,288.4z"/>
			<path class="st30" d="M193.9,294.5c-2.2,1.4-3.8,1-5.5,0.7c-0.8-3.5-0.5-6.9-0.3-10.2c1.8-1.1,3.4-1.1,5.7,0.1
				c-1,0.4-1.6,0.8-2.1,0.9c-1,0.2-2,0.5-1.7,1.6c0.1,0.5,1,1,1.6,1.3c0.5,0.3,1.1,0.5,2.3,0.9c-1.2,0.5-1.8,0.6-2.3,0.9
				c-0.6,0.4-1.4,0.8-1.5,1.4c-0.3,1.2,0.7,1.5,1.7,1.6C192.2,293.9,192.7,294.1,193.9,294.5z"/>
			<path class="st30" d="M179.7,284.7c2.2-0.8,4.3-0.8,6.4,0.1c-2,2.4-1.9,2.4-2,5.7c-0.1,1.6,0.6,3.4-1.2,5c-0.4-0.8-1-1.4-1.1-2
				c-0.2-1-0.1-2.1-0.1-3.1C181.7,287.2,181.7,287.2,179.7,284.7z"/>
			<path class="st30" d="M142,284.9c-0.1,1.9-1.5,3.2-2.1,4.8c-0.6,1.7-0.8,3.5-1.2,5.6c-2.1-1.6-1-3.9-1.9-5.5
				c-1-1.5-2.1-3.2-2.3-5.5c2.4,0.7,2.3,2.9,3.7,4.1c1-1.4,2-2.7,3-4.1C141.5,284.6,141.8,284.8,142,284.9z"/>
			<path class="st30" d="M208.6,287c0,2.5,0,5.2,0,7.9c-0.2,0.1-0.4,0.1-0.7,0.2c-0.3-0.4-0.8-0.8-0.9-1.3c-0.2-1-0.1-2.1-0.1-3.1
				c-0.1-2.1,0.7-4.5-3.1-5.6c3.3-1,5.3-1.1,7.9-0.1C210.6,285.7,209.8,286.2,208.6,287z"/>
			<path class="st30" d="M285.9,294.7c-0.1-3.3-0.4-6.6,0.3-10.8c2.5,3.3,0.7,6.5,1.9,9.4c0.9,0.3,1.9,0.7,3.5,1.3
				C289.3,295.8,287.7,295.8,285.9,294.7z"/>
			<path class="st30" d="M189.9,182.6c-4,1-10,1-13.6,0.1c2.4-1.6,4.7-0.9,6.8-0.9C185.1,181.7,187.3,181.3,189.9,182.6z"/>
			<path class="st30" d="M55.3,32.4c-4.7-0.5-7.5-4.5-5.9-8.2c0.4-0.9,1.3-1.6,2.2-2.1c1.5-0.8,2.9,0.2,2.4,1.7
				C52.8,27,53.3,29.7,55.3,32.4z"/>
			<path d="M225.8,342.4c-2.5-0.2-4.9-0.5-7.4-0.6c-11.9-0.6-23.6,1-35.2,3.4c-12.7,2.6-25.5,5.1-38.3,7.4c-6.2,1.1-12.5,1.3-18.8,2
				c-2.7,0.3-5.4,0.5-8.1,0.5c10.7-3.1,20.6-7.9,30.8-12c8.4-3.4,17.2-5.6,26.2-6.7c15.2-1.8,30.1-0.2,44.8,4c2,0.6,4,1.2,5.9,1.8
				C225.9,342.2,225.8,342.4,225.8,342.4z"/>
			<path d="M274.9,341.1c5.3-1.3,10.6-2.6,16-3.8c8.9-1.9,18-2.1,27-1.6c7.6,0.4,15.2,1.7,22.4,4.2c8.5,3,16.9,6.6,25.3,9.8
				c4.5,1.8,9.1,3.4,13.9,5.1c-0.8,0.1-1.6,0.2-2.3,0.2c-6.4-0.6-12.8-1.2-19.1-2c-15.9-2-31.5-5.6-47.2-8.8
				c-10.6-2.2-21.3-3.2-32.1-2.6c-1.3,0.1-2.5,0-3.8,0C275,341.6,275,341.4,274.9,341.1z"/>
			<path d="M249.2,358.3c10,7.4,10,20.2-0.1,27.2C239,378.6,238.6,364.2,249.2,358.3z"/>
			<path d="M118.9,110.8c5.3,0.4,10.7,0.6,16,1.2c19.3,2.2,38.2,6.7,57.3,10.3c8.9,1.7,17.9,2.3,27,1.9c1.9-0.1,3.8-0.5,5.9,0.1
				c-6.2,1.5-12.4,3.2-18.7,4.4c-6.8,1.3-13.8,1.9-20.8,1.7c-12.2-0.3-24-2.6-35.3-7c-8.3-3.2-16.6-6.7-24.8-10
				c-2.2-0.9-4.4-1.5-6.7-2.2C118.9,111.1,118.9,110.9,118.9,110.8z"/>
			<path d="M379.2,110.9c-6.2,2.4-11.9,4.6-17.6,6.8c-5,2-9.9,4.1-14.9,6.1c-8.1,3.2-16.5,5.2-25.2,5.9c-5,0.4-10,0.8-14.9,0.6
				c-11.3-0.4-22.3-2.7-33.1-6.6c2.2,0.2,4.5,0.5,6.7,0.6c11.4,0.6,22.5-1.2,33.5-3.4c14.3-2.8,28.5-5.7,42.9-8.1
				c6.6-1.1,13.3-1.3,19.9-1.9C377.3,110.9,378.1,110.9,379.2,110.9z"/>
			<path d="M249.2,108c-10.5-8.5-10.6-19.8-0.4-27.5C257.6,85.2,260.9,99.7,249.2,108z"/>
			<path d="M258.5,311.6c3.4-2.7,6.6-4.4,10.3-5.1c0.5-0.1,1-0.3,1.5-0.3c2-0.2,4,0.8,4.2,2.1c0.2,1.1-1,2.7-2.7,3.5
				c-3.1,1.4-6.4,1.1-9.7,0.8C261.1,312.4,260.1,312,258.5,311.6z"/>
			<path d="M241.6,311.3c-3.7,1.5-6.8,1.4-10,1.2c-2-0.1-3.9-0.7-5.3-2.3c-1.5-1.7-1.1-3.5,1.1-3.6c2-0.1,4.2,0,6.1,0.7
				C236.1,308.2,238.5,309.7,241.6,311.3z"/>
			<path d="M256.4,319.6c2.4-2.6,6.4-3.7,9.2-2.4c0.8,0.4,1.7,1.4,1.9,2.2c0.3,1.3-0.8,2.2-2,2.5c-1.2,0.2-2.6,0.3-3.9,0.1
				C259.7,321.6,257.8,321,256.4,319.6z"/>
			<path d="M244,319.6c-2.1,0.9-3.6,1.7-5.2,2.1c-1.2,0.3-2.6,0.4-3.8,0.2c-1.4-0.1-2.5-0.8-2.9-2.2c-0.2-1.1,1-2.4,2.8-2.7
				C238,316.5,241,316.7,244,319.6z"/>
			<path d="M265.4,305.6c-2,1.2-4,2.4-6,3.7c-3.1,2-3.1,2-6.9-0.1C256.6,306.7,260.7,305.2,265.4,305.6L265.4,305.6z"/>
			<path d="M247.5,309.1c-2.3,2.1-4.4,2.2-6.8,0.4c-1.6-1.3-3.5-2.2-5.6-3.5C240,305.1,243.5,307.5,247.5,309.1z"/>
			<path d="M254,312.7c-1.3,0.9-2.6,1.8-4,2.9c-1.5-1-3-1.9-4.6-2.9C248.3,310.6,251,309.7,254,312.7z"/>
			<path d="M252.7,320.1c-0.9,1.4-1.7,2.6-2.6,4c-1.4-1-2-2.4-2.7-3.7C249.5,317.4,249.5,317.4,252.7,320.1z"/>
			<path d="M249.5,152.4c-1.5-2.7-2.1-5.2-0.1-8.4c0.7,0.9,1.4,1.4,1.6,2.1C251.6,148.2,251.1,150.1,249.5,152.4z"/>
			<path d="M347.8,232.5c-3,1.1-6,0.3-9.1,0.5c0.6-3.9,2.4-5.9,4.9-5.8C345.8,227.3,347.3,229.1,347.8,232.5z"/>
			<path d="M377.7,232.4c0.9-4.1,2.4-5.3,5.8-4.8c2.4,0.4,3.1,1.6,2.8,4.8C383.1,233.2,381.3,233.2,377.7,232.4z"/>
			<path d="M243.8,232.7c-3,0.5-5.8,0.6-8.6,0c0.2-3.7,1.5-5,4.5-5.1C242.7,227.6,243.6,228.6,243.8,232.7z"/>
			<path d="M145.8,236.1c-0.4,2.1-0.5,4-1.1,5.9c-0.7,2.2-2.6,3.5-4.7,3.5c-2.2-0.1-3.6-1.3-4.4-3.3c-1.4-3.7-1.4-7.4-0.5-11.2
				c0.5-2.1,1.8-3.3,4.1-3.4c3.1-0.1,4.2,0.3,5.2,3C145.2,232.3,145.4,234.3,145.8,236.1z"/>
			<path d="M324.8,293.4c0-2.4,0-4.5,0-6.7c1.7-0.8,3.1-0.8,4.3,0.5c0.9,1,1.1,3.4,0.5,4.8C328.9,293.3,328.1,293.6,324.8,293.4z"/>
			<path d="M148.5,293.7c-2.5-0.1-3.8-1.5-3.6-4.1c0.1-2.5,1.5-3.8,4.1-3.6c2.1,0.1,3.5,1.6,3.5,3.9
				C152.4,292.3,150.9,293.8,148.5,293.7z"/>
		</g>
	</g>
	
		<linearGradient id="SVGID_00000161597015885583522600000015091088737584920729_" gradientUnits="userSpaceOnUse" x1="-36.2848" y1="147.9141" x2="543.0258" y2="354.7859" gradientTransform="matrix(1 0 0 -1 0 500)">
		<stop  offset="0" style="stop-color:#00AEEF"/>
		<stop  offset="0.2598" style="stop-color:#262262"/>
		<stop  offset="0.5056" style="stop-color:#00AEEF"/>
		<stop  offset="0.7635" style="stop-color:#2E3192"/>
		<stop  offset="0.9944" style="stop-color:#00AEEF"/>
	</linearGradient>
	
		<rect x="-0.4" style="display:inline;fill:url(#SVGID_00000161597015885583522600000015091088737584920729_);" width="500" height="500"/>
</g>
</svg>
