<?xml version="1.0" encoding="utf-8"?>
<!-- Generator: Adobe Illustrator 26.0.3, SVG Export Plug-In . SVG Version: 6.00 Build 0)  -->
<svg version="1.1" id="Layer_1" xmlns="http://www.w3.org/2000/svg" xmlns:xlink="http://www.w3.org/1999/xlink" x="0px" y="0px"
	 viewBox="0 0 500 500" style="enable-background:new 0 0 500 500;" xml:space="preserve">
<style type="text/css">
	.st0{fill:url(#SVGID_1_);}
	.st1{fill:url(#SVGID_00000142158387263760856400000014547834880944374961_);}
	.st2{fill:url(#SVGID_00000081646799292723901770000015282723810372911520_);}
	.st3{fill:url(#SVGID_00000093143692501299635010000017748799471693742478_);}
	.st4{fill:url(#SVGID_00000093881913742451331730000015026288002185795482_);}
	.st5{fill:url(#SVGID_00000021117360146075202660000013258293165100914057_);}
	.st6{fill:url(#SVGID_00000060753139341018666690000004520535525284405637_);}
	.st7{fill:url(#SVGID_00000075868039980373311660000011835340000420465565_);}
	.st8{fill:url(#SVGID_00000057862937721835785160000000571349262557758609_);}
	.st9{fill:url(#SVGID_00000131340571622912990630000006873691019566103201_);}
	.st10{fill:url(#SVGID_00000176020845044109409460000011608716899906886817_);}
	.st11{fill:url(#SVGID_00000159440747545669113510000007665843902885913508_);}
	.st12{fill:url(#SVGID_00000070077167679483305050000002187665068823056063_);}
	.st13{fill:url(#SVGID_00000000944955208943763990000000537544690751654284_);}
	.st14{fill:url(#SVGID_00000134208604473075237110000015655556661826333846_);}
	.st15{fill:url(#SVGID_00000031924031965354734980000005522528313496373935_);}
	.st16{fill:url(#SVGID_00000008110817575044814030000015201050394247244223_);}
	.st17{fill:url(#SVGID_00000124146639233768571320000002872671649667732896_);}
</style>
<g>
	
		<linearGradient id="SVGID_1_" gradientUnits="userSpaceOnUse" x1="10.5372" y1="327.4977" x2="50.2438" y2="313.3185" gradientTransform="matrix(-1 0 0 -1 475.3879 491.284)">
		<stop  offset="0" style="stop-color:#FAE862"/>
		<stop  offset="0.2598" style="stop-color:#B8A240"/>
		<stop  offset="0.5056" style="stop-color:#F6E95F"/>
		<stop  offset="0.7635" style="stop-color:#C69E3B"/>
		<stop  offset="1" style="stop-color:#ECD74F"/>
	</linearGradient>
	<path class="st0" d="M432.39,199.89c1.63,0,2.24,0.02,2.84,0c8.81-0.37,14.92-5.69,20.91-11.46c8.06-7.77,12.37-25.08,5.34-35.62
		c-3.32-4.98-11.36-9.55-17.11-8.22c-4.43,1.02-6.19,4.74-4.16,8.9c1.43,2.93,2.82,5.9,4.44,8.72c5.86,10.2,0.54,22.9-5.79,30.02
		C436.87,194.46,435,196.79,432.39,199.89z"/>
	
		<linearGradient id="SVGID_00000160910222646311208590000000245311131904257674_" gradientUnits="userSpaceOnUse" x1="-30.1558" y1="390.1595" x2="126.1856" y2="334.33" gradientTransform="matrix(-1 0 0 -1 475.3879 491.284)">
		<stop  offset="0" style="stop-color:#FAE862"/>
		<stop  offset="0.2598" style="stop-color:#B8A240"/>
		<stop  offset="0.5056" style="stop-color:#F6E95F"/>
		<stop  offset="0.7635" style="stop-color:#C69E3B"/>
		<stop  offset="1" style="stop-color:#ECD74F"/>
	</linearGradient>
	<path style="fill:url(#SVGID_00000160910222646311208590000000245311131904257674_);" d="M408.2,135.84
		c-8.99-7.27-19.31-7.94-29-3.21c-15.42,7.52-29.42,30.53-23.35,49.2c2.74,8.43,6.72,16.19,12.99,22.18
		c5.97,5.69,12.66,10.55,20.21,14.36c8.22,4.15,16.86,6.65,25.64,7.66c17.73,2.04,33.94-1.86,47.6-14.79
		c6.93-6.56,13.11-13.27,17.67-21.82c4.88-9.15,7.28-18.86,7.64-28.91c0.37-10.27-0.45-20.62-1.37-30.88
		c-0.75-8.3-2.33-16.53-3.68-24.77c-2.24-13.57-5.41-27.04-6.66-40.69c-1.2-13.16-2.07-26.58,2.42-39.56
		c0.95-2.74,1.12-5.87,1.05-8.81c-0.08-3.39-2.97-4.84-5.61-2.91c-9.47,6.93-16.39,15.83-19.75,27.32
		c-1.32,4.51-2.36,9.1-3.63,13.62c-2.16,7.73-1.83,15.48,1.4,22.64c3.98,8.82,8.85,17.23,13.55,26.22c-1.52-0.12-3.5-0.23-5.48-0.43
		c-6.84-0.68-13.4-0.37-18.21,5.59c-0.89,1.1-1.2,2.68-1.78,4.04c1.59,0.43,3.39,1.58,4.72,1.16c7.1-2.23,12.56,0.18,17.14,5.54
		c2.09,2.45,4.04,5.01,6.03,7.55c6.82,8.7,10.16,18.8,10.51,29.74c0.19,6-0.37,12.17-1.6,18.04c-1.19,5.69-2.82,11.63-5.78,16.5
		c-3.85,6.32-8.16,12.74-15.04,16.38c-6.53,3.45-12.84,8.37-19.8,9.73c-13.65,2.66-27.62,2.78-40.6-4.14
		c-5.12-2.73-10.69-4.76-15.34-8.14c-4.19-3.04-7.6-7.3-10.98-11.34c-4.78-5.71-7.49-12.48-7.9-19.98
		c-0.5-9.16,3.14-16.79,8.7-23.84c4.34-5.5,9.73-7.47,16.3-6.68c1.97,0.23,3.84,1.2,5.78,1.74c4.33,1.22,4.65,2.36,2.15,6.11
		c-7.15,10.73-7.27,22.37-2.76,33.87c2.21,5.62,6.95,10.14,13.64,9.81c10.09-0.51,18.61-9.9,18.98-20.58
		C424.53,158.38,420.08,145.45,408.2,135.84z"/>
	
		<linearGradient id="SVGID_00000129895815284361576860000001330549926017115833_" gradientUnits="userSpaceOnUse" x1="26.8768" y1="407.3874" x2="52.8565" y2="398.11" gradientTransform="matrix(-1 0 0 -1 475.3879 491.284)">
		<stop  offset="0" style="stop-color:#FAE862"/>
		<stop  offset="0.2598" style="stop-color:#B8A240"/>
		<stop  offset="0.5056" style="stop-color:#F6E95F"/>
		<stop  offset="0.7635" style="stop-color:#C69E3B"/>
		<stop  offset="1" style="stop-color:#ECD74F"/>
	</linearGradient>
	<path style="fill:url(#SVGID_00000129895815284361576860000001330549926017115833_);" d="M451.74,93.57
		c0.28-0.15,0.55-0.3,0.83-0.45c-0.98-1.63-1.95-3.27-2.94-4.9c-4.59-7.47-12.66-10.71-20.89-8.07c-3.32,1.06-8.41,5.73-7.6,9.9
		c0.36,1.84,1.4,3.71,2.65,5.09c0.32,0.35,2.83-0.88,3.95-1.84c4.99-4.3,10.24-6.47,16.62-3.11
		C446.75,91.44,449.27,92.45,451.74,93.57z"/>
	
		<linearGradient id="SVGID_00000159470706734907488960000006935779692237599143_" gradientUnits="userSpaceOnUse" x1="211.9235" y1="48.6425" x2="248.3725" y2="35.6266" gradientTransform="matrix(-1 0 0 -1 475.3879 491.284)">
		<stop  offset="0" style="stop-color:#FAE862"/>
		<stop  offset="0.2598" style="stop-color:#B8A240"/>
		<stop  offset="0.5056" style="stop-color:#F6E95F"/>
		<stop  offset="0.7635" style="stop-color:#C69E3B"/>
		<stop  offset="1" style="stop-color:#ECD74F"/>
	</linearGradient>
	<path style="fill:url(#SVGID_00000159470706734907488960000006935779692237599143_);" d="M229.27,463.02
		c3.5,6.17,6.93,12.38,10.39,18.57c1.8,3.22,3.6,6.44,5.85,10.47c1.91-2.79,3.35-4.64,4.51-6.66c4.19-7.31,8.08-14.82,12.5-21.98
		c2.07-3.36,2.36-6.6,0.9-9.83c-5.18-11.42-5.64-23.86-8.04-35.89c-0.49-2.46-1.48-5.29-3.18-6.95c-6.44-6.31-6.66-6.23-12.66,0.37
		c-1.45,1.59-3.06,3.77-3.17,5.75c-0.61,11.79-2.85,23.17-6.78,34.29C228.26,454.92,226.98,458.98,229.27,463.02z"/>
	
		<linearGradient id="SVGID_00000150061330051463742850000018432077615432871813_" gradientUnits="userSpaceOnUse" x1="252.9488" y1="86.643" x2="453.6589" y2="14.9694" gradientTransform="matrix(-1 0 0 -1 475.3879 491.284)">
		<stop  offset="0" style="stop-color:#FAE862"/>
		<stop  offset="0.2598" style="stop-color:#B8A240"/>
		<stop  offset="0.5056" style="stop-color:#F6E95F"/>
		<stop  offset="0.7635" style="stop-color:#C69E3B"/>
		<stop  offset="1" style="stop-color:#ECD74F"/>
	</linearGradient>
	<path style="fill:url(#SVGID_00000150061330051463742850000018432077615432871813_);" d="M58.35,452.61
		c-9.7,2.09-19.26,5.59-27.21,11.94c-3.86,3.08-6.86,7.31-10.13,11.11c-1.36,1.58-1.96,3.72,0,5.06c1.26,0.86,3.3,1.21,4.82,0.91
		c5.2-1.04,10.27-3.16,15.49-3.61c8.85-0.76,17.81-1.19,26.65-0.58c8.17,0.57,16.23,2.69,24.34,4.14
		c7.75,1.38,15.47,2.96,23.25,4.11c12.3,1.83,24.6,3.67,36.97,4.89c4.98,0.49,10.11-0.89,15.17-0.97
		c8.13-0.14,15.92-1.69,22.92-5.83c5.98-3.53,11.91-7.32,17.21-11.8c4.34-3.67,7.66-8.56,11.5-12.86
		c4.77-5.33,7.64-11.84,9.17-18.58c2.29-10.07,2.17-20.44,0.47-30.7c-0.29-1.79-0.21-3.68-0.77-5.37
		c-3.91-11.78-9.14-22.87-17.31-32.31c-6.78-7.84-15.17-13.83-24.92-16.4c-18.37-4.85-38.54,6.6-47.06,22.18
		c-3.82,6.98-6.27,14.13-3.08,22.01c1.29,3.18,2.53,6.69,4.79,9.08c4.11,4.34,8.53,8.76,13.65,11.64c4.58,2.57,10.25,3.2,15.49,4.53
		c9.29,2.36,20.18-1.63,25.09-9.59c2.45-3.98,5.17-7.93,3.11-13.5c-3.78-10.23-20.02-14.73-27.27-12.45
		c-6.43,2.02-12.9,3.91-19.84,6c-2.57-3.79-5.68-8.93-3.65-14.45c1.6-4.34,4.67-8.83,8.31-11.57c13.33-10.01,26.41-9.99,40.29-0.63
		c7.2,4.85,12.23,11.58,16.43,19.34c4.45,8.2,7.78,16.84,9.01,25.82c2.51,18.33-2.05,35-14.57,49.03
		c-9.08,10.17-20.55,15.46-33.75,16.65c-9.85,0.89-19.71,1.26-29.27-2.9c-9.86-4.29-18.87-9.54-24.57-19.03
		c-1.73-2.88-3.45-6.43-1.37-10.23c0.46-0.84,0.5-2.05,0.36-3.04c-0.15-1.07-0.47-2.47-1.22-2.99c-0.51-0.35-2.06,0.32-2.82,0.94
		c-4.02,3.31-6.15,7.85-6.5,12.91c-0.3,4.26,0.39,8.58,0.64,12.87c-6.01-3.63-12.17-7.2-18.19-11.01
		C80.1,451.13,69.22,450.27,58.35,452.61z"/>
	
		<linearGradient id="SVGID_00000062881256807336646640000016737952991389230993_" gradientUnits="userSpaceOnUse" x1="371.4622" y1="56.0565" x2="388.7076" y2="49.8982" gradientTransform="matrix(-1 0 0 -1 475.3879 491.284)">
		<stop  offset="0" style="stop-color:#FAE862"/>
		<stop  offset="0.2598" style="stop-color:#B8A240"/>
		<stop  offset="0.5056" style="stop-color:#F6E95F"/>
		<stop  offset="0.7635" style="stop-color:#C69E3B"/>
		<stop  offset="1" style="stop-color:#ECD74F"/>
	</linearGradient>
	<path style="fill:url(#SVGID_00000062881256807336646640000016737952991389230993_);" d="M99.95,428.51
		c1.4-2.06,1.4-3.95-0.82-5.54c-3.04-2.19-7.3-0.97-10.74,3.33c-4.29,5.37-4.35,19.13,5.83,25.58c1.28,0.81,2.77,1.3,4.16,1.93
		c0.25-0.34,0.51-0.67,0.76-1.01c-0.63-1.06-1.33-2.09-1.86-3.2c-2.2-4.57-5.27-9.07-2.08-14.38
		C96.62,432.88,98.41,430.78,99.95,428.51z"/>
	
		<linearGradient id="SVGID_00000139981423364483482270000006473625952737664917_" gradientUnits="userSpaceOnUse" x1="221.1292" y1="107.1936" x2="239.7109" y2="100.5581" gradientTransform="matrix(-1 0 0 -1 475.3879 491.284)">
		<stop  offset="0" style="stop-color:#FAE862"/>
		<stop  offset="0.2598" style="stop-color:#B8A240"/>
		<stop  offset="0.5056" style="stop-color:#F6E95F"/>
		<stop  offset="0.7635" style="stop-color:#C69E3B"/>
		<stop  offset="1" style="stop-color:#ECD74F"/>
	</linearGradient>
	<path style="fill:url(#SVGID_00000139981423364483482270000006473625952737664917_);" d="M245.71,402.22
		c3.41-3.18,6.76-6.18,9.94-9.35c0.73-0.74,1.53-2.49,1.17-3.1c-3.46-5.9-7.16-11.66-10.97-17.74c-0.98,0.93-1.68,1.34-2.04,1.96
		c-2.52,4.4-5.13,8.76-7.37,13.31c-0.71,1.44-1.16,4.05-0.39,5C238.92,395.81,242.34,398.85,245.71,402.22z"/>
	
		<linearGradient id="SVGID_00000059297697668240332180000009611246618280787390_" gradientUnits="userSpaceOnUse" x1="105.4233" y1="263.1026" x2="216.7603" y2="223.3442" gradientTransform="matrix(-1 0 0 -1 475.3879 491.284)">
		<stop  offset="0" style="stop-color:#FAE862"/>
		<stop  offset="0.2598" style="stop-color:#B8A240"/>
		<stop  offset="0.5056" style="stop-color:#F6E95F"/>
		<stop  offset="0.7635" style="stop-color:#C69E3B"/>
		<stop  offset="1" style="stop-color:#ECD74F"/>
	</linearGradient>
	<path style="fill:url(#SVGID_00000059297697668240332180000009611246618280787390_);" d="M308.3,266.16
		c-0.06,0.95,0.08,1.66-0.16,2.21c-2.96,6.83-2.78,13.99-1.34,20.97c1.71,8.25,6.8,14.8,14.75,16.9
		c10.77,2.84,17.66-0.13,24.38-10.67c3.45-5.41,2.18-12.84-2.42-16.34c-2.93-2.23-7.41-1.07-9.72,2.48
		c-2.23,3.42,1.54,3.11,2.66,4.45c-1.01,5.13-8.25,8.58-11.72,5.46c-5.83-5.23-7.5-12.08-4.43-20.26
		c2.43-6.49,6.93-11.22,12.56-14.73c4.97-3.1,10.07-6.59,15.58-8.03c7.8-2.04,14.45,1.63,19.64,7.8c0.95,1.13,2.07,2.13,3.11,3.18
		c-0.67-8.12-6.41-12.07-12.29-16.33c7.35-3.48,12.54-8.09,13.58-17.14c-2.93,3.34-4.85,6.7-7.72,8.57
		c-9.09,5.94-18.45,4.24-27.13-0.99c-6.93-4.18-12.6-9.8-16.02-17.65c-2.85-6.55-1.91-16.51,3.25-20.92
		c1.75-1.5,3.93-2.62,6.96-1.27c3.18,1.41,4.65,3.55,5.41,5.57c-1.34,2.01-2.88,3.27-2.75,4.31c0.52,4,5.89,5.89,9.33,3.73
		c3.32-2.09,4.67-4.87,4.82-8.83c0.24-6.43-3.1-10.83-7.23-14.93c-4.42-4.37-17.5-5.75-22.34-2.47
		c-10.7,7.25-15.27,21.05-11.01,33.49c0.93,2.71,2.09,5.34,3.26,8.31c-23.19-0.4-42.96,8.75-62.94,20.69
		C267.31,255.72,286.14,265.29,308.3,266.16z M281.02,241.45c6.24-2.22,12.55-4.46,19-5.83c6.55-1.4,11.39,2.04,15.04,7.85
		c-5.57,7.12-13.07,7.08-20.49,5.72c-4.48-0.82-8.69-3.21-13.03-4.83C279.58,243.63,279.26,242.08,281.02,241.45z"/>
	
		<linearGradient id="SVGID_00000167363464549212186020000003482618293205423500_" gradientUnits="userSpaceOnUse" x1="270.2662" y1="51.7004" x2="322.1886" y2="33.1589" gradientTransform="matrix(-1 0 0 -1 475.3879 491.284)">
		<stop  offset="0" style="stop-color:#FAE862"/>
		<stop  offset="0.2598" style="stop-color:#B8A240"/>
		<stop  offset="0.5056" style="stop-color:#F6E95F"/>
		<stop  offset="0.7635" style="stop-color:#C69E3B"/>
		<stop  offset="1" style="stop-color:#ECD74F"/>
	</linearGradient>
	<path style="fill:url(#SVGID_00000167363464549212186020000003482618293205423500_);" d="M174.1,467.07
		c6.04-1.56,11.88-3.24,17.04-7.53c7.39-6.14,11.17-14.12,14.11-22.83c0.23-0.68-0.33-1.63-0.52-2.45
		c-0.87,0.23-1.94,0.21-2.56,0.74c-3.04,2.59-5.85,5.46-8.95,7.97c-4.97,4.04-11.1,6.52-17.09,6.09
		c-5.38-0.39-10.69-3.43-15.76-5.87c-2.57-1.24-5.24-3.47-7.59-1.59c-1.92,1.53-2.51,4.76-3.11,6.01
		C149.84,459.84,163.3,469.86,174.1,467.07z"/>
	
		<linearGradient id="SVGID_00000049196446664288254400000002686711922071142831_" gradientUnits="userSpaceOnUse" x1="-20.358" y1="143.969" x2="94.6235" y2="102.9091" gradientTransform="matrix(-1 0 0 -1 475.3879 491.284)">
		<stop  offset="0" style="stop-color:#FAE862"/>
		<stop  offset="0.2598" style="stop-color:#B8A240"/>
		<stop  offset="0.5056" style="stop-color:#F6E95F"/>
		<stop  offset="0.7635" style="stop-color:#C69E3B"/>
		<stop  offset="1" style="stop-color:#ECD74F"/>
	</linearGradient>
	<path style="fill:url(#SVGID_00000049196446664288254400000002686711922071142831_);" d="M478.45,407.01
		c1.39-8.63,2.73-17.27,4.11-25.91c1.69-10.51,4.13-20.97,4.92-31.55c1.09-14.52,1.34-29.12-3.13-43.39
		c-2.58-8.24-6.54-15.74-11.9-22.15c-4.87-5.82-10.47-11.08-17.06-15.31c-6.94-4.45-14.15-8.09-22.08-9.42
		c-15.13-2.55-29.73,0.86-43.36,7.23c-7.72,3.61-15.3,8.23-20.94,15.19c-1.75,2.16-3.39,4.41-5.22,6.49
		c-5.81,6.58-9.09,14.68-9.13,23.06c-0.07,16.77,7.49,29.73,21.37,39.39c13.01,9.06,29.02,4.26,36.99-5.16
		c7.36-8.69,11.16-18.98,11.15-30.71c-0.02-9.4-4.85-19.28-15.45-22.36c-2-0.58-4.44-1.6-6.13-0.95
		c-7.18,2.76-12.23,8.11-13.27,15.88c-1.48,11-1.08,21.9,6.76,30.82c-4.79,5.6-13.27,6.94-17.13,5.07
		c-11.53-5.6-16.31-15.84-17.72-28.02c-0.88-7.55,2.4-14.16,6.17-20.27c5.79-9.38,14.19-16.05,24.13-20.25
		c7.06-2.98,14.49-5.77,22-6.78c13.39-1.79,26.19,0.47,38.26,7.78c9.12,5.52,16.13,13,20.73,21.98c3.62,7.05,4.74,15.72,5.68,23.83
		c1.51,13.13-1.99,25.11-9.24,36.37c-6.33,9.83-13.11,17.29-25.92,14.87c-0.96-0.18-2.09,0.55-3.14,0.85
		c0.38,1.13,0.49,2.49,1.19,3.36c3.26,4.02,7.46,6.46,12.65,6.68c4.02,0.17,8.05,0.03,12.16,0.03c-1.8,2.79-3.79,5.98-5.89,9.1
		c-6.92,10.26-12,21.35-10.43,34c1.23,9.96,3.87,19.69,8.99,28.64c3.91,6.83,8.78,12.45,15.21,16.79c2.5,1.69,4.91,1.1,5.49-1.81
		c0.41-2.05,0.29-4.41-0.31-6.42c-3.88-12.93-4.18-26.18-3.29-39.46C476.05,418.62,477.52,412.83,478.45,407.01z"/>
	
		<linearGradient id="SVGID_00000067197820318297865220000000004497497910217871_" gradientUnits="userSpaceOnUse" x1="76.1283" y1="251.6254" x2="101.9843" y2="242.3922" gradientTransform="matrix(-1 0 0 -1 475.3879 491.284)">
		<stop  offset="0" style="stop-color:#FAE862"/>
		<stop  offset="0.2598" style="stop-color:#B8A240"/>
		<stop  offset="0.5056" style="stop-color:#F6E95F"/>
		<stop  offset="0.7635" style="stop-color:#C69E3B"/>
		<stop  offset="1" style="stop-color:#ECD74F"/>
	</linearGradient>
	<path style="fill:url(#SVGID_00000067197820318297865220000000004497497910217871_);" d="M394.35,251.01
		c1.58-1.95,3.46-3.65,5.24-5.42c1.75-1.74,2.32-3.23-0.19-4.94c-1.4-0.96-2.36-2.56-3.61-3.77c-1.78-1.73-3.41-4.02-5.56-4.79
		c-1.23-0.44-3.34,1.65-5.06,2.58c-0.56,0.3-1.19,0.48-1.73,0.81c-3.98,2.49-7.95,5-12.42,7.82c5.55,3.46,10.52,6.57,15.5,9.65
		C389.75,254.93,392.15,253.74,394.35,251.01z"/>
	
		<linearGradient id="SVGID_00000067197376798966104390000012911488637005632703_" gradientUnits="userSpaceOnUse" x1="180.484" y1="196.2337" x2="289.0784" y2="157.4546" gradientTransform="matrix(-1 0 0 -1 475.3879 491.284)">
		<stop  offset="0" style="stop-color:#FAE862"/>
		<stop  offset="0.2598" style="stop-color:#B8A240"/>
		<stop  offset="0.5056" style="stop-color:#F6E95F"/>
		<stop  offset="0.7635" style="stop-color:#C69E3B"/>
		<stop  offset="1" style="stop-color:#ECD74F"/>
	</linearGradient>
	<path style="fill:url(#SVGID_00000067197376798966104390000012911488637005632703_);" d="M223.32,308.6
		c-5.85-2.24-11.65-2.81-20.34-2.13c-11.31,0.89-20.46,10.88-19.51,22.3c0.33,3.94,2.5,7.91,4.49,11.49
		c4.2,7.57,14.8,9.65,21.21,4.11c1.35-1.17,2-4.15,1.68-6.06c-0.29-1.67-2.2-3.44-3.83-4.28c-0.63-0.32-2.48,1.81-3.98,2.99
		c-2.91-0.7-5.45-3.53-5.96-7.03c-0.57-3.89,0.95-6.99,4.21-8.72c9.17-4.87,18.79-2.61,26.02,4.91
		c5.41,5.63,10.27,12.06,12.71,19.69c1.83,5.73,1.99,11.76-2.06,16.9c-2.58,3.28-5.48,6.31-8.7,9.98
		c7.82-1.68,12.15-7.09,16.3-12.89c4.34,8,10.67,13.13,15.82,12.86c-0.61-0.68-1.03-1.26-1.55-1.72
		c-10.35-9.23-12.67-21.4-5.34-32.57c3.96-6.04,8.41-11.86,15.22-15.42c7.43-3.89,14.94-5.04,22.09,1.07
		c2.98,2.55,2.68,5.19,2.14,8.28c-0.56,3.2-2.44,4.84-4.88,5.05c-1.62-1.43-2.75-3.27-3.92-3.3c-3.1-0.08-6.27,6.66-4.75,9.48
		c2.64,4.89,8.98,6.89,14.13,4.91c6.2-2.38,10.65-6.07,13.01-12.69c2.08-5.85,0.76-16.88-3.6-21.08
		c-9.19-8.85-22.47-11.21-35.06-4.98c-1.17,0.58-2.45,0.94-4.17,1.59c0.42-11.99-0.71-22.91-4.68-33.67
		c-3.84-10.41-8.3-20.35-14.83-30.55C233.28,266.33,223.88,285.74,223.32,308.6z M253.37,303.1c-0.28,3.85-1.8,6.88-4.48,9.42
		c-2.87,2.71-6.07,2.32-7.14-1.42c-1.29-4.49-2.64-9.38-2.1-13.87c0.72-6.02,3.23-11.81,4.97-17.7c0.55,0.09,1.1,0.17,1.65,0.26
		C250.58,286.92,254.02,294.3,253.37,303.1z"/>
	
		<linearGradient id="SVGID_00000152261693777405352610000002774437737764598438_" gradientUnits="userSpaceOnUse" x1="-7.4016" y1="259.9458" x2="65.4954" y2="233.9143" gradientTransform="matrix(-1 0 0 -1 475.3879 491.284)">
		<stop  offset="0" style="stop-color:#FAE862"/>
		<stop  offset="0.2598" style="stop-color:#B8A240"/>
		<stop  offset="0.5056" style="stop-color:#F6E95F"/>
		<stop  offset="0.7635" style="stop-color:#C69E3B"/>
		<stop  offset="1" style="stop-color:#ECD74F"/>
	</linearGradient>
	<path style="fill:url(#SVGID_00000152261693777405352610000002774437737764598438_);" d="M486.05,240.61
		c-3.9-2.23-7.91-4.28-11.81-6.53c-5.44-3.13-10.81-6.4-16.25-9.53c-0.79-0.46-1.94-0.89-2.73-0.65
		c-5.54,1.64-10.96,3.75-16.56,5.16c-6.86,1.73-13.87,2.87-20.79,4.41c-2.42,0.54-4.99,1.11-7.04,2.4c-2.72,1.72-5,4.15-7.47,6.28
		c0.77,3.23,8.62,10.2,11.86,10.63c6.17,0.81,12.41,1.28,18.49,2.53c5.92,1.21,11.7,3.14,17.49,4.92c2.91,0.9,5.48,2.85,8.73,0.35
		c2.87-2.2,6.26-3.7,9.43-5.48c5.58-3.13,11.2-6.18,16.74-9.38c1.12-0.65,1.97-1.79,2.94-2.7
		C488.09,242.21,487.16,241.24,486.05,240.61z"/>
	
		<linearGradient id="SVGID_00000003823554737382749260000013079739614799590028_" gradientUnits="userSpaceOnUse" x1="13.8938" y1="185.4088" x2="42.9611" y2="175.0288" gradientTransform="matrix(-1 0 0 -1 475.3879 491.284)">
		<stop  offset="0" style="stop-color:#FAE862"/>
		<stop  offset="0.2598" style="stop-color:#B8A240"/>
		<stop  offset="0.5056" style="stop-color:#F6E95F"/>
		<stop  offset="0.7635" style="stop-color:#C69E3B"/>
		<stop  offset="1" style="stop-color:#ECD74F"/>
	</linearGradient>
	<path style="fill:url(#SVGID_00000003823554737382749260000013079739614799590028_);" d="M442.43,339.52
		c5.74,3.81,13.99-0.29,17.53-4.76c8.18-10.34,6.15-23.94-0.64-33.85c-4.11-5.99-9.41-10.86-16.31-13.43
		c-3.1-1.15-6.4-1.73-9.61-2.56c-0.17,0.45-0.34,0.9-0.51,1.35c2.75,3.23,6.09,6.14,8.11,9.79c2.59,4.69,4.95,9.83,5.93,15.05
		c1.41,7.58-2.6,14.11-6.34,20.36C438.15,335.53,438.39,336.84,442.43,339.52z"/>
	
		<linearGradient id="SVGID_00000072963991950806127100000000864952391138225828_" gradientUnits="userSpaceOnUse" x1="136.4506" y1="51.7068" x2="180.7796" y2="35.8769" gradientTransform="matrix(-1 0 0 -1 475.3879 491.284)">
		<stop  offset="0" style="stop-color:#FAE862"/>
		<stop  offset="0.2598" style="stop-color:#B8A240"/>
		<stop  offset="0.5056" style="stop-color:#F6E95F"/>
		<stop  offset="0.7635" style="stop-color:#C69E3B"/>
		<stop  offset="1" style="stop-color:#ECD74F"/>
	</linearGradient>
	<path style="fill:url(#SVGID_00000072963991950806127100000000864952391138225828_);" d="M332.61,442.66
		c-3.03,1.03-5.9,2.64-8.72,4.22c-8.33,4.66-15.91,1.66-23.07-2.65c-4.26-2.56-7.94-6.12-12.22-9.49
		c-0.82,7.83,3.12,13.28,6.81,18.53c5.94,8.44,14.67,13.11,24.6,13.82c5.09,0.36,10.94-1.39,15.43-3.99
		c4.44-2.56,7.55-7.63,7.5-13.32c-0.02-2.77-0.87-6.45-2.73-7.99C338.81,440.62,335.08,441.83,332.61,442.66z"/>
	
		<linearGradient id="SVGID_00000051383347862696224290000011689339424343416744_" gradientUnits="userSpaceOnUse" x1="24.1177" y1="100.3526" x2="51.7771" y2="90.4754" gradientTransform="matrix(-1 0 0 -1 475.3879 491.284)">
		<stop  offset="0" style="stop-color:#FAE862"/>
		<stop  offset="0.2598" style="stop-color:#B8A240"/>
		<stop  offset="0.5056" style="stop-color:#F6E95F"/>
		<stop  offset="0.7635" style="stop-color:#C69E3B"/>
		<stop  offset="1" style="stop-color:#ECD74F"/>
	</linearGradient>
	<path style="fill:url(#SVGID_00000051383347862696224290000011689339424343416744_);" d="M427.02,391.97
		c-1.07-0.62-3.05-1.45-3.51-1.01c-1.15,1.12-2.64,3.25-2.25,4.36c0.98,2.85,2.31,6.2,4.56,7.85c7.86,5.77,22.78,1.92,26.59-11.32
		c-1.61,0.67-2.82,1.03-3.89,1.64c-5.01,2.88-10,5.88-15.87,2.31C430.71,394.63,428.97,393.11,427.02,391.97z"/>
	
		<linearGradient id="SVGID_00000037684755263945079840000003814461684029162112_" gradientUnits="userSpaceOnUse" x1="68.0385" y1="57.5109" x2="86.1207" y2="51.0537" gradientTransform="matrix(-1 0 0 -1 475.3879 491.284)">
		<stop  offset="0" style="stop-color:#FAE862"/>
		<stop  offset="0.2598" style="stop-color:#B8A240"/>
		<stop  offset="0.5056" style="stop-color:#F6E95F"/>
		<stop  offset="0.7635" style="stop-color:#C69E3B"/>
		<stop  offset="1" style="stop-color:#ECD74F"/>
	</linearGradient>
	<path style="fill:url(#SVGID_00000037684755263945079840000003814461684029162112_);" d="M393.86,453.82
		c2.74-1.27,5.13-1.75,6.63-3.19c5.23-5.02,7.59-11.13,6.59-18.69c-0.52-3.9-5.6-9.48-9.01-9.65c-2.03-0.1-4.56,1.24-6.12,2.73
		c-1.99,1.91,0.61,2.83,1.68,4.13c3.49,4.22,5.5,9.08,4.15,14.62C397,446.92,395.43,449.87,393.86,453.82z"/>
	
		<linearGradient id="SVGID_00000126281094142066212840000016363014075679791755_" gradientUnits="userSpaceOnUse" x1="34.8735" y1="90.8597" x2="201.7131" y2="31.2813" gradientTransform="matrix(-1 0 0 -1 475.3879 491.284)">
		<stop  offset="0" style="stop-color:#FAE862"/>
		<stop  offset="0.2598" style="stop-color:#B8A240"/>
		<stop  offset="0.5056" style="stop-color:#F6E95F"/>
		<stop  offset="0.7635" style="stop-color:#C69E3B"/>
		<stop  offset="1" style="stop-color:#ECD74F"/>
	</linearGradient>
	<path style="fill:url(#SVGID_00000126281094142066212840000016363014075679791755_);" d="M296.82,481.3
		c12.22,7.4,26.04,9,39.92,9.19c7.74,0.11,15.5-0.96,23.23-1.75c5.17-0.52,10.33-1.32,15.44-2.27c6.7-1.25,13.34-2.87,20.04-4.15
		c3.13-0.6,6.35-0.67,9.5-1.15c8.88-1.33,17.71-3.08,26.63-4.05c9.69-1.06,19.25,0.62,28.66,3.01c2.81,0.71,5.57,1.78,8.41,2.08
		c1.36,0.14,3.52-0.74,4.14-1.85c0.61-1.08,0.18-3.31-0.57-4.55c-5.18-8.47-12.76-13.8-21.71-17.81
		c-9.18-4.12-18.42-6.58-28.51-6.63c-9.49-0.04-17.27,4.42-25.14,8.64c-4.32,2.32-8.13,5.63-12.79,8.93
		c0.16-2.54,0.17-4.56,0.44-6.54c1-7.12,0.53-13.81-5.33-18.88c-1.09-0.95-2.54-1.48-3.82-2.2c-0.32,1.65-0.79,3.3-0.91,4.97
		c-0.21,3.02,0.48,6.3-0.42,9.05c-3.63,11.01-13.25,16.07-22.44,20.66c-10.79,5.39-22.63,6.57-34.52,3.85
		c-5.63-1.28-11.45-2.5-16.6-4.99c-7.27-3.5-13.07-9.08-18.19-15.6c-5.92-7.54-9.88-15.74-11.15-25.21
		c-1.91-14.26-0.35-28.2,5.97-41.13c4.39-8.99,9.74-17.69,18.18-23.43c5.27-3.59,10.88-6.73,17.62-7.35
		c8.27-0.76,15.79,1.31,22.42,5.83c6.52,4.44,11.2,10.63,9.67,19.34c-0.61,3.44-2.42,6.67-3.8,10.29c-2.68-1.87-4.55-3.98-6.82-4.61
		c-7.91-2.2-15.79-4.64-24.28-2.6c-5.96,1.44-10.71,4.49-14.14,9.35c-3.98,5.64,0.67,18.22,7.12,21.62
		c9.33,4.92,18.74,4.54,28.45,1.77c8.93-2.55,16.62-7.45,21.45-15.24c6.33-10.19,6.25-21.18-0.22-31.66
		c-4.21-6.82-10.34-11.47-17.04-15.58c-8.83-5.42-18.52-7.4-28.2-4.81c-12.87,3.45-23.05,11.64-30.55,22.86
		c-2.66,3.98-4.54,8.5-6.75,12.79c-7.13,13.79-8.82,28.23-6.72,43.69c1.39,10.19,5.84,18.46,11.52,26.3
		C280.87,469.59,288.36,476.19,296.82,481.3z"/>
</g>
</svg>
