<?xml version="1.0" encoding="utf-8"?>
<!-- Generator: Adobe Illustrator 26.0.3, SVG Export Plug-In . SVG Version: 6.00 Build 0)  -->
<svg version="1.1" id="Layer_1" xmlns="http://www.w3.org/2000/svg" xmlns:xlink="http://www.w3.org/1999/xlink" x="0px" y="0px"
	 viewBox="0 0 500 500" style="enable-background:new 0 0 500 500;" xml:space="preserve">
<style type="text/css">
	.st0{opacity:0.1;fill:#66CC33;}
	.st1{fill:url(#SVGID_1_);stroke:#000000;stroke-width:2;stroke-miterlimit:10;}
	.st2{fill:url(#SVGID_00000165218125109707450850000010011339853797272500_);stroke:#000000;stroke-width:2;stroke-miterlimit:10;}
	.st3{fill:url(#SVGID_00000057858893117946158730000003474987785577489812_);stroke:#000000;stroke-width:2;stroke-miterlimit:10;}
	.st4{fill:url(#SVGID_00000121245286341462512410000018246608558368151186_);}
	.st5{fill:url(#SVGID_00000181793551747205122530000010679426630463017608_);stroke:#000000;stroke-width:2;stroke-miterlimit:10;}
	.st6{fill:url(#SVGID_00000106121119720607951100000008205695341385779646_);}
	.st7{fill:url(#SVGID_00000141439037229709887560000008706443090035925377_);stroke:#000000;stroke-width:2;stroke-miterlimit:10;}
	.st8{fill:url(#SVGID_00000062164276665197458730000017318914673677631916_);}
	.st9{fill:url(#SVGID_00000066517485665353442510000005200982057216616078_);stroke:#000000;stroke-width:2;stroke-miterlimit:10;}
	.st10{fill:url(#SVGID_00000183209292067906364360000008600631317804814752_);}
	.st11{fill:url(#SVGID_00000003789682642448447420000013118251000788439174_);stroke:#000000;stroke-width:2;stroke-miterlimit:10;}
	.st12{fill:url(#SVGID_00000119092864303005662070000002682443097218257035_);}
	.st13{fill:url(#SVGID_00000010295004101521571580000011513878704462702746_);stroke:#000000;stroke-width:2;stroke-miterlimit:10;}
	.st14{fill:url(#SVGID_00000016072447838775502160000013624933337711667084_);}
	.st15{fill:url(#SVGID_00000173127566946173993590000010977799805410852004_);stroke:#000000;stroke-width:2;stroke-miterlimit:10;}
	.st16{fill:url(#SVGID_00000094618194006200934280000012262183392800329365_);}
	.st17{fill:url(#SVGID_00000070120040746604280790000002413049773076929978_);stroke:#000000;stroke-width:2;stroke-miterlimit:10;}
	.st18{fill:url(#SVGID_00000125576303214718485040000017712932472345080767_);}
	.st19{fill:url(#SVGID_00000062901128389332112300000015707212238573838733_);stroke:#000000;stroke-width:2;stroke-miterlimit:10;}
	.st20{fill:url(#SVGID_00000106858167572096602610000002035577205501419179_);}
	.st21{fill:url(#SVGID_00000057859962283195480270000009118366547715889037_);stroke:#000000;stroke-width:2;stroke-miterlimit:10;}
	.st22{fill:url(#SVGID_00000127009579215815592820000003517789851517246871_);}
	.st23{fill:url(#SVGID_00000051380309559262878220000014082497053364897970_);stroke:#000000;stroke-width:2;stroke-miterlimit:10;}
	.st24{fill:url(#SVGID_00000042008429684341209480000007208884608665019043_);}
	.st25{fill:url(#SVGID_00000167389941777438498680000011759659240845756317_);stroke:#000000;stroke-width:2;stroke-miterlimit:10;}
	.st26{fill:url(#SVGID_00000035488484997518355630000004240712233833002116_);}
	.st27{fill:url(#SVGID_00000145036757592418197010000013119390209423173022_);stroke:#000000;stroke-width:2;stroke-miterlimit:10;}
	.st28{fill:url(#SVGID_00000150796366928970564830000015246227195821680558_);}
	.st29{fill:url(#SVGID_00000018215122033769947530000006069374858103445390_);stroke:#000000;stroke-width:2;stroke-miterlimit:10;}
	.st30{fill:url(#SVGID_00000010991912463408035500000015673078080584177310_);}
	.st31{fill:url(#SVGID_00000034805696669941200990000002392891054907536799_);stroke:#000000;stroke-width:2;stroke-miterlimit:10;}
	.st32{fill:url(#SVGID_00000085928707363417916050000014085493180921228203_);}
	.st33{fill:url(#SVGID_00000041270864707991397410000008323895454828724381_);stroke:#000000;stroke-width:2;stroke-miterlimit:10;}
	.st34{fill:url(#SVGID_00000018225972148503759470000015435054718243872649_);}
	.st35{fill:url(#SVGID_00000176042105767070973670000016500780363719479478_);stroke:#000000;stroke-width:2;stroke-miterlimit:10;}
	.st36{fill:url(#SVGID_00000102535568208627826570000013337524049416020412_);}
	.st37{fill:url(#SVGID_00000138539006053011388420000004249692292048731291_);stroke:#000000;stroke-width:2;stroke-miterlimit:10;}
	.st38{fill:url(#SVGID_00000057134767005813942390000004703846286240011424_);}
	.st39{fill:url(#SVGID_00000182512052941392963730000013372478585016707775_);stroke:#000000;stroke-width:2;stroke-miterlimit:10;}
	.st40{fill:url(#SVGID_00000122708950826482445620000006524558427435908512_);}
	.st41{fill:url(#SVGID_00000125597670149503074820000007990430909130696884_);stroke:#000000;stroke-width:2;stroke-miterlimit:10;}
	.st42{fill:url(#SVGID_00000030461872091484846890000006303600770433443753_);}
	.st43{fill:url(#SVGID_00000035500476453501633650000004755932928632250558_);stroke:#000000;stroke-width:2;stroke-miterlimit:10;}
	.st44{fill:url(#SVGID_00000032610181169911749940000009400579521151629503_);}
	.st45{fill:url(#SVGID_00000181803854714829597100000007391251982794527905_);stroke:#000000;stroke-width:2;stroke-miterlimit:10;}
	.st46{fill:url(#SVGID_00000005240967399546160110000010452719117110349244_);}
	.st47{fill:url(#SVGID_00000005227498490538069780000003161329582371903635_);stroke:#000000;stroke-width:2;stroke-miterlimit:10;}
	.st48{fill:url(#SVGID_00000116938636245197927230000013004433635113030022_);}
	.st49{fill:url(#SVGID_00000021825575712561221570000007715557060626452110_);stroke:#000000;stroke-width:2;stroke-miterlimit:10;}
	.st50{fill:url(#SVGID_00000111903515283279387080000007478937575229583806_);}
	.st51{fill:url(#SVGID_00000025405650447423496440000001727393627670459562_);stroke:#000000;stroke-width:2;stroke-miterlimit:10;}
	.st52{fill:url(#SVGID_00000124137299091315546900000008468353728134229892_);}
	.st53{fill:url(#SVGID_00000065072311364302488970000007009670926403634869_);stroke:#000000;stroke-width:2;stroke-miterlimit:10;}
	.st54{fill:url(#SVGID_00000101792371701008398540000009572972234410066327_);}
	.st55{stroke:#000000;stroke-width:2;stroke-miterlimit:10;}
	.st56{fill:url(#SVGID_00000175302285719025520570000009488216506449718403_);}
	.st57{fill:url(#SVGID_00000042017003658181406770000017905459882317955470_);}
</style>
<path class="st0" d="M462.2,409.9c-3.9-6.4-3-14.5,2.2-17.8c1.6-1,3.3-1.4,4.9-0.3c1.9,1.4,2,3.3,1.2,5.8c-1.2-1-2.3-1.9-3.3-2.7
	c-3.4,3-4.1,5.2-3,9c2.4,8.3,11.5,11.1,17.8,5.4c4.9-4.5,8.2-10.4,10.4-17c4.8-14.2,5.7-28.9,2.8-43.7c-3.4-17.3-9.8-33.2-18.5-48
	c-3.5-6-7-11.9-10.3-18c-3.6-6.6-6.3-13.7-7.6-21.4c-0.6-3.4-0.4-6.7,2.3-9v-3.6c-1.5-1.2-1.9-3.1-1.8-4.8c0.1-3.6,0.3-7.4,1.2-10.8
	c2.6-9.5,7.3-17.8,11.9-26.2c4.5-8.2,8.8-16.5,12.9-25c5.2-10.8,8.7-22.4,10-34.5c1.7-15.5,0.8-30.8-6.2-45
	c-2.2-4.4-4.8-8.5-8.4-11.6c-6.4-5.6-15.4-2.5-17.6,5.9c-1,4-0.3,6.2,3.2,8.7c0.9-0.8,2-1.6,3.1-2.6c0.9,2.3,0.8,4.1-0.8,5.5
	c-1.5,1.3-3.2,1.1-4.9,0.3c-3.4-1.5-5.5-6.4-4.9-11.1c0.8-6.5,4.1-11,9.6-13.2c4.1-1.7,7.9-1.3,11.5,0.7l-6.7-6.7
	c-4.9-2.2-10-3.7-15.2-5c-15.1-3.7-29.1,0.6-42.8,7.3c-11.7,5.7-23.2,12-34.9,17.7c-10.4,5-21.3,7.5-32.6,8.8
	c-27,3.2-51.7-4.4-75.2-18.4c-1.2-0.7-2.5-1.3-3.7-2c-5.7-2.8-11.4-5.5-17-8.5c-1.9-1-3.4-1.3-5.3-0.3c-6.3,3.2-12.7,6.1-19,9.2
	c-1.6,0.8-3,1.9-4.5,2.8c-15.6,9.2-32.1,14.9-49.7,17.1c-23.1,2.9-44.6-2.7-65.4-13.3c-10.5-5.4-21-10.8-31.7-15.9
	c-8-3.8-16.4-6.2-25.2-5.8c-7.4,0.3-14.6,1.8-21.4,4.3c-2.7,2.7-5.4,5.4-8.1,8.1c0,0,0,0,0,0c9.7-4.5,20.7,4.4,19.7,15.8
	c-0.3,3.7-1.9,6.6-5,8.2c-1.8,1-3.7,0.7-5.2-1c-1.2-1.4-1.6-2.9-0.1-4.9c0.8,1.1,1.4,2.1,2.1,3c4.1-1.6,5.3-3.8,4.5-8
	C35.8,88.9,26.4,85,20,90.6c-4.6,4-8.1,9-10.2,15c-4.2,12-6.3,24.2-5,37.2c2,19.2,8,36.5,16.9,52.9c5.7,10.5,12.3,20.5,16.3,32.1
	c1.6,4.6,2.6,9.6,3.2,14.5c0.4,3.3-0.2,4.1-3.2,6.5c0.5,0.5,0.7,1.4,0.4,2.1c0.1,0.1,0.2,0.3,0.3,0.5c2.3,1.9,2.4,4.1,2.6,6.3
	c0.3,5.8-1.2,11.2-3.6,16.1c-3.8,8-7.9,15.8-12.2,23.4c-5.9,10.3-11.1,20.9-15.2,32.2c-5.2,14.3-7.6,29.2-6.3,44.6
	c1,11.3,4,21.8,10.2,31.1c3.2,4.8,7.3,7.1,12.9,7.1c5.1-0.1,9.5-6.1,9.6-11.7c0-2.2-0.8-4.2-2.7-5.2c-2-1.1-3,0.8-3.9,2.4
	c-1.9-2-1.3-3.5-0.2-4.9c1.1-1.4,2.6-1.8,4.2-1.3c3.3,1,5.5,4.2,6,8.5c0.9,8.5-6.5,20-18.7,16.2c-1.7-0.5-3.3-1.4-4.6-2.4
	c2.4,2.4,4.8,4.8,7.1,7.1c5.8,2.6,11.9,4.4,18.2,5.9c12.7,3.1,24.4-0.7,35.9-5.6c8.5-3.7,16.8-8.2,25-12.6
	c11.1-5.9,22.5-10.9,34.6-13.8c12.5-3,24.9-3.3,37.6-1.7c18.3,2.3,35.3,9.1,51.3,19c0.6,0.4,1.2,0.7,1.9,1
	c6.8,3.2,13.7,6.3,20.9,9.7c4.1-2.1,8.7-4.7,13.4-7.1c9.4-4.7,18.8-9.6,28.4-14c9.6-4.4,19.7-6.9,30-8.5c19-2.9,37.6-0.4,55.6,6.8
	c4.9,2,9.6,4.4,14.3,6.8c10.4,5.2,20.7,10.7,31.2,15.5c7.7,3.5,15.8,6.2,24.2,5.7c8.1-0.4,15.9-2,23.3-5l6.1-6.1
	C471.1,417.7,465.8,415.9,462.2,409.9z M41.8,250.2c4.1-4.4,5.2-4.4,10.6-0.1C46.8,253.9,46.8,253.9,41.8,250.2z M448.1,250.2
	c4.1-4.4,6.2-3.9,10.4-0.3C453.7,254.2,453.3,254.2,448.1,250.2z"/>
<g>
	
		<linearGradient id="SVGID_1_" gradientUnits="userSpaceOnUse" x1="-167.5534" y1="92.3798" x2="643.9883" y2="382.1814" gradientTransform="matrix(1 0 0 -1 0 500)">
		<stop  offset="0" style="stop-color:#00AEEF"/>
		<stop  offset="0.2598" style="stop-color:#262262"/>
		<stop  offset="0.5056" style="stop-color:#00AEEF"/>
		<stop  offset="0.7635" style="stop-color:#2E3192"/>
		<stop  offset="0.9944" style="stop-color:#00AEEF"/>
	</linearGradient>
	<path class="st1" d="M499.6,165.4v7.9C499.8,170.7,499.8,168.1,499.6,165.4z"/>
	
		<linearGradient id="SVGID_00000062901520249225607350000006066108528687107518_" gradientUnits="userSpaceOnUse" x1="-112.6813" y1="-50.8314" x2="690.657" y2="236.0407" gradientTransform="matrix(1 0 0 -1 0 500)">
		<stop  offset="0" style="stop-color:#00AEEF"/>
		<stop  offset="0.2598" style="stop-color:#262262"/>
		<stop  offset="0.5056" style="stop-color:#00AEEF"/>
		<stop  offset="0.7635" style="stop-color:#2E3192"/>
		<stop  offset="0.9944" style="stop-color:#00AEEF"/>
	</linearGradient>
	
		<path style="fill:url(#SVGID_00000062901520249225607350000006066108528687107518_);stroke:#000000;stroke-width:2;stroke-miterlimit:10;" d="
		M499.6,323.9v16.5C500.1,334.9,500.1,329.3,499.6,323.9z"/>
	
		<linearGradient id="SVGID_00000179636618729477435580000015475196723302503831_" gradientUnits="userSpaceOnUse" x1="-92.0995" y1="-54.4996" x2="696.8098" y2="227.2198" gradientTransform="matrix(1 0 0 -1 0 500)">
		<stop  offset="0" style="stop-color:#00AEEF"/>
		<stop  offset="0.2598" style="stop-color:#262262"/>
		<stop  offset="0.5056" style="stop-color:#00AEEF"/>
		<stop  offset="0.7635" style="stop-color:#2E3192"/>
		<stop  offset="0.9944" style="stop-color:#00AEEF"/>
	</linearGradient>
	
		<path style="fill:url(#SVGID_00000179636618729477435580000015475196723302503831_);stroke:#000000;stroke-width:2;stroke-miterlimit:10;" d="
		M197,449.6c-0.7,1.2-0.7,3.2-0.7,4.7c0,0.6,1.1,1.4,1.8,1.6c0.4,0.1,1.3-0.5,1.6-1.1c1.5-3.4,2.8-6.8,4.7-11.4
		C200.5,445,198.5,447.1,197,449.6z"/>
	
		<linearGradient id="SVGID_00000018198367550921146140000016981628028857127571_" gradientUnits="userSpaceOnUse" x1="21.5097" y1="-13.9298" x2="600.8203" y2="192.942" gradientTransform="matrix(1 0 0 -1 0 500)">
		<stop  offset="0" style="stop-color:#99FF99"/>
		<stop  offset="0.2598" style="stop-color:#003300"/>
		<stop  offset="0.5076" style="stop-color:#66FF66"/>
		<stop  offset="0.7441" style="stop-color:#336633"/>
		<stop  offset="0.9948" style="stop-color:#00FF33"/>
	</linearGradient>
	<path style="fill:url(#SVGID_00000018198367550921146140000016981628028857127571_);" d="M197,449.6c-0.7,1.2-0.7,3.2-0.7,4.7
		c0,0.6,1.1,1.4,1.8,1.6c0.4,0.1,1.3-0.5,1.6-1.1c1.5-3.4,2.8-6.8,4.7-11.4C200.5,445,198.5,447.1,197,449.6z"/>
	
		<linearGradient id="SVGID_00000175288714687390762320000017440683682827065007_" gradientUnits="userSpaceOnUse" x1="-90.3632" y1="-47.4889" x2="689.6144" y2="231.0411" gradientTransform="matrix(1 0 0 -1 0 500)">
		<stop  offset="0" style="stop-color:#00AEEF"/>
		<stop  offset="0.2598" style="stop-color:#262262"/>
		<stop  offset="0.5056" style="stop-color:#00AEEF"/>
		<stop  offset="0.7635" style="stop-color:#2E3192"/>
		<stop  offset="0.9944" style="stop-color:#00AEEF"/>
	</linearGradient>
	
		<path style="fill:url(#SVGID_00000175288714687390762320000017440683682827065007_);stroke:#000000;stroke-width:2;stroke-miterlimit:10;" d="
		M169.8,451.9c-0.5,0.8-1,1.6-1.2,2.5c-0.6,1.8-0.5,3.5,1.1,4.6c1.5,1,2.6-0.3,3.5-1.4c2.9-3.2,5.7-6.5,8.5-9.8
		c0.2-0.2,0.1-0.7,0.1-1.1C177.5,445.9,172.4,448,169.8,451.9z"/>
	
		<linearGradient id="SVGID_00000173123590533825440120000010656329709154477451_" gradientUnits="userSpaceOnUse" x1="19.4857" y1="-8.2619" x2="598.7963" y2="198.6099" gradientTransform="matrix(1 0 0 -1 0 500)">
		<stop  offset="0" style="stop-color:#99FF99"/>
		<stop  offset="0.2598" style="stop-color:#003300"/>
		<stop  offset="0.5076" style="stop-color:#66FF66"/>
		<stop  offset="0.7441" style="stop-color:#336633"/>
		<stop  offset="0.9948" style="stop-color:#00FF33"/>
	</linearGradient>
	<path style="fill:url(#SVGID_00000173123590533825440120000010656329709154477451_);" d="M169.8,451.9c-0.5,0.8-1,1.6-1.2,2.5
		c-0.6,1.8-0.5,3.5,1.1,4.6c1.5,1,2.6-0.3,3.5-1.4c2.9-3.2,5.7-6.5,8.5-9.8c0.2-0.2,0.1-0.7,0.1-1.1
		C177.5,445.9,172.4,448,169.8,451.9z"/>
	
		<linearGradient id="SVGID_00000111162356201178976110000010245728207091353730_" gradientUnits="userSpaceOnUse" x1="-144.0232" y1="102.5032" x2="667.0579" y2="392.1403" gradientTransform="matrix(1 0 0 -1 0 500)">
		<stop  offset="0" style="stop-color:#00AEEF"/>
		<stop  offset="0.2598" style="stop-color:#262262"/>
		<stop  offset="0.5056" style="stop-color:#00AEEF"/>
		<stop  offset="0.7635" style="stop-color:#2E3192"/>
		<stop  offset="0.9944" style="stop-color:#00AEEF"/>
	</linearGradient>
	
		<path style="fill:url(#SVGID_00000111162356201178976110000010245728207091353730_);stroke:#000000;stroke-width:2;stroke-miterlimit:10;" d="
		M21.5,416.3c12.3,3.8,19.6-7.7,18.7-16.2c-0.5-4.3-2.7-7.6-6-8.5c-1.7-0.5-3.1-0.2-4.2,1.3c-1.1,1.4-1.7,2.9,0.2,4.9
		c0.9-1.6,1.9-3.5,3.9-2.4c1.9,1,2.7,3,2.7,5.2c-0.1,5.6-4.5,11.6-9.6,11.7c-5.5,0.1-9.6-2.2-12.9-7.1c-6.2-9.2-9.2-19.8-10.2-31.1
		c-1.3-15.4,1.1-30.3,6.3-44.6c4.1-11.3,9.3-21.9,15.2-32.2c4.4-7.6,8.4-15.5,12.2-23.4c2.4-4.9,3.9-10.3,3.6-16.1
		c-0.1-2.3-0.3-4.5-2.9-6.5c1.3,9.1-2,16.3-5.3,23.4c-3,6.3-6.4,12.3-9.7,18.4c-4.6,8.4-9.5,16.5-12.6,25.8c-1.5,4.3-3,8.6-4.3,13
		c-1.2,4.1-2.2,8.4-3.4,13.4c-0.3-15.8,1.9-30,8.7-43.1c2.5-4.8,5.4-9.4,8.4-13.9c4.3-6.5,8.7-12.9,11.7-20.4
		c1.8-4.5,2.9-9,1.6-13.9c-1.1,6.7-3.6,12.6-7.1,17.9c-2.5,3.9-5.3,7.6-8.1,11.2c-5.3,6.9-10.1,14.1-13.4,22.5
		c-3.4,8.6-4.6,17.8-4.8,27c-0.1,5.3,1.1,10.7,1.7,16c0.2,1.9,0.4,3.8,0.2,5.6c-0.6,8.4-1.7,16.8-0.4,25.3
		c1.3,8.6,3.4,16.9,7.5,24.4C12,409.4,15.6,414.4,21.5,416.3z"/>
	
		<linearGradient id="SVGID_00000170965746643426345870000007525142694516344480_" gradientUnits="userSpaceOnUse" x1="-34.0876" y1="141.7612" x2="545.223" y2="348.633" gradientTransform="matrix(1 0 0 -1 0 500)">
		<stop  offset="0" style="stop-color:#99FF99"/>
		<stop  offset="0.2598" style="stop-color:#003300"/>
		<stop  offset="0.5076" style="stop-color:#66FF66"/>
		<stop  offset="0.7441" style="stop-color:#336633"/>
		<stop  offset="0.9948" style="stop-color:#00FF33"/>
	</linearGradient>
	<path style="fill:url(#SVGID_00000170965746643426345870000007525142694516344480_);" d="M21.5,416.3c12.3,3.8,19.6-7.7,18.7-16.2
		c-0.5-4.3-2.7-7.6-6-8.5c-1.7-0.5-3.1-0.2-4.2,1.3c-1.1,1.4-1.7,2.9,0.2,4.9c0.9-1.6,1.9-3.5,3.9-2.4c1.9,1,2.7,3,2.7,5.2
		c-0.1,5.6-4.5,11.6-9.6,11.7c-5.5,0.1-9.6-2.2-12.9-7.1c-6.2-9.2-9.2-19.8-10.2-31.1c-1.3-15.4,1.1-30.3,6.3-44.6
		c4.1-11.3,9.3-21.9,15.2-32.2c4.4-7.6,8.4-15.5,12.2-23.4c2.4-4.9,3.9-10.3,3.6-16.1c-0.1-2.3-0.3-4.5-2.9-6.5
		c1.3,9.1-2,16.3-5.3,23.4c-3,6.3-6.4,12.3-9.7,18.4c-4.6,8.4-9.5,16.5-12.6,25.8c-1.5,4.3-3,8.6-4.3,13c-1.2,4.1-2.2,8.4-3.4,13.4
		c-0.3-15.8,1.9-30,8.7-43.1c2.5-4.8,5.4-9.4,8.4-13.9c4.3-6.5,8.7-12.9,11.7-20.4c1.8-4.5,2.9-9,1.6-13.9
		c-1.1,6.7-3.6,12.6-7.1,17.9c-2.5,3.9-5.3,7.6-8.1,11.2c-5.3,6.9-10.1,14.1-13.4,22.5c-3.4,8.6-4.6,17.8-4.8,27
		c-0.1,5.3,1.1,10.7,1.7,16c0.2,1.9,0.4,3.8,0.2,5.6c-0.6,8.4-1.7,16.8-0.4,25.3c1.3,8.6,3.4,16.9,7.5,24.4
		C12,409.4,15.6,414.4,21.5,416.3z"/>
	
		<linearGradient id="SVGID_00000160873296312878289120000007866099894453466757_" gradientUnits="userSpaceOnUse" x1="-86.1571" y1="-40.5675" x2="677.6821" y2="232.1994" gradientTransform="matrix(1 0 0 -1 0 500)">
		<stop  offset="0" style="stop-color:#00AEEF"/>
		<stop  offset="0.2598" style="stop-color:#262262"/>
		<stop  offset="0.5056" style="stop-color:#00AEEF"/>
		<stop  offset="0.7635" style="stop-color:#2E3192"/>
		<stop  offset="0.9944" style="stop-color:#00AEEF"/>
	</linearGradient>
	
		<path style="fill:url(#SVGID_00000160873296312878289120000007866099894453466757_);stroke:#000000;stroke-width:2;stroke-miterlimit:10;" d="
		M198.8,439.7c-12.9,0-25.8-0.5-38.7-0.7c-1,0-1.9,0.6-2.9,0.9c12.2,2.9,24.3,5,36.5,4.6c-2.2,1.4-4.5,2.6-6.7,4.1
		c-1.8,1.3-2.9,3.3-2.8,5.7c0.1,1,0.7,2.1,1.5,2.7c0.4,0.3,1.7-0.2,2.2-0.8c2.8-3.5,5.5-7.1,8.5-11.2c-1.2-0.2-2-0.3-2.8-0.5
		c0.8-0.3,1.6-0.7,2.4-0.9c3.9-0.9,7.8-1.5,11.6-2.7c2.5-0.7,5.1-1.4,7.9-4.6c-3,0.7-4.8,1.2-6.6,1.6
		C205.6,438.5,202.2,439.7,198.8,439.7z"/>
	
		<linearGradient id="SVGID_00000101787781118880322680000017839933080962796213_" gradientUnits="userSpaceOnUse" x1="17.7692" y1="-3.4554" x2="597.0798" y2="203.4164" gradientTransform="matrix(1 0 0 -1 0 500)">
		<stop  offset="0" style="stop-color:#99FF99"/>
		<stop  offset="0.2598" style="stop-color:#003300"/>
		<stop  offset="0.5076" style="stop-color:#66FF66"/>
		<stop  offset="0.7441" style="stop-color:#336633"/>
		<stop  offset="0.9948" style="stop-color:#00FF33"/>
	</linearGradient>
	<path style="fill:url(#SVGID_00000101787781118880322680000017839933080962796213_);" d="M198.8,439.7c-12.9,0-25.8-0.5-38.7-0.7
		c-1,0-1.9,0.6-2.9,0.9c12.2,2.9,24.3,5,36.5,4.6c-2.2,1.4-4.5,2.6-6.7,4.1c-1.8,1.3-2.9,3.3-2.8,5.7c0.1,1,0.7,2.1,1.5,2.7
		c0.4,0.3,1.7-0.2,2.2-0.8c2.8-3.5,5.5-7.1,8.5-11.2c-1.2-0.2-2-0.3-2.8-0.5c0.8-0.3,1.6-0.7,2.4-0.9c3.9-0.9,7.8-1.5,11.6-2.7
		c2.5-0.7,5.1-1.4,7.9-4.6c-3,0.7-4.8,1.2-6.6,1.6C205.6,438.5,202.2,439.7,198.8,439.7z"/>
	
		<linearGradient id="SVGID_00000084508665083881914260000001361258650383756427_" gradientUnits="userSpaceOnUse" x1="-58.551" y1="-88.1051" x2="685.6385" y2="177.645" gradientTransform="matrix(1 0 0 -1 0 500)">
		<stop  offset="0" style="stop-color:#00AEEF"/>
		<stop  offset="0.2598" style="stop-color:#262262"/>
		<stop  offset="0.5056" style="stop-color:#00AEEF"/>
		<stop  offset="0.7635" style="stop-color:#2E3192"/>
		<stop  offset="0.9944" style="stop-color:#00AEEF"/>
	</linearGradient>
	
		<path style="fill:url(#SVGID_00000084508665083881914260000001361258650383756427_);stroke:#000000;stroke-width:2;stroke-miterlimit:10;" d="
		M314.9,445.9c4.2,4.7,7.5,8.5,10.9,12.2c0.5,0.6,1.8,1,2.2,0.7c0.7-0.6,1.5-1.8,1.4-2.7c-0.2-1.6-0.6-3.6-1.6-4.7
		C324.7,447.7,320.7,445.9,314.9,445.9z"/>
	
		<linearGradient id="SVGID_00000118367553730311620740000008406880312998649786_" gradientUnits="userSpaceOnUse" x1="35.9472" y1="-54.3598" x2="615.2578" y2="152.512" gradientTransform="matrix(1 0 0 -1 0 500)">
		<stop  offset="0" style="stop-color:#99FF99"/>
		<stop  offset="0.2598" style="stop-color:#003300"/>
		<stop  offset="0.5076" style="stop-color:#66FF66"/>
		<stop  offset="0.7441" style="stop-color:#336633"/>
		<stop  offset="0.9948" style="stop-color:#00FF33"/>
	</linearGradient>
	<path style="fill:url(#SVGID_00000118367553730311620740000008406880312998649786_);" d="M314.9,445.9c4.2,4.7,7.5,8.5,10.9,12.2
		c0.5,0.6,1.8,1,2.2,0.7c0.7-0.6,1.5-1.8,1.4-2.7c-0.2-1.6-0.6-3.6-1.6-4.7C324.7,447.7,320.7,445.9,314.9,445.9z"/>
	
		<linearGradient id="SVGID_00000155826802010688153590000005093770593462900630_" gradientUnits="userSpaceOnUse" x1="-70.9501" y1="-78.3333" x2="689.3539" y2="193.1713" gradientTransform="matrix(1 0 0 -1 0 500)">
		<stop  offset="0" style="stop-color:#00AEEF"/>
		<stop  offset="0.2598" style="stop-color:#262262"/>
		<stop  offset="0.5056" style="stop-color:#00AEEF"/>
		<stop  offset="0.7635" style="stop-color:#2E3192"/>
		<stop  offset="0.9944" style="stop-color:#00AEEF"/>
	</linearGradient>
	
		<path style="fill:url(#SVGID_00000155826802010688153590000005093770593462900630_);stroke:#000000;stroke-width:2;stroke-miterlimit:10;" d="
		M305.2,439.9c-6.4,0.1-12.7-0.9-18.9-2.9c-1-0.3-2.2-0.3-3.3-0.5c3.3,3.4,7.3,4.5,11.2,5.7c3.1,0.9,6.3,1.5,9.5,2.2
		c-0.6,0.4-1.3,0.8-2,1.2c2.9,3.7,5.4,7.1,8.1,10.3c0.5,0.7,2.2,1.1,2.6,0.7c0.8-0.7,1.4-2.2,1.3-3.3c-0.3-2.6-1.9-4.5-4-5.7
		c-2-1.1-4-2.2-6-3.3c12.2,0.3,24.1-1.6,36-4.3c-2.4-0.5-4.8-0.5-7.2-0.5C323.5,439.7,314.3,439.8,305.2,439.9z"/>
	
		<linearGradient id="SVGID_00000036233263357402924900000001424382157697344941_" gradientUnits="userSpaceOnUse" x1="31.45" y1="-41.7662" x2="610.7606" y2="165.1057" gradientTransform="matrix(1 0 0 -1 0 500)">
		<stop  offset="0" style="stop-color:#99FF99"/>
		<stop  offset="0.2598" style="stop-color:#003300"/>
		<stop  offset="0.5076" style="stop-color:#66FF66"/>
		<stop  offset="0.7441" style="stop-color:#336633"/>
		<stop  offset="0.9948" style="stop-color:#00FF33"/>
	</linearGradient>
	<path style="fill:url(#SVGID_00000036233263357402924900000001424382157697344941_);" d="M305.2,439.9c-6.4,0.1-12.7-0.9-18.9-2.9
		c-1-0.3-2.2-0.3-3.3-0.5c3.3,3.4,7.3,4.5,11.2,5.7c3.1,0.9,6.3,1.5,9.5,2.2c-0.6,0.4-1.3,0.8-2,1.2c2.9,3.7,5.4,7.1,8.1,10.3
		c0.5,0.7,2.2,1.1,2.6,0.7c0.8-0.7,1.4-2.2,1.3-3.3c-0.3-2.6-1.9-4.5-4-5.7c-2-1.1-4-2.2-6-3.3c12.2,0.3,24.1-1.6,36-4.3
		c-2.4-0.5-4.8-0.5-7.2-0.5C323.5,439.7,314.3,439.8,305.2,439.9z"/>
	
		<linearGradient id="SVGID_00000018935082476247548510000013200564960765904017_" gradientUnits="userSpaceOnUse" x1="-156.5208" y1="177.5283" x2="605.9679" y2="449.813" gradientTransform="matrix(1 0 0 -1 0 500)">
		<stop  offset="0" style="stop-color:#00AEEF"/>
		<stop  offset="0.2598" style="stop-color:#262262"/>
		<stop  offset="0.5056" style="stop-color:#00AEEF"/>
		<stop  offset="0.7635" style="stop-color:#2E3192"/>
		<stop  offset="0.9944" style="stop-color:#00AEEF"/>
	</linearGradient>
	
		<path style="fill:url(#SVGID_00000018935082476247548510000013200564960765904017_);stroke:#000000;stroke-width:2;stroke-miterlimit:10;" d="
		M41.8,250.2c5,3.8,5,3.8,10.6-0.1C47,245.7,45.9,245.8,41.8,250.2z"/>
	
		<linearGradient id="SVGID_00000168082294283839573000000010595287790693028256_" gradientUnits="userSpaceOnUse" x1="-59.2625" y1="212.2593" x2="520.0482" y2="419.1311" gradientTransform="matrix(1 0 0 -1 0 500)">
		<stop  offset="0" style="stop-color:#99FF99"/>
		<stop  offset="0.2598" style="stop-color:#003300"/>
		<stop  offset="0.5076" style="stop-color:#66FF66"/>
		<stop  offset="0.7441" style="stop-color:#336633"/>
		<stop  offset="0.9948" style="stop-color:#00FF33"/>
	</linearGradient>
	<path style="fill:url(#SVGID_00000168082294283839573000000010595287790693028256_);" d="M41.8,250.2c5,3.8,5,3.8,10.6-0.1
		C47,245.7,45.9,245.8,41.8,250.2z"/>
	
		<linearGradient id="SVGID_00000013173214931712649640000018020554754599264441_" gradientUnits="userSpaceOnUse" x1="-53.598" y1="-74.6224" x2="671.8803" y2="184.4458" gradientTransform="matrix(1 0 0 -1 0 500)">
		<stop  offset="0" style="stop-color:#00AEEF"/>
		<stop  offset="0.2598" style="stop-color:#262262"/>
		<stop  offset="0.5056" style="stop-color:#00AEEF"/>
		<stop  offset="0.7635" style="stop-color:#2E3192"/>
		<stop  offset="0.9944" style="stop-color:#00AEEF"/>
	</linearGradient>
	
		<path style="fill:url(#SVGID_00000013173214931712649640000018020554754599264441_);stroke:#000000;stroke-width:2;stroke-miterlimit:10;" d="
		M293.2,443.2c1.9,4.5,3.1,7.7,4.6,10.9c0.4,0.8,1.5,1.2,2.3,1.8c0.5-1.1,1.4-2.1,1.5-3.2c0.1-1.2-0.5-2.6-1.1-3.7
		C299.1,446.3,296.9,444.7,293.2,443.2z"/>
	
		<linearGradient id="SVGID_00000020383519704658256390000014150784340929260935_" gradientUnits="userSpaceOnUse" x1="32.2373" y1="-43.9707" x2="611.5479" y2="162.9011" gradientTransform="matrix(1 0 0 -1 0 500)">
		<stop  offset="0" style="stop-color:#99FF99"/>
		<stop  offset="0.2598" style="stop-color:#003300"/>
		<stop  offset="0.5076" style="stop-color:#66FF66"/>
		<stop  offset="0.7441" style="stop-color:#336633"/>
		<stop  offset="0.9948" style="stop-color:#00FF33"/>
	</linearGradient>
	<path style="fill:url(#SVGID_00000020383519704658256390000014150784340929260935_);" d="M293.2,443.2c1.9,4.5,3.1,7.7,4.6,10.9
		c0.4,0.8,1.5,1.2,2.3,1.8c0.5-1.1,1.4-2.1,1.5-3.2c0.1-1.2-0.5-2.6-1.1-3.7C299.1,446.3,296.9,444.7,293.2,443.2z"/>
	
		<linearGradient id="SVGID_00000026844659071744020670000001392998662802312072_" gradientUnits="userSpaceOnUse" x1="-163.5498" y1="193.4856" x2="604.6643" y2="467.8148" gradientTransform="matrix(1 0 0 -1 0 500)">
		<stop  offset="0" style="stop-color:#00AEEF"/>
		<stop  offset="0.2598" style="stop-color:#262262"/>
		<stop  offset="0.5056" style="stop-color:#00AEEF"/>
		<stop  offset="0.7635" style="stop-color:#2E3192"/>
		<stop  offset="0.9944" style="stop-color:#00AEEF"/>
	</linearGradient>
	
		<path style="fill:url(#SVGID_00000026844659071744020670000001392998662802312072_);stroke:#000000;stroke-width:2;stroke-miterlimit:10;" d="
		M27.8,249.3c-1.1-1.2-2.2-2.3-3.2-3.4c0.6-0.8,1.2-1.5,1.9-2.4c-1.1-0.8-1.9-1.5-2.8-2c-2.8-1.5-4.1-4-4.2-7.4
		c0-0.8,0.1-1.6-0.1-2.3c-0.4-1.2-1-3-1.7-3.1c-1.1-0.2-2.7,0.5-3.5,1.4c-2.5,2.7-2.6,6.7,0,9.9c1.6,2,3.9,3.5,6.5,5.8
		c-2.5-0.8-4.3-1.5-6.1-1.9c-1.1-0.3-2.5-0.7-3.5-0.2c-3.1,1.6-5.9,3.6-9.1,5.6c2.3,3.8,5.5,4.8,8.4,6.3c2.2,1.2,14.8-2,16.6-4
		C27.4,251,27.5,250.1,27.8,249.3z"/>
	
		<linearGradient id="SVGID_00000183964086818095058320000016451056374872066697_" gradientUnits="userSpaceOnUse" x1="-65.1113" y1="228.638" x2="514.1993" y2="435.5098" gradientTransform="matrix(1 0 0 -1 0 500)">
		<stop  offset="0" style="stop-color:#99FF99"/>
		<stop  offset="0.2598" style="stop-color:#003300"/>
		<stop  offset="0.5076" style="stop-color:#66FF66"/>
		<stop  offset="0.7441" style="stop-color:#336633"/>
		<stop  offset="0.9948" style="stop-color:#00FF33"/>
	</linearGradient>
	<path style="fill:url(#SVGID_00000183964086818095058320000016451056374872066697_);" d="M27.8,249.3c-1.1-1.2-2.2-2.3-3.2-3.4
		c0.6-0.8,1.2-1.5,1.9-2.4c-1.1-0.8-1.9-1.5-2.8-2c-2.8-1.5-4.1-4-4.2-7.4c0-0.8,0.1-1.6-0.1-2.3c-0.4-1.2-1-3-1.7-3.1
		c-1.1-0.2-2.7,0.5-3.5,1.4c-2.5,2.7-2.6,6.7,0,9.9c1.6,2,3.9,3.5,6.5,5.8c-2.5-0.8-4.3-1.5-6.1-1.9c-1.1-0.3-2.5-0.7-3.5-0.2
		c-3.1,1.6-5.9,3.6-9.1,5.6c2.3,3.8,5.5,4.8,8.4,6.3c2.2,1.2,14.8-2,16.6-4C27.4,251,27.5,250.1,27.8,249.3z"/>
	
		<linearGradient id="SVGID_00000159468885783188539180000007304742598932918445_" gradientUnits="userSpaceOnUse" x1="-182.693" y1="267.186" x2="581.1049" y2="539.9383" gradientTransform="matrix(1 0 0 -1 0 500)">
		<stop  offset="0" style="stop-color:#00AEEF"/>
		<stop  offset="0.2598" style="stop-color:#262262"/>
		<stop  offset="0.5056" style="stop-color:#00AEEF"/>
		<stop  offset="0.7635" style="stop-color:#2E3192"/>
		<stop  offset="0.9944" style="stop-color:#00AEEF"/>
	</linearGradient>
	
		<path style="fill:url(#SVGID_00000159468885783188539180000007304742598932918445_);stroke:#000000;stroke-width:2;stroke-miterlimit:10;" d="
		M310.4,59.4c8.1,0.3,16.2,0.7,24.3,1c1.7,0.1,3.5-0.1,5.2-0.2c-11.9-3.2-23.8-5.2-36.6-4.6c2.5-1.3,4.4-1.8,5.8-3.1
		c1.7-1.5,3.2-3.4,4.3-5.5c1.1-1.9,0.4-3.7-1.9-4.7c-0.6,0.5-1.3,1-1.8,1.7c-2,2.4-4.2,4.7-5.7,7.4c-2.5,4.4-6.2,5.4-10.3,6.4
		c-3.8,0.9-7.7,2-10.6,5.8c0.8-0.2,1.6-0.2,2.4-0.5C293.5,60.5,301.9,59.1,310.4,59.4z"/>
	
		<linearGradient id="SVGID_00000083055434434318463410000007064914087034208703_" gradientUnits="userSpaceOnUse" x1="-90.6182" y1="300.0659" x2="488.6924" y2="506.9378" gradientTransform="matrix(1 0 0 -1 0 500)">
		<stop  offset="0" style="stop-color:#99FF99"/>
		<stop  offset="0.2598" style="stop-color:#003300"/>
		<stop  offset="0.5076" style="stop-color:#66FF66"/>
		<stop  offset="0.7441" style="stop-color:#336633"/>
		<stop  offset="0.9948" style="stop-color:#00FF33"/>
	</linearGradient>
	<path style="fill:url(#SVGID_00000083055434434318463410000007064914087034208703_);" d="M310.4,59.4c8.1,0.3,16.2,0.7,24.3,1
		c1.7,0.1,3.5-0.1,5.2-0.2c-11.9-3.2-23.8-5.2-36.6-4.6c2.5-1.3,4.4-1.8,5.8-3.1c1.7-1.5,3.2-3.4,4.3-5.5c1.1-1.9,0.4-3.7-1.9-4.7
		c-0.6,0.5-1.3,1-1.8,1.7c-2,2.4-4.2,4.7-5.7,7.4c-2.5,4.4-6.2,5.4-10.3,6.4c-3.8,0.9-7.7,2-10.6,5.8c0.8-0.2,1.6-0.2,2.4-0.5
		C293.5,60.5,301.9,59.1,310.4,59.4z"/>
	
		<linearGradient id="SVGID_00000084493840607917205910000007039792426977472409_" gradientUnits="userSpaceOnUse" x1="-186.8339" y1="316.6852" x2="554.4686" y2="581.4042" gradientTransform="matrix(1 0 0 -1 0 500)">
		<stop  offset="0" style="stop-color:#00AEEF"/>
		<stop  offset="0.2598" style="stop-color:#262262"/>
		<stop  offset="0.5056" style="stop-color:#00AEEF"/>
		<stop  offset="0.7635" style="stop-color:#2E3192"/>
		<stop  offset="0.9944" style="stop-color:#00AEEF"/>
	</linearGradient>
	
		<path style="fill:url(#SVGID_00000084493840607917205910000007039792426977472409_);stroke:#000000;stroke-width:2;stroke-miterlimit:10;" d="
		M196.1,54.5c-2.3-3-3.8-4.9-5.4-7c-1.5-1.9-2.4-4.6-5-5.1c-1.7,3.5-1.9,4.4-0.6,6.3C187.5,52.4,190.8,54.4,196.1,54.5z"/>
	
		<linearGradient id="SVGID_00000067200236700365260540000012627467764799772325_" gradientUnits="userSpaceOnUse" x1="-106.7635" y1="345.2783" x2="472.5471" y2="552.1501" gradientTransform="matrix(1 0 0 -1 0 500)">
		<stop  offset="0" style="stop-color:#99FF99"/>
		<stop  offset="0.2598" style="stop-color:#003300"/>
		<stop  offset="0.5076" style="stop-color:#66FF66"/>
		<stop  offset="0.7441" style="stop-color:#336633"/>
		<stop  offset="0.9948" style="stop-color:#00FF33"/>
	</linearGradient>
	<path style="fill:url(#SVGID_00000067200236700365260540000012627467764799772325_);" d="M196.1,54.5c-2.3-3-3.8-4.9-5.4-7
		c-1.5-1.9-2.4-4.6-5-5.1c-1.7,3.5-1.9,4.4-0.6,6.3C187.5,52.4,190.8,54.4,196.1,54.5z"/>
	
		<linearGradient id="SVGID_00000158722651149945725110000012427994860933708162_" gradientUnits="userSpaceOnUse" x1="-203.188" y1="271.4997" x2="587.8012" y2="553.9619" gradientTransform="matrix(1 0 0 -1 0 500)">
		<stop  offset="0" style="stop-color:#00AEEF"/>
		<stop  offset="0.2598" style="stop-color:#262262"/>
		<stop  offset="0.5056" style="stop-color:#00AEEF"/>
		<stop  offset="0.7635" style="stop-color:#2E3192"/>
		<stop  offset="0.9944" style="stop-color:#00AEEF"/>
	</linearGradient>
	
		<path style="fill:url(#SVGID_00000158722651149945725110000012427994860933708162_);stroke:#000000;stroke-width:2;stroke-miterlimit:10;" d="
		M300.3,43.8c-2.2,1.6-5.2,7.6-6.2,12.1C300.5,53.5,303,48.8,300.3,43.8z"/>
	
		<linearGradient id="SVGID_00000147942775512102056530000016543237206061086851_" gradientUnits="userSpaceOnUse" x1="-94.3023" y1="310.3827" x2="485.0082" y2="517.2545" gradientTransform="matrix(1 0 0 -1 0 500)">
		<stop  offset="0" style="stop-color:#99FF99"/>
		<stop  offset="0.2598" style="stop-color:#003300"/>
		<stop  offset="0.5076" style="stop-color:#66FF66"/>
		<stop  offset="0.7441" style="stop-color:#336633"/>
		<stop  offset="0.9948" style="stop-color:#00FF33"/>
	</linearGradient>
	<path style="fill:url(#SVGID_00000147942775512102056530000016543237206061086851_);" d="M300.3,43.8c-2.2,1.6-5.2,7.6-6.2,12.1
		C300.5,53.5,303,48.8,300.3,43.8z"/>
	
		<linearGradient id="SVGID_00000128448629411150159520000017131753400976047764_" gradientUnits="userSpaceOnUse" x1="-160.2289" y1="172.5428" x2="621.8109" y2="451.8091" gradientTransform="matrix(1 0 0 -1 0 500)">
		<stop  offset="0" style="stop-color:#00AEEF"/>
		<stop  offset="0.2598" style="stop-color:#262262"/>
		<stop  offset="0.5056" style="stop-color:#00AEEF"/>
		<stop  offset="0.7635" style="stop-color:#2E3192"/>
		<stop  offset="0.9944" style="stop-color:#00AEEF"/>
	</linearGradient>
	
		<path style="fill:url(#SVGID_00000128448629411150159520000017131753400976047764_);stroke:#000000;stroke-width:2;stroke-miterlimit:10;" d="
		M25.8,256.9c0.2-0.1,0.2-0.7,0.3-1.4c-6.3-1.2-11,1.2-13.2,6.6c-1.3,3.2-0.5,6.9,2,8.7c2.2,1.7,4.5,0.8,4.4-2.1
		C18.9,262.8,21.2,259.2,25.8,256.9z"/>
	
		<linearGradient id="SVGID_00000010270680627141352980000018304454739142076825_" gradientUnits="userSpaceOnUse" x1="-58.1029" y1="209.012" x2="521.2078" y2="415.8838" gradientTransform="matrix(1 0 0 -1 0 500)">
		<stop  offset="0" style="stop-color:#99FF99"/>
		<stop  offset="0.2598" style="stop-color:#003300"/>
		<stop  offset="0.5076" style="stop-color:#66FF66"/>
		<stop  offset="0.7441" style="stop-color:#336633"/>
		<stop  offset="0.9948" style="stop-color:#00FF33"/>
	</linearGradient>
	<path style="fill:url(#SVGID_00000010270680627141352980000018304454739142076825_);" d="M25.8,256.9c0.2-0.1,0.2-0.7,0.3-1.4
		c-6.3-1.2-11,1.2-13.2,6.6c-1.3,3.2-0.5,6.9,2,8.7c2.2,1.7,4.5,0.8,4.4-2.1C18.9,262.8,21.2,259.2,25.8,256.9z"/>
	
		<linearGradient id="SVGID_00000181067905654092864420000006668703439374924961_" gradientUnits="userSpaceOnUse" x1="-194.3192" y1="268.027" x2="585.2578" y2="546.414" gradientTransform="matrix(1 0 0 -1 0 500)">
		<stop  offset="0" style="stop-color:#00AEEF"/>
		<stop  offset="0.2598" style="stop-color:#262262"/>
		<stop  offset="0.5056" style="stop-color:#00AEEF"/>
		<stop  offset="0.7635" style="stop-color:#2E3192"/>
		<stop  offset="0.9944" style="stop-color:#00AEEF"/>
	</linearGradient>
	
		<path style="fill:url(#SVGID_00000181067905654092864420000006668703439374924961_);stroke:#000000;stroke-width:2;stroke-miterlimit:10;" d="
		M328.8,46.8c1.4-2.1,1.2-4.2-1.4-6.2c-4,4.1-7.8,7.9-11.5,11.8c-0.2,0.2-0.1,0.7-0.2,1.5C321.2,53.9,325.6,51.7,328.8,46.8z"/>
	
		<linearGradient id="SVGID_00000098198920655860845740000015761829804836801948_" gradientUnits="userSpaceOnUse" x1="-92.1995" y1="304.494" x2="487.1111" y2="511.3658" gradientTransform="matrix(1 0 0 -1 0 500)">
		<stop  offset="0" style="stop-color:#99FF99"/>
		<stop  offset="0.2598" style="stop-color:#003300"/>
		<stop  offset="0.5076" style="stop-color:#66FF66"/>
		<stop  offset="0.7441" style="stop-color:#336633"/>
		<stop  offset="0.9948" style="stop-color:#00FF33"/>
	</linearGradient>
	<path style="fill:url(#SVGID_00000098198920655860845740000015761829804836801948_);" d="M328.8,46.8c1.4-2.1,1.2-4.2-1.4-6.2
		c-4,4.1-7.8,7.9-11.5,11.8c-0.2,0.2-0.1,0.7-0.2,1.5C321.2,53.9,325.6,51.7,328.8,46.8z"/>
	
		<linearGradient id="SVGID_00000023282780212497432410000009035744084882749839_" gradientUnits="userSpaceOnUse" x1="-193.2912" y1="303.1787" x2="567.0179" y2="574.685" gradientTransform="matrix(1 0 0 -1 0 500)">
		<stop  offset="0" style="stop-color:#00AEEF"/>
		<stop  offset="0.2598" style="stop-color:#262262"/>
		<stop  offset="0.5056" style="stop-color:#00AEEF"/>
		<stop  offset="0.7635" style="stop-color:#2E3192"/>
		<stop  offset="0.9944" style="stop-color:#00AEEF"/>
	</linearGradient>
	
		<path style="fill:url(#SVGID_00000023282780212497432410000009035744084882749839_);stroke:#000000;stroke-width:2;stroke-miterlimit:10;" d="
		M177.8,60c11.6-1.3,23-0.5,34.2,2.7c0.8,0.2,1.7,0.3,2.6,0.4c-1.5-1.8-3.2-2.6-4.9-3.4c-2.2-1-4.4-2-6.6-3c0,0,0,0,0,0
		c-4.5-0.4-8.9-1-13.3-1.3c-9.3-0.6-18.5,1.6-27.7,2.6c-1.5,0.1-3,0.9-4.5,1.4C164.4,60.1,171.2,60.8,177.8,60z"/>
	
		<linearGradient id="SVGID_00000181079905192229657950000005600421492905450677_" gradientUnits="userSpaceOnUse" x1="-103.2162" y1="335.3445" x2="476.0944" y2="542.2162" gradientTransform="matrix(1 0 0 -1 0 500)">
		<stop  offset="0" style="stop-color:#99FF99"/>
		<stop  offset="0.2598" style="stop-color:#003300"/>
		<stop  offset="0.5076" style="stop-color:#66FF66"/>
		<stop  offset="0.7441" style="stop-color:#336633"/>
		<stop  offset="0.9948" style="stop-color:#00FF33"/>
	</linearGradient>
	<path style="fill:url(#SVGID_00000181079905192229657950000005600421492905450677_);" d="M177.8,60c11.6-1.3,23-0.5,34.2,2.7
		c0.8,0.2,1.7,0.3,2.6,0.4c-1.5-1.8-3.2-2.6-4.9-3.4c-2.2-1-4.4-2-6.6-3c0,0,0,0,0,0c-4.5-0.4-8.9-1-13.3-1.3
		c-9.3-0.6-18.5,1.6-27.7,2.6c-1.5,0.1-3,0.9-4.5,1.4C164.4,60.1,171.2,60.8,177.8,60z"/>
	
		<linearGradient id="SVGID_00000059309780225666861400000011622119377289483431_" gradientUnits="userSpaceOnUse" x1="-192.5577" y1="253.7652" x2="610.6121" y2="540.577" gradientTransform="matrix(1 0 0 -1 0 500)">
		<stop  offset="0" style="stop-color:#00AEEF"/>
		<stop  offset="0.2598" style="stop-color:#262262"/>
		<stop  offset="0.5056" style="stop-color:#00AEEF"/>
		<stop  offset="0.7635" style="stop-color:#2E3192"/>
		<stop  offset="0.9944" style="stop-color:#00AEEF"/>
	</linearGradient>
	
		<path style="fill:url(#SVGID_00000059309780225666861400000011622119377289483431_);stroke:#000000;stroke-width:2;stroke-miterlimit:10;" d="
		M3.5,190c2.9,10.1,8.2,18.6,14.3,26.6c6.5,8.5,12.9,17.1,14.9,28.6c0.1,0.5,0.5,0.9,0.7,1.4c0.2,0,0.4-0.1,0.6-0.1
		c-0.2-2.2-0.2-4.5-0.5-6.7c-1.3-8.8-5.7-16.1-10.3-23.1c-4.9-7.5-10.2-14.6-13.5-23.2c-4.4-11.4-6.6-23.2-5.5-36.7
		c3.2,16.5,8.6,30.8,15.8,44.3c4.8,8.9,9.4,18,13.8,27.1c3.1,6.5,5.6,13.2,3.3,21.4c3.8-3,4.5-3.6,4-7.2c-0.6-4.9-1.6-9.9-3.2-14.5
		c-4-11.6-10.6-21.6-16.3-32.1C12.9,179.4,6.8,162,4.8,142.9c-1.3-13,0.8-25.3,5-37.2c2.1-6,5.7-11,10.2-15
		c6.4-5.6,15.8-1.7,17.6,7.1c0.8,4.2-0.4,6.4-4.5,8c-0.7-1-1.3-1.9-2.1-3c-1.5,2-1.1,3.5,0.1,4.9c1.5,1.7,3.4,2,5.2,1
		c3-1.6,4.6-4.5,5-8.2c1.1-11.4-10-20.3-19.7-15.8c-4.5,2.1-7.8,5.7-10.4,10.1C3,108.7,0.5,124.3,2.2,140.9c0.4,4,0.6,7.9-0.2,12
		C-0.3,165.4,0,177.7,3.5,190z"/>
	
		<linearGradient id="SVGID_00000133491695947735959480000010042246567121359497_" gradientUnits="userSpaceOnUse" x1="-87.4834" y1="291.2873" x2="491.8272" y2="498.1591" gradientTransform="matrix(1 0 0 -1 0 500)">
		<stop  offset="0" style="stop-color:#99FF99"/>
		<stop  offset="0.2598" style="stop-color:#003300"/>
		<stop  offset="0.5076" style="stop-color:#66FF66"/>
		<stop  offset="0.7441" style="stop-color:#336633"/>
		<stop  offset="0.9948" style="stop-color:#00FF33"/>
	</linearGradient>
	<path style="fill:url(#SVGID_00000133491695947735959480000010042246567121359497_);" d="M3.5,190c2.9,10.1,8.2,18.6,14.3,26.6
		c6.5,8.5,12.9,17.1,14.9,28.6c0.1,0.5,0.5,0.9,0.7,1.4c0.2,0,0.4-0.1,0.6-0.1c-0.2-2.2-0.2-4.5-0.5-6.7
		c-1.3-8.8-5.7-16.1-10.3-23.1c-4.9-7.5-10.2-14.6-13.5-23.2c-4.4-11.4-6.6-23.2-5.5-36.7c3.2,16.5,8.6,30.8,15.8,44.3
		c4.8,8.9,9.4,18,13.8,27.1c3.1,6.5,5.6,13.2,3.3,21.4c3.8-3,4.5-3.6,4-7.2c-0.6-4.9-1.6-9.9-3.2-14.5c-4-11.6-10.6-21.6-16.3-32.1
		C12.9,179.4,6.8,162,4.8,142.9c-1.3-13,0.8-25.3,5-37.2c2.1-6,5.7-11,10.2-15c6.4-5.6,15.8-1.7,17.6,7.1c0.8,4.2-0.4,6.4-4.5,8
		c-0.7-1-1.3-1.9-2.1-3c-1.5,2-1.1,3.5,0.1,4.9c1.5,1.7,3.4,2,5.2,1c3-1.6,4.6-4.5,5-8.2c1.1-11.4-10-20.3-19.7-15.8
		c-4.5,2.1-7.8,5.7-10.4,10.1C3,108.7,0.5,124.3,2.2,140.9c0.4,4,0.6,7.9-0.2,12C-0.3,165.4,0,177.7,3.5,190z"/>
	
		<linearGradient id="SVGID_00000078733912036504910070000009705616646008238496_" gradientUnits="userSpaceOnUse" x1="-181.9285" y1="313.3055" x2="553.4568" y2="575.9116" gradientTransform="matrix(1 0 0 -1 0 500)">
		<stop  offset="0" style="stop-color:#00AEEF"/>
		<stop  offset="0.2598" style="stop-color:#262262"/>
		<stop  offset="0.5056" style="stop-color:#00AEEF"/>
		<stop  offset="0.7635" style="stop-color:#2E3192"/>
		<stop  offset="0.9944" style="stop-color:#00AEEF"/>
	</linearGradient>
	
		<path style="fill:url(#SVGID_00000078733912036504910070000009705616646008238496_);stroke:#000000;stroke-width:2;stroke-miterlimit:10;" d="
		M203.1,56.8c0.3-0.8,1-1.9,0.7-2.5c-1.2-3.3-2.7-6.5-4.2-9.7c-0.3-0.6-1-0.9-1.5-1.3c-2.6,3.2-2.9,4.9-0.6,7.8
		C199.1,53.3,201.2,55,203.1,56.8z"/>
	
		<linearGradient id="SVGID_00000044160789001654597560000013694969746228014506_" gradientUnits="userSpaceOnUse" x1="-105.1384" y1="340.7273" x2="474.1722" y2="547.5991" gradientTransform="matrix(1 0 0 -1 0 500)">
		<stop  offset="0" style="stop-color:#99FF99"/>
		<stop  offset="0.2598" style="stop-color:#003300"/>
		<stop  offset="0.5076" style="stop-color:#66FF66"/>
		<stop  offset="0.7441" style="stop-color:#336633"/>
		<stop  offset="0.9948" style="stop-color:#00FF33"/>
	</linearGradient>
	<path style="fill:url(#SVGID_00000044160789001654597560000013694969746228014506_);" d="M203.1,56.8c0.3-0.8,1-1.9,0.7-2.5
		c-1.2-3.3-2.7-6.5-4.2-9.7c-0.3-0.6-1-0.9-1.5-1.3c-2.6,3.2-2.9,4.9-0.6,7.8C199.1,53.3,201.2,55,203.1,56.8z"/>
	
		<linearGradient id="SVGID_00000042696355685779567170000004235976664675740587_" gradientUnits="userSpaceOnUse" x1="-190.692" y1="321.7245" x2="553.6897" y2="587.5432" gradientTransform="matrix(1 0 0 -1 0 500)">
		<stop  offset="0" style="stop-color:#00AEEF"/>
		<stop  offset="0.2598" style="stop-color:#262262"/>
		<stop  offset="0.5056" style="stop-color:#00AEEF"/>
		<stop  offset="0.7635" style="stop-color:#2E3192"/>
		<stop  offset="0.9944" style="stop-color:#00AEEF"/>
	</linearGradient>
	
		<path style="fill:url(#SVGID_00000042696355685779567170000004235976664675740587_);stroke:#000000;stroke-width:2;stroke-miterlimit:10;" d="
		M171.7,50.2c3,2.3,6.3,3.8,10.6,3.3c-3.6-4.3-6.7-8.1-9.9-11.7c-0.6-0.6-2.1-1-2.7-0.7c-0.7,0.4-1.2,1.8-1.2,2.8
		C168.4,46.7,169.8,48.7,171.7,50.2z"/>
	
		<linearGradient id="SVGID_00000085953214065474898750000018192848382057546627_" gradientUnits="userSpaceOnUse" x1="-108.7959" y1="350.9696" x2="470.5147" y2="557.8414" gradientTransform="matrix(1 0 0 -1 0 500)">
		<stop  offset="0" style="stop-color:#99FF99"/>
		<stop  offset="0.2598" style="stop-color:#003300"/>
		<stop  offset="0.5076" style="stop-color:#66FF66"/>
		<stop  offset="0.7441" style="stop-color:#336633"/>
		<stop  offset="0.9948" style="stop-color:#00FF33"/>
	</linearGradient>
	<path style="fill:url(#SVGID_00000085953214065474898750000018192848382057546627_);" d="M171.7,50.2c3,2.3,6.3,3.8,10.6,3.3
		c-3.6-4.3-6.7-8.1-9.9-11.7c-0.6-0.6-2.1-1-2.7-0.7c-0.7,0.4-1.2,1.8-1.2,2.8C168.4,46.7,169.8,48.7,171.7,50.2z"/>
	
		<linearGradient id="SVGID_00000098201058412676333300000014542362663535112593_" gradientUnits="userSpaceOnUse" x1="-79.9682" y1="-53.0265" x2="682.3149" y2="219.1848" gradientTransform="matrix(1 0 0 -1 0 500)">
		<stop  offset="0" style="stop-color:#00AEEF"/>
		<stop  offset="0.2598" style="stop-color:#262262"/>
		<stop  offset="0.5056" style="stop-color:#00AEEF"/>
		<stop  offset="0.7635" style="stop-color:#2E3192"/>
		<stop  offset="0.9944" style="stop-color:#00AEEF"/>
	</linearGradient>
	
		<path style="fill:url(#SVGID_00000098201058412676333300000014542362663535112593_);stroke:#000000;stroke-width:2;stroke-miterlimit:10;" d="
		M446.4,428.1c-8.4,0.5-16.5-2.2-24.2-5.7c-10.5-4.8-20.8-10.4-31.2-15.5c-4.7-2.4-9.4-4.8-14.3-6.8c-18-7.2-36.5-9.7-55.6-6.8
		c-10.3,1.5-20.4,4-30,8.5c-9.5,4.4-19,9.2-28.4,14c-4.7,2.4-9.3,4.9-13.4,7.1c-7.2-3.4-14.1-6.5-20.9-9.7c-0.6-0.3-1.3-0.6-1.9-1
		c-16-9.9-32.9-16.7-51.3-19c-12.7-1.6-25.1-1.3-37.6,1.7c-12.1,2.9-23.5,7.9-34.6,13.8c-8.3,4.4-16.5,9-25,12.6
		c-11.5,4.9-23.2,8.7-35.9,5.6c-11.8-2.8-23.1-6.5-32.6-15.4c-1.7-1.6-3.3-3.1-4.9-4.7c0,1.6,0.5,2.7,1.2,3.6
		c6.2,7.8,14,13.1,22.6,16.9c17,7.5,35,8.6,53,8.9c8.1,0.1,16.2-0.9,24.2-2c11.6-1.6,23.2-3.6,34.8-5.6c17.9-3.1,35.4-8.4,53.6-10
		c8.2-0.7,16.2-0.2,24.2,0.7c0.8,0.1,1.7,0.4,2.5,0.8c1.8,0.9,2.5,2.5,1.3,4.2c-1.5,2-3.3,4-5.3,5.4c-5.6,3.8-12,5.2-18.4,5.3
		c-8.5,0.1-16.9-0.7-25.4-0.9c-10.2-0.2-20.4-0.3-30.6-0.2c-3.8,0-7.6,0.4-11.3,1.2c-8.3,1.8-16.6,4.1-24.2,8.5
		c-7.9,4.6-14.1,11.3-18,20.1c-5.2,11.7-2.9,26.4,7.6,33c5.2,3.2,10.7,4.2,16.5,2.4c8.2-2.5,15-7.2,19-15.7c3.8-8,2-16.4-4.3-21.6
		c-5.4-4.5-14-2.9-17.5,3.3c-1.4,2.5-1.1,5.5,0.8,7.3c1.8,1.7,5,1.8,6.8,0.2c1.8-1.6,2.2-4.2,1.1-6.7c-0.4-0.9-0.9-1.8-1.5-2.9
		c8.7-1,14,6,12.1,14.7c-2.7,11.9-16.7,19.4-27.6,15.9c-5.8-1.9-9.5-6.4-10.6-13c-1-5.4-0.3-10.9,2.2-15.7
		c3.8-7.3,8.8-13.4,15.7-17.1c11.4-6,23.3-9.8,35.9-10c16.6-0.2,33.2,0.1,49.8,0c3.9,0,8-0.5,11.8-1.5c7.7-2,15-4.9,18.5-14
		c0.1-0.2,0.3-0.2,0.4-0.3c5,0.2,12.7,3.5,16.8,7.5c-6.1,6.5-10.2,14-9.7,23.9c0.5,9.8,5.2,17.2,11.1,24c-7.2,4-14.8,3.9-20.6,0
		c-2.7-1.8-3.6-4.5-3.6-7.8c0-2.8-0.2-5.8,2.9-7c0.4,1.6,0.5,3.2,1.2,4.5c0.9,1.6,2.4,2.2,4.1,1.4c1.6-0.7,2.4-2.1,2.3-4.1
		c-0.2-2.1-1.1-3.7-3-4.1c-5.3-1.1-9.3,2.5-9.6,8.5c-0.2,5.4,1.5,9.7,6.1,12.4c6.7,3.9,13.7,4.2,20.6,1.5c3.3-1.3,6.1-1.4,9.4,0
		c6,2.5,12.2,2.5,18.3-0.1c4.8-2,8.1-5.8,8.7-11.9c0.6-6.5-3.5-11.2-9.3-10.6c-2,0.2-3.8,2-3.8,4c-0.1,2.2,1,3.7,2.7,4.4
		c1.7,0.8,3.6-0.3,4.5-2.6c0.4-0.9,0.4-2,0.7-3.4c4.4,6.2,3.2,13-2.4,15.7c-6.5,3.1-12.9,2.7-19.8-1.1c7.1-6.3,11.1-14.1,11.8-23.5
		c0.8-9.8-4.1-17.4-9.5-24.5c6.9-4.6,11.4-6.5,17.2-7.2c1.6,6.7,5.9,10,11.1,12.2c5.8,2.5,11.9,3.9,18.2,3.9
		c15.6-0.1,31.1,0,46.7-0.3c13.2-0.2,25.8,2.8,37.7,8.9c10.3,5.3,18.1,13.6,20.2,26.7c0.9,5.5-0.4,10.7-3.7,15
		c-4.2,5.6-9.8,6.8-16,6c-8.1-1.1-14.5-5.6-17.9-13.9c-3.6-8.8,0.2-15.7,7.7-17.9c0.9-0.2,1.9,0.2,3.2,0.5c-0.6,1.3-1,2.1-1.2,3
		c-1,3.5,0,6.1,2.4,7.3c2.4,1.1,5.2,0.3,6.4-1.9c1.5-2.6,1-5.3-1.4-7.7c-7-7.1-17.2-4.8-21.2,4.7c-2.5,5.8-1.5,11.4,1.4,16.5
		c4.7,8.6,11.9,13,20.7,14.7c6.5,1.2,12-0.8,16.8-5.3c8.9-8.3,9.7-21,3.7-32.5c-4.2-8.2-10.3-14.5-18.1-18.4
		c-10.8-5.5-22-9.1-34-9.3c-8-0.1-15.9-0.1-23.9,0.1c-9.5,0.2-19,0.7-28.5,1.1c-5.6,0.2-11.1-0.8-16.3-2.7c-3.1-1.1-6-2.9-8.8-4.8
		c-2-1.3-3.2-3.4-3.2-6.7c1.6-0.5,3.2-1.2,4.9-1.5c10.8-2.4,21.8-1.6,32.5,0.2c15.7,2.7,31.2,6.5,46.9,9.4c12.9,2.4,25.9,5,38.9,5.9
		c9.7,0.7,19.5,1.7,29.4,0.7c9.5-0.9,18.9-1.5,28.2-3.9c14-3.6,27-9.7,36.6-22.4c0.7-0.9,1.2-2,1.8-3c-3.3,2.3-5.9,5.4-9,7.8
		C473.7,423.2,460.5,427.4,446.4,428.1z M218.5,410.5c-3.2-0.3-6.5-0.7-9.7-0.9c-15.6-0.9-31,1.5-46.3,5
		c-16.7,3.8-33.5,7.5-50.3,10.8c-8.1,1.6-16.5,2-24.7,2.9c-3.6,0.4-7.1,0.7-10.7,0.8c14-4.5,27.1-11.6,40.6-17.6
		c11.1-5,22.6-8.2,34.5-9.8c20-2.7,39.6-0.4,58.9,5.9c2.6,0.9,5.2,1.7,7.8,2.6C218.5,410.2,218.5,410.4,218.5,410.5z M249.2,473.7
		c-13.3-10.1-13.9-31.3,0.1-40C262.4,444.6,262.4,463.4,249.2,473.7z M417.7,429.2c-8.4-0.9-16.8-1.7-25.2-2.9
		c-20.9-2.9-41.4-8.2-62-12.9c-13.9-3.2-28-4.7-42.2-3.9c-1.7,0.1-3.4,0-5,0c0-0.3-0.1-0.6-0.1-0.9c7-1.9,14-3.9,21.1-5.5
		c11.7-2.7,23.7-3,35.6-2.3c10,0.6,20,2.5,29.4,6.2c11.2,4.5,22.2,9.7,33.3,14.4c6,2.6,12,4.9,18.2,7.5
		C419.5,429.1,418.6,429.3,417.7,429.2z"/>
	
		<linearGradient id="SVGID_00000100379005034965560800000017529745067946880640_" gradientUnits="userSpaceOnUse" x1="22.4151" y1="-16.4654" x2="601.7257" y2="190.4064" gradientTransform="matrix(1 0 0 -1 0 500)">
		<stop  offset="0" style="stop-color:#99FF99"/>
		<stop  offset="0.2598" style="stop-color:#003300"/>
		<stop  offset="0.5076" style="stop-color:#66FF66"/>
		<stop  offset="0.7441" style="stop-color:#336633"/>
		<stop  offset="0.9948" style="stop-color:#00FF33"/>
	</linearGradient>
	<path style="fill:url(#SVGID_00000100379005034965560800000017529745067946880640_);" d="M446.4,428.1c-8.4,0.5-16.5-2.2-24.2-5.7
		c-10.5-4.8-20.8-10.4-31.2-15.5c-4.7-2.4-9.4-4.8-14.3-6.8c-18-7.2-36.5-9.7-55.6-6.8c-10.3,1.5-20.4,4-30,8.5
		c-9.5,4.4-19,9.2-28.4,14c-4.7,2.4-9.3,4.9-13.4,7.1c-7.2-3.4-14.1-6.5-20.9-9.7c-0.6-0.3-1.3-0.6-1.9-1c-16-9.9-32.9-16.7-51.3-19
		c-12.7-1.6-25.1-1.3-37.6,1.7c-12.1,2.9-23.5,7.9-34.6,13.8c-8.3,4.4-16.5,9-25,12.6c-11.5,4.9-23.2,8.7-35.9,5.6
		c-11.8-2.8-23.1-6.5-32.6-15.4c-1.7-1.6-3.3-3.1-4.9-4.7c0,1.6,0.5,2.7,1.2,3.6c6.2,7.8,14,13.1,22.6,16.9c17,7.5,35,8.6,53,8.9
		c8.1,0.1,16.2-0.9,24.2-2c11.6-1.6,23.2-3.6,34.8-5.6c17.9-3.1,35.4-8.4,53.6-10c8.2-0.7,16.2-0.2,24.2,0.7
		c0.8,0.1,1.7,0.4,2.5,0.8c1.8,0.9,2.5,2.5,1.3,4.2c-1.5,2-3.3,4-5.3,5.4c-5.6,3.8-12,5.2-18.4,5.3c-8.5,0.1-16.9-0.7-25.4-0.9
		c-10.2-0.2-20.4-0.3-30.6-0.2c-3.8,0-7.6,0.4-11.3,1.2c-8.3,1.8-16.6,4.1-24.2,8.5c-7.9,4.6-14.1,11.3-18,20.1
		c-5.2,11.7-2.9,26.4,7.6,33c5.2,3.2,10.7,4.2,16.5,2.4c8.2-2.5,15-7.2,19-15.7c3.8-8,2-16.4-4.3-21.6c-5.4-4.5-14-2.9-17.5,3.3
		c-1.4,2.5-1.1,5.5,0.8,7.3c1.8,1.7,5,1.8,6.8,0.2c1.8-1.6,2.2-4.2,1.1-6.7c-0.4-0.9-0.9-1.8-1.5-2.9c8.7-1,14,6,12.1,14.7
		c-2.7,11.9-16.7,19.4-27.6,15.9c-5.8-1.9-9.5-6.4-10.6-13c-1-5.4-0.3-10.9,2.2-15.7c3.8-7.3,8.8-13.4,15.7-17.1
		c11.4-6,23.3-9.8,35.9-10c16.6-0.2,33.2,0.1,49.8,0c3.9,0,8-0.5,11.8-1.5c7.7-2,15-4.9,18.5-14c0.1-0.2,0.3-0.2,0.4-0.3
		c5,0.2,12.7,3.5,16.8,7.5c-6.1,6.5-10.2,14-9.7,23.9c0.5,9.8,5.2,17.2,11.1,24c-7.2,4-14.8,3.9-20.6,0c-2.7-1.8-3.6-4.5-3.6-7.8
		c0-2.8-0.2-5.8,2.9-7c0.4,1.6,0.5,3.2,1.2,4.5c0.9,1.6,2.4,2.2,4.1,1.4c1.6-0.7,2.4-2.1,2.3-4.1c-0.2-2.1-1.1-3.7-3-4.1
		c-5.3-1.1-9.3,2.5-9.6,8.5c-0.2,5.4,1.5,9.7,6.1,12.4c6.7,3.9,13.7,4.2,20.6,1.5c3.3-1.3,6.1-1.4,9.4,0c6,2.5,12.2,2.5,18.3-0.1
		c4.8-2,8.1-5.8,8.7-11.9c0.6-6.5-3.5-11.2-9.3-10.6c-2,0.2-3.8,2-3.8,4c-0.1,2.2,1,3.7,2.7,4.4c1.7,0.8,3.6-0.3,4.5-2.6
		c0.4-0.9,0.4-2,0.7-3.4c4.4,6.2,3.2,13-2.4,15.7c-6.5,3.1-12.9,2.7-19.8-1.1c7.1-6.3,11.1-14.1,11.8-23.5
		c0.8-9.8-4.1-17.4-9.5-24.5c6.9-4.6,11.4-6.5,17.2-7.2c1.6,6.7,5.9,10,11.1,12.2c5.8,2.5,11.9,3.9,18.2,3.9
		c15.6-0.1,31.1,0,46.7-0.3c13.2-0.2,25.8,2.8,37.7,8.9c10.3,5.3,18.1,13.6,20.2,26.7c0.9,5.5-0.4,10.7-3.7,15
		c-4.2,5.6-9.8,6.8-16,6c-8.1-1.1-14.5-5.6-17.9-13.9c-3.6-8.8,0.2-15.7,7.7-17.9c0.9-0.2,1.9,0.2,3.2,0.5c-0.6,1.3-1,2.1-1.2,3
		c-1,3.5,0,6.1,2.4,7.3c2.4,1.1,5.2,0.3,6.4-1.9c1.5-2.6,1-5.3-1.4-7.7c-7-7.1-17.2-4.8-21.2,4.7c-2.5,5.8-1.5,11.4,1.4,16.5
		c4.7,8.6,11.9,13,20.7,14.7c6.5,1.2,12-0.8,16.8-5.3c8.9-8.3,9.7-21,3.7-32.5c-4.2-8.2-10.3-14.5-18.1-18.4
		c-10.8-5.5-22-9.1-34-9.3c-8-0.1-15.9-0.1-23.9,0.1c-9.5,0.2-19,0.7-28.5,1.1c-5.6,0.2-11.1-0.8-16.3-2.7c-3.1-1.1-6-2.9-8.8-4.8
		c-2-1.3-3.2-3.4-3.2-6.7c1.6-0.5,3.2-1.2,4.9-1.5c10.8-2.4,21.8-1.6,32.5,0.2c15.7,2.7,31.2,6.5,46.9,9.4c12.9,2.4,25.9,5,38.9,5.9
		c9.7,0.7,19.5,1.7,29.4,0.7c9.5-0.9,18.9-1.5,28.2-3.9c14-3.6,27-9.7,36.6-22.4c0.7-0.9,1.2-2,1.8-3c-3.3,2.3-5.9,5.4-9,7.8
		C473.7,423.2,460.5,427.4,446.4,428.1z M218.5,410.5c-3.2-0.3-6.5-0.7-9.7-0.9c-15.6-0.9-31,1.5-46.3,5
		c-16.7,3.8-33.5,7.5-50.3,10.8c-8.1,1.6-16.5,2-24.7,2.9c-3.6,0.4-7.1,0.7-10.7,0.8c14-4.5,27.1-11.6,40.6-17.6
		c11.1-5,22.6-8.2,34.5-9.8c20-2.7,39.6-0.4,58.9,5.9c2.6,0.9,5.2,1.7,7.8,2.6C218.5,410.2,218.5,410.4,218.5,410.5z M249.2,473.7
		c-13.3-10.1-13.9-31.3,0.1-40C262.4,444.6,262.4,463.4,249.2,473.7z M417.7,429.2c-8.4-0.9-16.8-1.7-25.2-2.9
		c-20.9-2.9-41.4-8.2-62-12.9c-13.9-3.2-28-4.7-42.2-3.9c-1.7,0.1-3.4,0-5,0c0-0.3-0.1-0.6-0.1-0.9c7-1.9,14-3.9,21.1-5.5
		c11.7-2.7,23.7-3,35.6-2.3c10,0.6,20,2.5,29.4,6.2c11.2,4.5,22.2,9.7,33.3,14.4c6,2.6,12,4.9,18.2,7.5
		C419.5,429.1,418.6,429.3,417.7,429.2z"/>
	
		<linearGradient id="SVGID_00000085930418313128627900000013468987502432898476_" gradientUnits="userSpaceOnUse" x1="-108.9362" y1="26.7147" x2="660.3663" y2="301.4326" gradientTransform="matrix(1 0 0 -1 0 500)">
		<stop  offset="0" style="stop-color:#00AEEF"/>
		<stop  offset="0.2598" style="stop-color:#262262"/>
		<stop  offset="0.5056" style="stop-color:#00AEEF"/>
		<stop  offset="0.7635" style="stop-color:#2E3192"/>
		<stop  offset="0.9944" style="stop-color:#00AEEF"/>
	</linearGradient>
	
		<path style="fill:url(#SVGID_00000085930418313128627900000013468987502432898476_);stroke:#000000;stroke-width:2;stroke-miterlimit:10;" d="
		M473.2,256.5c1.2,0.8,2,1.4,3,1.9c3.5,1.6,5.1,4.4,4.9,8.5c0,0.6-0.1,1.2,0.1,1.7c0.4,1,0.8,2.4,1.5,2.7c0.7,0.3,2-0.2,2.7-0.9
		c3.3-3.1,2.8-9.2-1-12.5c-1.3-1.2-2.8-2.1-4.2-3.1C477.9,254.9,475.4,253.9,473.2,256.5z"/>
	
		<linearGradient id="SVGID_00000006692404161253840610000005054384565213064357_" gradientUnits="userSpaceOnUse" x1="-6.1161" y1="63.4317" x2="573.1945" y2="270.3035" gradientTransform="matrix(1 0 0 -1 0 500)">
		<stop  offset="0" style="stop-color:#99FF99"/>
		<stop  offset="0.2598" style="stop-color:#003300"/>
		<stop  offset="0.5076" style="stop-color:#66FF66"/>
		<stop  offset="0.7441" style="stop-color:#336633"/>
		<stop  offset="0.9948" style="stop-color:#00FF33"/>
	</linearGradient>
	<path style="fill:url(#SVGID_00000006692404161253840610000005054384565213064357_);" d="M473.2,256.5c1.2,0.8,2,1.4,3,1.9
		c3.5,1.6,5.1,4.4,4.9,8.5c0,0.6-0.1,1.2,0.1,1.7c0.4,1,0.8,2.4,1.5,2.7c0.7,0.3,2-0.2,2.7-0.9c3.3-3.1,2.8-9.2-1-12.5
		c-1.3-1.2-2.8-2.1-4.2-3.1C477.9,254.9,475.4,253.9,473.2,256.5z"/>
	
		<linearGradient id="SVGID_00000172400100757007257110000005584106061670801546_" gradientUnits="userSpaceOnUse" x1="403.2845" y1="217.7965" x2="556.9916" y2="272.6853" gradientTransform="matrix(1 0 0 -1 0 500)">
		<stop  offset="0" style="stop-color:#00AEEF"/>
		<stop  offset="0.2598" style="stop-color:#262262"/>
		<stop  offset="0.5056" style="stop-color:#00AEEF"/>
		<stop  offset="0.7635" style="stop-color:#2E3192"/>
		<stop  offset="0.9944" style="stop-color:#00AEEF"/>
	</linearGradient>
	
		<path style="fill:url(#SVGID_00000172400100757007257110000005584106061670801546_);stroke:#000000;stroke-width:2;stroke-miterlimit:10;" d="
		M480.2,254.8C480.2,254.8,480.1,254.8,480.2,254.8C480.1,254.8,480.1,254.8,480.2,254.8C480.2,254.8,480.2,254.8,480.2,254.8z"/>
	
		<linearGradient id="SVGID_00000161632494974091979060000016800093326675610811_" gradientUnits="userSpaceOnUse" x1="403.2845" y1="217.7965" x2="556.9916" y2="272.6853" gradientTransform="matrix(1 0 0 -1 0 500)">
		<stop  offset="0" style="stop-color:#99FF99"/>
		<stop  offset="0.2598" style="stop-color:#003300"/>
		<stop  offset="0.5076" style="stop-color:#66FF66"/>
		<stop  offset="0.7441" style="stop-color:#336633"/>
		<stop  offset="0.9948" style="stop-color:#00FF33"/>
	</linearGradient>
	<path style="fill:url(#SVGID_00000161632494974091979060000016800093326675610811_);" d="M480.2,254.8
		C480.2,254.8,480.1,254.8,480.2,254.8C480.1,254.8,480.1,254.8,480.2,254.8C480.2,254.8,480.2,254.8,480.2,254.8z"/>
	
		<linearGradient id="SVGID_00000043443455342481959590000004597476392957941904_" gradientUnits="userSpaceOnUse" x1="-114.8337" y1="43.2299" x2="654.4688" y2="317.9478" gradientTransform="matrix(1 0 0 -1 0 500)">
		<stop  offset="0" style="stop-color:#00AEEF"/>
		<stop  offset="0.2598" style="stop-color:#262262"/>
		<stop  offset="0.5056" style="stop-color:#00AEEF"/>
		<stop  offset="0.7635" style="stop-color:#2E3192"/>
		<stop  offset="0.9944" style="stop-color:#00AEEF"/>
	</linearGradient>
	
		<path style="fill:url(#SVGID_00000043443455342481959590000004597476392957941904_);stroke:#000000;stroke-width:2;stroke-miterlimit:10;" d="
		M480.1,254.8C480.1,254.7,480.1,254.7,480.1,254.8c1.3,0.2,2.8,0.1,4,0.6c5.9,2.2,9.5-2,13.8-5.7c-4.7-3.9-8.7-7.9-15.2-5.2
		c1.5-2,2.7-3.2,3.5-4.6c1.4-2.4,1.7-5,0.8-7.7c-0.8-2.3-2.8-4-4.2-3.4c-1.9,0.7-1.9,2.6-1.8,4.3c0.3,4-1.8,6.4-4.5,8.5
		c-1,0.8-2.1,1.6-3.3,2.5c1.1,0.9,1.8,1.5,2.2,1.9c-1.3,1.4-2.5,2.6-3.6,3.9C474.6,252.8,474.6,252.8,480.1,254.8z"/>
	
		<linearGradient id="SVGID_00000114041484186837431190000012630389551198903191_" gradientUnits="userSpaceOnUse" x1="-12.0137" y1="79.9469" x2="567.2969" y2="286.8187" gradientTransform="matrix(1 0 0 -1 0 500)">
		<stop  offset="0" style="stop-color:#99FF99"/>
		<stop  offset="0.2598" style="stop-color:#003300"/>
		<stop  offset="0.5076" style="stop-color:#66FF66"/>
		<stop  offset="0.7441" style="stop-color:#336633"/>
		<stop  offset="0.9948" style="stop-color:#00FF33"/>
	</linearGradient>
	<path style="fill:url(#SVGID_00000114041484186837431190000012630389551198903191_);" d="M480.1,254.8
		C480.1,254.7,480.1,254.7,480.1,254.8c1.3,0.2,2.8,0.1,4,0.6c5.9,2.2,9.5-2,13.8-5.7c-4.7-3.9-8.7-7.9-15.2-5.2
		c1.5-2,2.7-3.2,3.5-4.6c1.4-2.4,1.7-5,0.8-7.7c-0.8-2.3-2.8-4-4.2-3.4c-1.9,0.7-1.9,2.6-1.8,4.3c0.3,4-1.8,6.4-4.5,8.5
		c-1,0.8-2.1,1.6-3.3,2.5c1.1,0.9,1.8,1.5,2.2,1.9c-1.3,1.4-2.5,2.6-3.6,3.9C474.6,252.8,474.6,252.8,480.1,254.8z"/>
	
		<linearGradient id="SVGID_00000010993389348985178640000004449578877273326747_" gradientUnits="userSpaceOnUse" x1="-172.2742" y1="105.5996" x2="639.2676" y2="395.4012" gradientTransform="matrix(1 0 0 -1 0 500)">
		<stop  offset="0" style="stop-color:#00AEEF"/>
		<stop  offset="0.2598" style="stop-color:#262262"/>
		<stop  offset="0.5056" style="stop-color:#00AEEF"/>
		<stop  offset="0.7635" style="stop-color:#2E3192"/>
		<stop  offset="0.9944" style="stop-color:#00AEEF"/>
	</linearGradient>
	
		<path style="fill:url(#SVGID_00000010993389348985178640000004449578877273326747_);stroke:#000000;stroke-width:2;stroke-miterlimit:10;" d="
		M497.4,149.5c-0.2-1.5,0.1-3,0.2-4.5c0.7-12.1,1.3-24.3-2.4-36c-2.5-8.1-5.9-15.7-11.9-21.4c-4.4-4.2-9.5-5.6-15-3.4
		c-5.5,2.2-8.8,6.6-9.6,13.2c-0.6,4.7,1.5,9.5,4.9,11.1c1.7,0.8,3.4,1,4.9-0.3c1.5-1.4,1.7-3.2,0.8-5.5c-1.1,1-2.2,1.8-3.1,2.6
		c-3.5-2.5-4.3-4.6-3.2-8.7c2.2-8.4,11.2-11.5,17.6-5.9c3.6,3.1,6.2,7.2,8.4,11.6c7,14.2,7.8,29.5,6.2,45
		c-1.3,12.1-4.7,23.7-10,34.5c-4.1,8.5-8.5,16.8-12.9,25c-4.6,8.4-9.3,16.8-11.9,26.2c-0.9,3.4-1.1,7.2-1.2,10.8
		c-0.1,2.2,0.5,4.4,2.9,5.6c0-9.8,0.7-13.4,4.5-21.7c2.3-5.1,4.9-10.2,7.5-15.2c6.1-11.4,12.4-22.7,16.5-35.3
		c1.2-3.6,2.2-7.3,3.2-11c0.9-3.5,1.6-7,2.4-10.4c0.5,1.6,0.5,3.2,0.5,4.7c0.2,14.8-2.9,28.7-10,41.2c-3.1,5.5-6.8,10.7-10.2,16
		c-4,6.1-7.7,12.4-9.4,19.8c-0.9,4-0.9,5.3,0.4,9c1-7.6,4.1-14,7.9-20c1.8-2.8,3.8-5.5,5.8-8.1c6.9-9,13-18.5,15.9-30.1
		c1.2-4.9,2.1-9.8,2.5-14.8v-7.9c0-0.4,0-0.8-0.1-1.2C499.1,159.3,498,154.4,497.4,149.5z"/>
	
		<linearGradient id="SVGID_00000173881237056734325730000012477950833447486907_" gradientUnits="userSpaceOnUse" x1="-38.2634" y1="153.4548" x2="541.0472" y2="360.3267" gradientTransform="matrix(1 0 0 -1 0 500)">
		<stop  offset="0" style="stop-color:#99FF99"/>
		<stop  offset="0.2598" style="stop-color:#003300"/>
		<stop  offset="0.5076" style="stop-color:#66FF66"/>
		<stop  offset="0.7441" style="stop-color:#336633"/>
		<stop  offset="0.9948" style="stop-color:#00FF33"/>
	</linearGradient>
	<path style="fill:url(#SVGID_00000173881237056734325730000012477950833447486907_);" d="M497.4,149.5c-0.2-1.5,0.1-3,0.2-4.5
		c0.7-12.1,1.3-24.3-2.4-36c-2.5-8.1-5.9-15.7-11.9-21.4c-4.4-4.2-9.5-5.6-15-3.4c-5.5,2.2-8.8,6.6-9.6,13.2
		c-0.6,4.7,1.5,9.5,4.9,11.1c1.7,0.8,3.4,1,4.9-0.3c1.5-1.4,1.7-3.2,0.8-5.5c-1.1,1-2.2,1.8-3.1,2.6c-3.5-2.5-4.3-4.6-3.2-8.7
		c2.2-8.4,11.2-11.5,17.6-5.9c3.6,3.1,6.2,7.2,8.4,11.6c7,14.2,7.8,29.5,6.2,45c-1.3,12.1-4.7,23.7-10,34.5
		c-4.1,8.5-8.5,16.8-12.9,25c-4.6,8.4-9.3,16.8-11.9,26.2c-0.9,3.4-1.1,7.2-1.2,10.8c-0.1,2.2,0.5,4.4,2.9,5.6
		c0-9.8,0.7-13.4,4.5-21.7c2.3-5.1,4.9-10.2,7.5-15.2c6.1-11.4,12.4-22.7,16.5-35.3c1.2-3.6,2.2-7.3,3.2-11c0.9-3.5,1.6-7,2.4-10.4
		c0.5,1.6,0.5,3.2,0.5,4.7c0.2,14.8-2.9,28.7-10,41.2c-3.1,5.5-6.8,10.7-10.2,16c-4,6.1-7.7,12.4-9.4,19.8c-0.9,4-0.9,5.3,0.4,9
		c1-7.6,4.1-14,7.9-20c1.8-2.8,3.8-5.5,5.8-8.1c6.9-9,13-18.5,15.9-30.1c1.2-4.9,2.1-9.8,2.5-14.8v-7.9c0-0.4,0-0.8-0.1-1.2
		C499.1,159.3,498,154.4,497.4,149.5z"/>
	
		<linearGradient id="SVGID_00000041264823835036696280000008908367084193402040_" gradientUnits="userSpaceOnUse" x1="-115.4273" y1="-43.1416" x2="687.911" y2="243.7305" gradientTransform="matrix(1 0 0 -1 0 500)">
		<stop  offset="0" style="stop-color:#00AEEF"/>
		<stop  offset="0.2598" style="stop-color:#262262"/>
		<stop  offset="0.5056" style="stop-color:#00AEEF"/>
		<stop  offset="0.7635" style="stop-color:#2E3192"/>
		<stop  offset="0.9944" style="stop-color:#00AEEF"/>
	</linearGradient>
	
		<path style="fill:url(#SVGID_00000041264823835036696280000008908367084193402040_);stroke:#000000;stroke-width:2;stroke-miterlimit:10;" d="
		M479.5,279.8c-5.7-7.5-11-15.4-12.1-25.7c0-0.4-0.6-0.7-1.5-1.5c-0.1,2.1-0.5,3.7-0.2,5c1,4.1,1.7,8.4,3.5,12
		c2.9,5.9,6.2,11.6,9.9,16.9c6,8.8,11.6,17.7,14.7,28.3c2.8,9.4,3,19,3.3,28.7c-0.7-1.4-1.1-2.8-1.5-4.2c-3.1-13.7-8-26.6-14.5-38.8
		c-5.3-9.9-10.6-19.9-15.5-30c-2.8-5.7-5-11.8-3.9-18.9c-3.4,2.3-3.6,5.8-3,9.5c1.3,7.6,4,14.8,7.6,21.4c3.3,6.1,6.8,12,10.3,18
		c8.7,14.8,15.1,30.7,18.5,48c2.9,14.9,2,29.5-2.8,43.7c-2.2,6.6-5.5,12.5-10.4,17c-6.3,5.7-15.3,2.9-17.8-5.4c-1.1-3.8-0.4-6,3-9
		c1,0.8,2,1.7,3.3,2.7c0.9-2.4,0.7-4.4-1.2-5.8c-1.6-1.2-3.3-0.8-4.9,0.3c-5.2,3.3-6.2,11.4-2.2,17.8c5.9,9.6,16.2,8.4,21.8,3.2
		c3.5-3.2,6.1-7.2,8.3-11.7c6.8-13.6,7.7-28.3,6.2-43.2c-0.5-5.2,0.2-9.9,0.8-14.8c0.1-1,0.2-1.9,0.3-2.9v-16.5
		c-0.7-7.2-2.5-14.2-5.5-21.1C490.4,294.2,485,287.1,479.5,279.8z"/>
	
		<linearGradient id="SVGID_00000068665583810243901050000000816622357996495237_" gradientUnits="userSpaceOnUse" x1="15.2741" y1="3.5318" x2="594.5847" y2="210.4036" gradientTransform="matrix(1 0 0 -1 0 500)">
		<stop  offset="0" style="stop-color:#99FF99"/>
		<stop  offset="0.2598" style="stop-color:#003300"/>
		<stop  offset="0.5076" style="stop-color:#66FF66"/>
		<stop  offset="0.7441" style="stop-color:#336633"/>
		<stop  offset="0.9948" style="stop-color:#00FF33"/>
	</linearGradient>
	<path style="fill:url(#SVGID_00000068665583810243901050000000816622357996495237_);" d="M479.5,279.8c-5.7-7.5-11-15.4-12.1-25.7
		c0-0.4-0.6-0.7-1.5-1.5c-0.1,2.1-0.5,3.7-0.2,5c1,4.1,1.7,8.4,3.5,12c2.9,5.9,6.2,11.6,9.9,16.9c6,8.8,11.6,17.7,14.7,28.3
		c2.8,9.4,3,19,3.3,28.7c-0.7-1.4-1.1-2.8-1.5-4.2c-3.1-13.7-8-26.6-14.5-38.8c-5.3-9.9-10.6-19.9-15.5-30c-2.8-5.7-5-11.8-3.9-18.9
		c-3.4,2.3-3.6,5.8-3,9.5c1.3,7.6,4,14.8,7.6,21.4c3.3,6.1,6.8,12,10.3,18c8.7,14.8,15.1,30.7,18.5,48c2.9,14.9,2,29.5-2.8,43.7
		c-2.2,6.6-5.5,12.5-10.4,17c-6.3,5.7-15.3,2.9-17.8-5.4c-1.1-3.8-0.4-6,3-9c1,0.8,2,1.7,3.3,2.7c0.9-2.4,0.7-4.4-1.2-5.8
		c-1.6-1.2-3.3-0.8-4.9,0.3c-5.2,3.3-6.2,11.4-2.2,17.8c5.9,9.6,16.2,8.4,21.8,3.2c3.5-3.2,6.1-7.2,8.3-11.7
		c6.8-13.6,7.7-28.3,6.2-43.2c-0.5-5.2,0.2-9.9,0.8-14.8c0.1-1,0.2-1.9,0.3-2.9v-16.5c-0.7-7.2-2.5-14.2-5.5-21.1
		C490.4,294.2,485,287.1,479.5,279.8z"/>
	
		<linearGradient id="SVGID_00000076595324586228972890000002682723406979880093_" gradientUnits="userSpaceOnUse" x1="-111.068" y1="48.4137" x2="651.9875" y2="320.9008" gradientTransform="matrix(1 0 0 -1 0 500)">
		<stop  offset="0" style="stop-color:#00AEEF"/>
		<stop  offset="0.2598" style="stop-color:#262262"/>
		<stop  offset="0.5056" style="stop-color:#00AEEF"/>
		<stop  offset="0.7635" style="stop-color:#2E3192"/>
		<stop  offset="0.9944" style="stop-color:#00AEEF"/>
	</linearGradient>
	
		<path style="fill:url(#SVGID_00000076595324586228972890000002682723406979880093_);stroke:#000000;stroke-width:2;stroke-miterlimit:10;" d="
		M448.1,250.2c5.2,4,5.6,4,10.4-0.3C454.3,246.3,452.3,245.8,448.1,250.2z"/>
	
		<linearGradient id="SVGID_00000163783334704668653360000006439166839279571887_" gradientUnits="userSpaceOnUse" x1="-13.2296" y1="83.3518" x2="566.081" y2="290.2236" gradientTransform="matrix(1 0 0 -1 0 500)">
		<stop  offset="0" style="stop-color:#99FF99"/>
		<stop  offset="0.2598" style="stop-color:#003300"/>
		<stop  offset="0.5076" style="stop-color:#66FF66"/>
		<stop  offset="0.7441" style="stop-color:#336633"/>
		<stop  offset="0.9948" style="stop-color:#00FF33"/>
	</linearGradient>
	<path style="fill:url(#SVGID_00000163783334704668653360000006439166839279571887_);" d="M448.1,250.2c5.2,4,5.6,4,10.4-0.3
		C454.3,246.3,452.3,245.8,448.1,250.2z"/>
	
		<linearGradient id="SVGID_00000127043005330397395920000002631156670440761223_" gradientUnits="userSpaceOnUse" x1="-187.7149" y1="281.1497" x2="574.6061" y2="553.3745" gradientTransform="matrix(1 0 0 -1 0 500)">
		<stop  offset="0" style="stop-color:#00AEEF"/>
		<stop  offset="0.2598" style="stop-color:#262262"/>
		<stop  offset="0.5056" style="stop-color:#00AEEF"/>
		<stop  offset="0.7635" style="stop-color:#2E3192"/>
		<stop  offset="0.9944" style="stop-color:#00AEEF"/>
	</linearGradient>
	
		<path style="fill:url(#SVGID_00000127043005330397395920000002631156670440761223_);stroke:#000000;stroke-width:2;stroke-miterlimit:10;" d="
		M51.1,72c8.8-0.4,17.2,2,25.2,5.8c10.7,5,21.2,10.5,31.7,15.9c20.8,10.6,42.3,16.2,65.4,13.3c17.6-2.2,34.1-7.9,49.7-17.1
		c1.5-0.9,3-2,4.5-2.8c6.3-3.1,12.7-6,19-9.2c1.9-1,3.4-0.8,5.3,0.3c5.6,3,11.3,5.7,17,8.5c1.3,0.6,2.5,1.2,3.7,2
		c23.5,14,48.2,21.7,75.2,18.4c11.3-1.3,22.2-3.8,32.6-8.8c11.7-5.7,23.2-12,34.9-17.7c13.6-6.6,27.6-11,42.8-7.3
		c10.6,2.6,20.7,6.2,29.2,14c1.5,1.3,3.1,2.5,4.6,3.7c-2.3-5.3-6.4-8.2-10.3-11.3c-7.3-5.7-15.8-8.7-24.3-11.2
		c-10.7-3.2-21.8-4.1-32.8-4.5c-7.9-0.3-15.9,0.4-23.8,0.9c-5.5,0.3-11.1,0.5-16.5,1.5c-16.7,3.1-33.4,6.2-50,9.8
		c-16.3,3.6-32.7,6-49.4,4.8c-3.2-0.2-6.4-1-9.6-1.5c0.6-4.9,1.5-6.4,4.8-8.7c4.8-3.3,10.2-5.2,15.7-5.4c10-0.4,20.1-0.6,30.1,0.1
		c12.6,0.9,25.2,1.6,37.7-0.3c10-1.5,19.7-4.4,28.5-10c9.6-6.2,16.8-14.7,19-27.4c2.9-16.5-10.1-29.5-23.7-27.4
		c-5.1,0.8-9.7,3.1-13.8,6.3c-4.8,3.8-8.1,8.9-9.4,15.4c-1.3,6.7,1.8,13.8,7.3,17c5.3,3.1,11.2,1.7,15.5-3.5c2-2.5,2.2-4.8,0.4-7.2
		c-1.6-2.2-3.9-2.7-6-1.4c-2.4,1.5-3.4,3.9-2.4,6.8c0.4,1.1,1,2.1,1.6,3.3c-6.5,0.3-10.3-1.7-11.7-6.7c-1.2-4.1-1.3-8.4,0.9-12.3
		c5.1-8.8,12.8-13.2,21.9-12.7C402,5.8,409,15.9,406.6,28c-2.2,11.1-8.6,18.7-17.3,23.9c-11.5,6.8-24,9.9-36.8,10.5
		c-9.7,0.4-19.4,0.1-29,0c-5.7-0.1-11.4-0.9-17.1-0.8c-6.7,0.1-13.5,0.7-19.9,3.4c-6,2.5-12,5.3-13.7,13.9c-6.2-2-12.1-3.8-17.4-7.8
		c13.3-16.4,13.2-31.5-1.8-48.6c6.4-3.3,12.8-3.5,19.2-0.7c1.2,0.5,2.4,1.5,3.3,2.7c3.5,4.1,3,9.3-0.9,12.6
		c-0.3-1.3-0.4-2.7-0.9-3.8c-0.8-1.8-2.5-2.5-3.9-1.6c-1.2,0.7-2.4,2.3-2.8,3.7c-0.5,1.8,0.7,3.3,2.3,4c3.7,1.7,8.4-0.5,10-4.7
		c2-5.2,0-12.2-4.5-15.2c-6.8-4.6-14-5.2-21.4-2.3c-3.6,1.4-6.6,1.7-10.3,0.2c-5.8-2.4-11.9-2-17.8,0.2c-2.9,1.1-5.1,3.2-6.8,6
		c-1.9,3.1-2,6.6-1.3,10c0.5,2.3,1.3,4.5,3.9,4.8c2,0.3,3.9,1,5.9,0.9c1.7-0.1,2.8-1.8,2.5-3.6c-0.2-1.3-0.8-2.9-1.8-3.7
		c-1.3-1.2-3-0.6-4.1,0.8c-0.7,0.9-0.8,2.4-1.3,3.5c-0.3,0.7-0.7,1.3-1.1,2c-0.6-1.4-1.3-2.7-1.7-4.2c-1.2-4.6,0.1-9,3.2-11.4
		c4.9-3.8,15.4-3.8,20.8,0.2c-6.1,6.4-10.5,13.7-11.2,23.3c-0.6,10,4,17.5,9.7,24.9c-5.7,3.6-10.9,6.2-17.1,7.5
		c-2.4-8.9-8.8-12.2-15.9-14.1c-6-1.6-12.2-2.6-18.4-3c-5.5-0.3-11,0.6-16.5,0.8c-8,0.2-15.9,0-23.9,0.2
		c-13.4,0.2-26.1-2.9-38.4-8.6c-9.8-4.6-17.2-12.2-20.5-23.8c-3.4-11.6,2.2-22,12.7-24.7c4.6-1.2,9,0.5,13.1,2.5
		c5.4,2.6,9.7,6.8,11.7,13.2c2.9,9.1-2.6,16.6-11.6,15.5c0.5-1.1,1-2,1.3-3c1-3,0.2-5.4-2.2-6.9c-2.1-1.4-4.5-1-6.1,1
		c-1.7,2.1-2,5.5-0.3,7.4c3.4,3.9,7.3,6.7,12.4,5.3c5.1-1.3,11.1-6.5,10.9-14.9c-0.1-4.4-0.9-8.4-3.2-12c-5.6-8.8-13.5-13-22.9-13.6
		c-5.6-0.3-10.5,2-14.6,6.2c-7.5,7.8-8.8,21-3.4,31.3c5.7,10.8,14,17.6,24.5,22.1c18,7.7,36.6,7,55.3,6.3c11-0.4,22.1-0.9,33.1-0.6
		c5.5,0.1,10.9,2.1,15.7,5.4c2.8,1.9,4.8,4.3,4,8.8c-2.2,0.5-4.4,1.4-6.5,1.5c-14.2,0.7-28.3,0.5-42.3-2.6
		c-19.3-4.3-38.5-9.1-58.1-11.6c-9.8-1.2-19.5-2.5-29.4-2.9c-7.9-0.3-15.9,0.2-23.8,0.9c-7.4,0.7-14.8,1.7-22,3.6
		C26.5,72.1,14.1,78.5,4.8,91c-0.7,0.9-1.1,2-1.7,3c3.7-2.6,6.5-6,9.9-8.6C24.6,76.9,37.4,72.6,51.1,72z M290,90.5
		c14.9,0.8,29.6-1.8,44.1-5c18.8-4.1,37.5-8.3,56.4-11.9c8.6-1.6,17.5-1.9,26.2-2.8c1-0.1,2,0,3.5,0c-8.1,3.5-15.7,6.7-23.2,10
		c-6.6,2.9-13.1,6-19.6,8.9c-10.7,4.6-21.7,7.6-33.1,8.6c-6.5,0.6-13.1,1.2-19.6,0.9c-14.9-0.6-29.4-3.9-43.5-9.7
		C284.2,90,287.1,90.3,290,90.5z M248.6,26.2c11.6,7,16,28.1,0.6,40.3C235.3,54.1,235.2,37.4,248.6,26.2z M77.8,70.6
		c7,0.6,14.1,0.9,21.1,1.8c25.4,3.2,50.3,9.9,75.4,15.2c11.8,2.5,23.6,3.4,35.6,2.8c2.5-0.1,5-0.7,7.8,0.1
		c-8.2,2.2-16.3,4.8-24.6,6.5c-9,1.9-18.1,2.8-27.3,2.5c-16.1-0.4-31.6-3.9-46.5-10.3c-10.9-4.7-21.8-9.8-32.7-14.7
		c-2.9-1.3-5.9-2.2-8.8-3.2C77.8,71.1,77.8,70.9,77.8,70.6z"/>
	
		<linearGradient id="SVGID_00000163794909315284452740000013169593488854764725_" gradientUnits="userSpaceOnUse" x1="-95.6086" y1="314.0408" x2="483.702" y2="520.9126" gradientTransform="matrix(1 0 0 -1 0 500)">
		<stop  offset="0" style="stop-color:#99FF99"/>
		<stop  offset="0.2598" style="stop-color:#003300"/>
		<stop  offset="0.5076" style="stop-color:#66FF66"/>
		<stop  offset="0.7441" style="stop-color:#336633"/>
		<stop  offset="0.9948" style="stop-color:#00FF33"/>
	</linearGradient>
	<path style="fill:url(#SVGID_00000163794909315284452740000013169593488854764725_);" d="M51.1,72c8.8-0.4,17.2,2,25.2,5.8
		c10.7,5,21.2,10.5,31.7,15.9c20.8,10.6,42.3,16.2,65.4,13.3c17.6-2.2,34.1-7.9,49.7-17.1c1.5-0.9,3-2,4.5-2.8
		c6.3-3.1,12.7-6,19-9.2c1.9-1,3.4-0.8,5.3,0.3c5.6,3,11.3,5.7,17,8.5c1.3,0.6,2.5,1.2,3.7,2c23.5,14,48.2,21.7,75.2,18.4
		c11.3-1.3,22.2-3.8,32.6-8.8c11.7-5.7,23.2-12,34.9-17.7c13.6-6.6,27.6-11,42.8-7.3c10.6,2.6,20.7,6.2,29.2,14
		c1.5,1.3,3.1,2.5,4.6,3.7c-2.3-5.3-6.4-8.2-10.3-11.3c-7.3-5.7-15.8-8.7-24.3-11.2c-10.7-3.2-21.8-4.1-32.8-4.5
		c-7.9-0.3-15.9,0.4-23.8,0.9c-5.5,0.3-11.1,0.5-16.5,1.5c-16.7,3.1-33.4,6.2-50,9.8c-16.3,3.6-32.7,6-49.4,4.8
		c-3.2-0.2-6.4-1-9.6-1.5c0.6-4.9,1.5-6.4,4.8-8.7c4.8-3.3,10.2-5.2,15.7-5.4c10-0.4,20.1-0.6,30.1,0.1c12.6,0.9,25.2,1.6,37.7-0.3
		c10-1.5,19.7-4.4,28.5-10c9.6-6.2,16.8-14.7,19-27.4c2.9-16.5-10.1-29.5-23.7-27.4c-5.1,0.8-9.7,3.1-13.8,6.3
		c-4.8,3.8-8.1,8.9-9.4,15.4c-1.3,6.7,1.8,13.8,7.3,17c5.3,3.1,11.2,1.7,15.5-3.5c2-2.5,2.2-4.8,0.4-7.2c-1.6-2.2-3.9-2.7-6-1.4
		c-2.4,1.5-3.4,3.9-2.4,6.8c0.4,1.1,1,2.1,1.6,3.3c-6.5,0.3-10.3-1.7-11.7-6.7c-1.2-4.1-1.3-8.4,0.9-12.3
		c5.1-8.8,12.8-13.2,21.9-12.7C402,5.8,409,15.9,406.6,28c-2.2,11.1-8.6,18.7-17.3,23.9c-11.5,6.8-24,9.9-36.8,10.5
		c-9.7,0.4-19.4,0.1-29,0c-5.7-0.1-11.4-0.9-17.1-0.8c-6.7,0.1-13.5,0.7-19.9,3.4c-6,2.5-12,5.3-13.7,13.9c-6.2-2-12.1-3.8-17.4-7.8
		c13.3-16.4,13.2-31.5-1.8-48.6c6.4-3.3,12.8-3.5,19.2-0.7c1.2,0.5,2.4,1.5,3.3,2.7c3.5,4.1,3,9.3-0.9,12.6
		c-0.3-1.3-0.4-2.7-0.9-3.8c-0.8-1.8-2.5-2.5-3.9-1.6c-1.2,0.7-2.4,2.3-2.8,3.7c-0.5,1.8,0.7,3.3,2.3,4c3.7,1.7,8.4-0.5,10-4.7
		c2-5.2,0-12.2-4.5-15.2c-6.8-4.6-14-5.2-21.4-2.3c-3.6,1.4-6.6,1.7-10.3,0.2c-5.8-2.4-11.9-2-17.8,0.2c-2.9,1.1-5.1,3.2-6.8,6
		c-1.9,3.1-2,6.6-1.3,10c0.5,2.3,1.3,4.5,3.9,4.8c2,0.3,3.9,1,5.9,0.9c1.7-0.1,2.8-1.8,2.5-3.6c-0.2-1.3-0.8-2.9-1.8-3.7
		c-1.3-1.2-3-0.6-4.1,0.8c-0.7,0.9-0.8,2.4-1.3,3.5c-0.3,0.7-0.7,1.3-1.1,2c-0.6-1.4-1.3-2.7-1.7-4.2c-1.2-4.6,0.1-9,3.2-11.4
		c4.9-3.8,15.4-3.8,20.8,0.2c-6.1,6.4-10.5,13.7-11.2,23.3c-0.6,10,4,17.5,9.7,24.9c-5.7,3.6-10.9,6.2-17.1,7.5
		c-2.4-8.9-8.8-12.2-15.9-14.1c-6-1.6-12.2-2.6-18.4-3c-5.5-0.3-11,0.6-16.5,0.8c-8,0.2-15.9,0-23.9,0.2
		c-13.4,0.2-26.1-2.9-38.4-8.6c-9.8-4.6-17.2-12.2-20.5-23.8c-3.4-11.6,2.2-22,12.7-24.7c4.6-1.2,9,0.5,13.1,2.5
		c5.4,2.6,9.7,6.8,11.7,13.2c2.9,9.1-2.6,16.6-11.6,15.5c0.5-1.1,1-2,1.3-3c1-3,0.2-5.4-2.2-6.9c-2.1-1.4-4.5-1-6.1,1
		c-1.7,2.1-2,5.5-0.3,7.4c3.4,3.9,7.3,6.7,12.4,5.3c5.1-1.3,11.1-6.5,10.9-14.9c-0.1-4.4-0.9-8.4-3.2-12c-5.6-8.8-13.5-13-22.9-13.6
		c-5.6-0.3-10.5,2-14.6,6.2c-7.5,7.8-8.8,21-3.4,31.3c5.7,10.8,14,17.6,24.5,22.1c18,7.7,36.6,7,55.3,6.3c11-0.4,22.1-0.9,33.1-0.6
		c5.5,0.1,10.9,2.1,15.7,5.4c2.8,1.9,4.8,4.3,4,8.8c-2.2,0.5-4.4,1.4-6.5,1.5c-14.2,0.7-28.3,0.5-42.3-2.6
		c-19.3-4.3-38.5-9.1-58.1-11.6c-9.8-1.2-19.5-2.5-29.4-2.9c-7.9-0.3-15.9,0.2-23.8,0.9c-7.4,0.7-14.8,1.7-22,3.6
		C26.5,72.1,14.1,78.5,4.8,91c-0.7,0.9-1.1,2-1.7,3c3.7-2.6,6.5-6,9.9-8.6C24.6,76.9,37.4,72.6,51.1,72z M290,90.5
		c14.9,0.8,29.6-1.8,44.1-5c18.8-4.1,37.5-8.3,56.4-11.9c8.6-1.6,17.5-1.9,26.2-2.8c1-0.1,2,0,3.5,0c-8.1,3.5-15.7,6.7-23.2,10
		c-6.6,2.9-13.1,6-19.6,8.9c-10.7,4.6-21.7,7.6-33.1,8.6c-6.5,0.6-13.1,1.2-19.6,0.9c-14.9-0.6-29.4-3.9-43.5-9.7
		C284.2,90,287.1,90.3,290,90.5z M248.6,26.2c11.6,7,16,28.1,0.6,40.3C235.3,54.1,235.2,37.4,248.6,26.2z M77.8,70.6
		c7,0.6,14.1,0.9,21.1,1.8c25.4,3.2,50.3,9.9,75.4,15.2c11.8,2.5,23.6,3.4,35.6,2.8c2.5-0.1,5-0.7,7.8,0.1
		c-8.2,2.2-16.3,4.8-24.6,6.5c-9,1.9-18.1,2.8-27.3,2.5c-16.1-0.4-31.6-3.9-46.5-10.3c-10.9-4.7-21.8-9.8-32.7-14.7
		c-2.9-1.3-5.9-2.2-8.8-3.2C77.8,71.1,77.8,70.9,77.8,70.6z"/>
	<path class="st55" d="M203.1,56.8C203.1,56.8,203.1,56.8,203.1,56.8C203.1,56.8,203.1,56.8,203.1,56.8
		C203.1,56.8,203.1,56.8,203.1,56.8z"/>
	
		<linearGradient id="SVGID_00000177461020444608996290000013407059468007327900_" gradientUnits="userSpaceOnUse" x1="104.4248" y1="407.9334" x2="291.9397" y2="474.8951" gradientTransform="matrix(1 0 0 -1 0 500)">
		<stop  offset="0" style="stop-color:#00AEEF"/>
		<stop  offset="0.2598" style="stop-color:#262262"/>
		<stop  offset="0.5056" style="stop-color:#00AEEF"/>
		<stop  offset="0.7635" style="stop-color:#2E3192"/>
		<stop  offset="0.9944" style="stop-color:#00AEEF"/>
	</linearGradient>
	<path style="fill:url(#SVGID_00000177461020444608996290000013407059468007327900_);" d="M203.1,56.8
		C203.1,56.8,203.1,56.8,203.1,56.8C203.1,56.8,203.1,56.8,203.1,56.8C203.1,56.8,203.1,56.8,203.1,56.8z"/>
	
		<linearGradient id="SVGID_00000008122401614948314040000003547069150886523033_" gradientUnits="userSpaceOnUse" x1="109.1415" y1="409.6178" x2="296.9987" y2="476.7016" gradientTransform="matrix(1 0 0 -1 0 500)">
		<stop  offset="0" style="stop-color:#99FF99"/>
		<stop  offset="0.2598" style="stop-color:#003300"/>
		<stop  offset="0.5076" style="stop-color:#66FF66"/>
		<stop  offset="0.7441" style="stop-color:#336633"/>
		<stop  offset="0.9948" style="stop-color:#00FF33"/>
	</linearGradient>
	<path style="fill:url(#SVGID_00000008122401614948314040000003547069150886523033_);" d="M203.1,56.8
		C203.1,56.8,203.1,56.8,203.1,56.8C203.1,56.8,203.1,56.8,203.1,56.8C203.1,56.8,203.1,56.8,203.1,56.8z"/>
</g>
</svg>
