<?xml version="1.0" encoding="utf-8"?>
<!-- Generator: Adobe Illustrator 26.0.3, SVG Export Plug-In . SVG Version: 6.00 Build 0)  -->
<svg version="1.1" id="Layer_1" xmlns="http://www.w3.org/2000/svg" xmlns:xlink="http://www.w3.org/1999/xlink" x="0px" y="0px"
	 viewBox="0 0 500 500" style="enable-background:new 0 0 500 500;" xml:space="preserve">
<style type="text/css">
	.st0{fill:url(#SVGID_1_);}
	.st1{fill:url(#SVGID_00000158031006152252865810000013771134393992077987_);}
	.st2{fill:url(#SVGID_00000093871624283619705140000010418824051168142005_);}
	.st3{fill:url(#SVGID_00000062183440636015251400000013293086363714946224_);}
	.st4{fill:url(#SVGID_00000111156126232641346510000000003243619165090985_);}
	.st5{fill:url(#SVGID_00000171688986649739174010000006321713643131618953_);}
	.st6{fill:url(#SVGID_00000118366649131991720310000004125643101757595791_);}
	.st7{fill:url(#SVGID_00000030449272187326597310000006050846142627652017_);}
	.st8{fill:url(#SVGID_00000162325731178050321380000010963347221389750157_);}
	.st9{fill:url(#SVGID_00000124840515277034708210000004720531204716237186_);}
	.st10{fill:url(#SVGID_00000127751078617062218120000009078101791216917694_);}
	.st11{fill:url(#SVGID_00000048476362329767369190000015489004401553172386_);}
	.st12{fill:url(#SVGID_00000091708241815630906830000013886834165392288655_);}
	.st13{fill:url(#SVGID_00000055705788682176826020000001277112660304502165_);}
	.st14{fill:url(#SVGID_00000021111898980435407770000009541764371360504239_);}
	.st15{fill:url(#SVGID_00000041999429672265360740000012100227001094652586_);}
	.st16{fill:url(#SVGID_00000161605326386577181380000013359440112959048337_);}
	.st17{fill:url(#SVGID_00000006683633115727196440000006164677572676524684_);}
</style>
<g>
	<linearGradient id="SVGID_1_" gradientUnits="userSpaceOnUse" x1="27.269" y1="333.8934" x2="66.9757" y2="319.7142">
		<stop  offset="0" style="stop-color:#FAE862"/>
		<stop  offset="0.2598" style="stop-color:#B8A240"/>
		<stop  offset="0.5056" style="stop-color:#F6E95F"/>
		<stop  offset="0.7635" style="stop-color:#C69E3B"/>
		<stop  offset="1" style="stop-color:#ECD74F"/>
	</linearGradient>
	<path class="st0" d="M59.73,297.79c-1.63,0-2.24-0.02-2.84,0c-8.81,0.37-14.92,5.69-20.91,11.46c-8.06,7.77-12.37,25.08-5.34,35.62
		c3.32,4.98,11.36,9.55,17.11,8.22c4.43-1.02,6.19-4.74,4.16-8.9c-1.43-2.93-2.82-5.9-4.44-8.72c-5.86-10.2-0.54-22.9,5.79-30.02
		C55.25,303.22,57.12,300.88,59.73,297.79z"/>
	
		<linearGradient id="SVGID_00000155827147103298662190000007999862661854801080_" gradientUnits="userSpaceOnUse" x1="-13.4239" y1="396.5552" x2="142.9174" y2="340.7257">
		<stop  offset="0" style="stop-color:#FAE862"/>
		<stop  offset="0.2598" style="stop-color:#B8A240"/>
		<stop  offset="0.5056" style="stop-color:#F6E95F"/>
		<stop  offset="0.7635" style="stop-color:#C69E3B"/>
		<stop  offset="1" style="stop-color:#ECD74F"/>
	</linearGradient>
	<path style="fill:url(#SVGID_00000155827147103298662190000007999862661854801080_);" d="M83.92,361.84
		c8.99,7.27,19.31,7.94,29,3.21c15.42-7.52,29.42-30.53,23.35-49.2c-2.74-8.43-6.72-16.19-12.99-22.18
		c-5.97-5.69-12.66-10.55-20.21-14.36c-8.22-4.15-16.86-6.65-25.64-7.66c-17.73-2.04-33.94,1.86-47.6,14.79
		c-6.93,6.56-13.11,13.27-17.67,21.82c-4.88,9.15-7.28,18.86-7.64,28.91c-0.37,10.27,0.45,20.62,1.37,30.88
		c0.75,8.3,2.33,16.53,3.68,24.77c2.24,13.57,5.41,27.04,6.66,40.69c1.2,13.16,2.07,26.58-2.42,39.56
		c-0.95,2.74-1.12,5.87-1.05,8.81c0.08,3.39,2.97,4.84,5.61,2.91c9.47-6.93,16.39-15.83,19.75-27.32c1.32-4.51,2.36-9.1,3.63-13.62
		c2.16-7.73,1.83-15.48-1.4-22.64c-3.98-8.82-8.85-17.23-13.55-26.22c1.52,0.12,3.5,0.23,5.48,0.43c6.84,0.68,13.4,0.37,18.21-5.59
		c0.89-1.1,1.2-2.68,1.78-4.04c-1.59-0.43-3.39-1.58-4.72-1.16c-7.1,2.23-12.56-0.18-17.14-5.54c-2.09-2.45-4.04-5.01-6.03-7.55
		c-6.82-8.7-10.16-18.8-10.51-29.74c-0.19-6,0.37-12.17,1.6-18.04c1.19-5.69,2.82-11.63,5.78-16.5c3.85-6.32,8.16-12.74,15.04-16.38
		c6.53-3.45,12.84-8.37,19.8-9.73c13.65-2.66,27.62-2.78,40.6,4.14c5.12,2.73,10.69,4.76,15.34,8.14c4.19,3.04,7.6,7.3,10.98,11.34
		c4.78,5.71,7.49,12.48,7.9,19.98c0.5,9.16-3.14,16.79-8.7,23.84c-4.34,5.5-9.73,7.47-16.3,6.68c-1.97-0.23-3.84-1.2-5.78-1.74
		c-4.33-1.22-4.65-2.36-2.15-6.11c7.15-10.73,7.27-22.37,2.76-33.87c-2.21-5.62-6.95-10.14-13.64-9.81
		c-10.09,0.51-18.61,9.9-18.98,20.58C67.59,339.3,72.04,352.23,83.92,361.84z"/>
	
		<linearGradient id="SVGID_00000078752904465339734400000002471647118231255730_" gradientUnits="userSpaceOnUse" x1="43.6087" y1="413.7831" x2="69.5884" y2="404.5057">
		<stop  offset="0" style="stop-color:#FAE862"/>
		<stop  offset="0.2598" style="stop-color:#B8A240"/>
		<stop  offset="0.5056" style="stop-color:#F6E95F"/>
		<stop  offset="0.7635" style="stop-color:#C69E3B"/>
		<stop  offset="1" style="stop-color:#ECD74F"/>
	</linearGradient>
	<path style="fill:url(#SVGID_00000078752904465339734400000002471647118231255730_);" d="M40.38,404.11
		c-0.28,0.15-0.55,0.3-0.83,0.45c0.98,1.63,1.95,3.27,2.94,4.9c4.59,7.47,12.66,10.71,20.89,8.07c3.32-1.06,8.41-5.73,7.6-9.9
		c-0.36-1.84-1.4-3.71-2.65-5.09c-0.32-0.35-2.83,0.88-3.95,1.84c-4.99,4.3-10.24,6.47-16.62,3.11
		C45.37,406.24,42.85,405.23,40.38,404.11z"/>
	
		<linearGradient id="SVGID_00000037658669647275871980000018320521548394369928_" gradientUnits="userSpaceOnUse" x1="228.6554" y1="55.0382" x2="265.1044" y2="42.0223">
		<stop  offset="0" style="stop-color:#FAE862"/>
		<stop  offset="0.2598" style="stop-color:#B8A240"/>
		<stop  offset="0.5056" style="stop-color:#F6E95F"/>
		<stop  offset="0.7635" style="stop-color:#C69E3B"/>
		<stop  offset="1" style="stop-color:#ECD74F"/>
	</linearGradient>
	<path style="fill:url(#SVGID_00000037658669647275871980000018320521548394369928_);" d="M262.85,34.66
		c-3.5-6.17-6.93-12.38-10.39-18.57c-1.8-3.22-3.6-6.44-5.85-10.47c-1.91,2.79-3.35,4.64-4.51,6.66
		c-4.19,7.31-8.08,14.82-12.5,21.98c-2.07,3.36-2.36,6.6-0.9,9.83c5.18,11.42,5.64,23.86,8.04,35.89c0.49,2.46,1.48,5.29,3.18,6.95
		c6.44,6.31,6.66,6.23,12.66-0.37c1.45-1.59,3.06-3.77,3.17-5.75c0.61-11.79,2.85-23.17,6.78-34.29
		C263.86,42.76,265.14,38.7,262.85,34.66z"/>
	
		<linearGradient id="SVGID_00000141445436001846051050000013489686490334815410_" gradientUnits="userSpaceOnUse" x1="269.6807" y1="93.0387" x2="470.3907" y2="21.3651">
		<stop  offset="0" style="stop-color:#FAE862"/>
		<stop  offset="0.2598" style="stop-color:#B8A240"/>
		<stop  offset="0.5056" style="stop-color:#F6E95F"/>
		<stop  offset="0.7635" style="stop-color:#C69E3B"/>
		<stop  offset="1" style="stop-color:#ECD74F"/>
	</linearGradient>
	<path style="fill:url(#SVGID_00000141445436001846051050000013489686490334815410_);" d="M433.77,45.07
		c9.7-2.09,19.26-5.59,27.21-11.94c3.86-3.08,6.86-7.31,10.13-11.11c1.36-1.58,1.96-3.72,0-5.06c-1.26-0.86-3.3-1.21-4.82-0.91
		c-5.2,1.04-10.27,3.16-15.49,3.61c-8.85,0.76-17.81,1.19-26.65,0.58c-8.17-0.57-16.23-2.69-24.34-4.14
		c-7.75-1.38-15.47-2.96-23.25-4.11c-12.3-1.83-24.6-3.67-36.97-4.89c-4.98-0.49-10.11,0.89-15.17,0.97
		c-8.13,0.14-15.92,1.69-22.92,5.83c-5.98,3.53-11.91,7.32-17.21,11.8c-4.34,3.67-7.66,8.56-11.5,12.86
		c-4.77,5.33-7.64,11.84-9.17,18.58c-2.29,10.07-2.17,20.44-0.47,30.7c0.29,1.79,0.21,3.68,0.77,5.37
		c3.91,11.78,9.14,22.87,17.31,32.31c6.78,7.84,15.17,13.83,24.92,16.4c18.37,4.85,38.54-6.6,47.06-22.18
		c3.82-6.98,6.27-14.13,3.08-22.01c-1.29-3.18-2.53-6.69-4.79-9.08c-4.11-4.34-8.53-8.76-13.65-11.64
		c-4.58-2.57-10.25-3.2-15.49-4.53c-9.29-2.36-20.18,1.63-25.09,9.59c-2.45,3.98-5.17,7.93-3.11,13.5
		c3.78,10.23,20.02,14.73,27.27,12.45c6.43-2.02,12.9-3.91,19.84-6c2.57,3.79,5.68,8.93,3.65,14.45c-1.6,4.34-4.67,8.83-8.31,11.57
		c-13.33,10.01-26.41,9.99-40.29,0.63c-7.2-4.85-12.23-11.58-16.43-19.34c-4.45-8.2-7.78-16.84-9.01-25.82
		c-2.51-18.33,2.05-35,14.57-49.03c9.08-10.17,20.55-15.46,33.75-16.65c9.85-0.89,19.71-1.26,29.27,2.9
		c9.86,4.29,18.87,9.54,24.57,19.03c1.73,2.88,3.45,6.43,1.37,10.23c-0.46,0.84-0.5,2.05-0.36,3.04c0.15,1.07,0.47,2.47,1.22,2.99
		c0.51,0.35,2.06-0.32,2.82-0.94c4.02-3.31,6.15-7.85,6.5-12.91c0.3-4.26-0.39-8.58-0.64-12.87c6.01,3.63,12.17,7.2,18.19,11.01
		C412.02,46.55,422.9,47.41,433.77,45.07z"/>
	
		<linearGradient id="SVGID_00000058581666049792985820000011325391308841670534_" gradientUnits="userSpaceOnUse" x1="388.1941" y1="62.4522" x2="405.4395" y2="56.2939">
		<stop  offset="0" style="stop-color:#FAE862"/>
		<stop  offset="0.2598" style="stop-color:#B8A240"/>
		<stop  offset="0.5056" style="stop-color:#F6E95F"/>
		<stop  offset="0.7635" style="stop-color:#C69E3B"/>
		<stop  offset="1" style="stop-color:#ECD74F"/>
	</linearGradient>
	<path style="fill:url(#SVGID_00000058581666049792985820000011325391308841670534_);" d="M392.17,69.17
		c-1.4,2.06-1.4,3.95,0.82,5.54c3.04,2.19,7.3,0.97,10.74-3.33c4.29-5.37,4.35-19.13-5.83-25.58c-1.28-0.81-2.77-1.3-4.16-1.93
		c-0.25,0.34-0.51,0.67-0.76,1.01c0.63,1.06,1.33,2.09,1.86,3.2c2.2,4.57,5.27,9.07,2.08,14.38C395.5,64.8,393.71,66.9,392.17,69.17
		z"/>
	
		<linearGradient id="SVGID_00000149373439624685392000000007733680579248157322_" gradientUnits="userSpaceOnUse" x1="237.8611" y1="113.5893" x2="256.4428" y2="106.9538">
		<stop  offset="0" style="stop-color:#FAE862"/>
		<stop  offset="0.2598" style="stop-color:#B8A240"/>
		<stop  offset="0.5056" style="stop-color:#F6E95F"/>
		<stop  offset="0.7635" style="stop-color:#C69E3B"/>
		<stop  offset="1" style="stop-color:#ECD74F"/>
	</linearGradient>
	<path style="fill:url(#SVGID_00000149373439624685392000000007733680579248157322_);" d="M246.41,95.46
		c-3.41,3.18-6.76,6.18-9.94,9.35c-0.73,0.74-1.53,2.49-1.17,3.1c3.46,5.9,7.16,11.66,10.97,17.74c0.98-0.93,1.68-1.34,2.04-1.96
		c2.52-4.4,5.13-8.76,7.37-13.31c0.71-1.44,1.16-4.05,0.39-5C253.2,101.87,249.78,98.83,246.41,95.46z"/>
	
		<linearGradient id="SVGID_00000045604889025955762700000005379187175231103923_" gradientUnits="userSpaceOnUse" x1="122.1552" y1="269.4983" x2="233.4921" y2="229.7399">
		<stop  offset="0" style="stop-color:#FAE862"/>
		<stop  offset="0.2598" style="stop-color:#B8A240"/>
		<stop  offset="0.5056" style="stop-color:#F6E95F"/>
		<stop  offset="0.7635" style="stop-color:#C69E3B"/>
		<stop  offset="1" style="stop-color:#ECD74F"/>
	</linearGradient>
	<path style="fill:url(#SVGID_00000045604889025955762700000005379187175231103923_);" d="M183.82,231.52
		c0.06-0.95-0.08-1.66,0.16-2.21c2.96-6.83,2.78-13.99,1.34-20.97c-1.71-8.25-6.8-14.8-14.75-16.9
		c-10.77-2.84-17.66,0.13-24.38,10.67c-3.45,5.41-2.18,12.84,2.42,16.34c2.93,2.23,7.41,1.07,9.72-2.48
		c2.23-3.42-1.54-3.11-2.66-4.45c1.01-5.13,8.25-8.58,11.72-5.46c5.83,5.23,7.5,12.08,4.43,20.26c-2.43,6.49-6.93,11.22-12.56,14.73
		c-4.97,3.1-10.07,6.59-15.58,8.03c-7.8,2.04-14.45-1.63-19.64-7.8c-0.95-1.13-2.07-2.13-3.11-3.18
		c0.67,8.12,6.41,12.07,12.29,16.33c-7.35,3.48-12.54,8.09-13.58,17.14c2.93-3.34,4.85-6.7,7.72-8.57
		c9.09-5.94,18.45-4.24,27.13,0.99c6.93,4.18,12.6,9.8,16.02,17.65c2.85,6.55,1.91,16.51-3.25,20.92c-1.75,1.5-3.93,2.62-6.96,1.27
		c-3.18-1.41-4.65-3.55-5.41-5.57c1.34-2.01,2.88-3.27,2.75-4.31c-0.52-4-5.89-5.89-9.33-3.73c-3.32,2.09-4.67,4.87-4.82,8.83
		c-0.24,6.43,3.1,10.83,7.23,14.93c4.42,4.37,17.5,5.75,22.34,2.47c10.7-7.25,15.27-21.05,11.01-33.49
		c-0.93-2.71-2.09-5.34-3.26-8.31c23.19,0.4,42.96-8.75,62.94-20.69C224.81,241.96,205.98,232.39,183.82,231.52z M211.1,256.23
		c-6.24,2.22-12.55,4.46-19,5.83c-6.55,1.4-11.39-2.04-15.04-7.85c5.57-7.12,13.07-7.08,20.49-5.72c4.48,0.82,8.69,3.21,13.03,4.83
		C212.54,254.05,212.86,255.6,211.1,256.23z"/>
	
		<linearGradient id="SVGID_00000022550203285456244530000010804222375095371139_" gradientUnits="userSpaceOnUse" x1="286.9981" y1="58.0961" x2="338.9204" y2="39.5546">
		<stop  offset="0" style="stop-color:#FAE862"/>
		<stop  offset="0.2598" style="stop-color:#B8A240"/>
		<stop  offset="0.5056" style="stop-color:#F6E95F"/>
		<stop  offset="0.7635" style="stop-color:#C69E3B"/>
		<stop  offset="1" style="stop-color:#ECD74F"/>
	</linearGradient>
	<path style="fill:url(#SVGID_00000022550203285456244530000010804222375095371139_);" d="M318.02,30.6
		c-6.04,1.56-11.88,3.24-17.04,7.53c-7.39,6.14-11.17,14.12-14.11,22.83c-0.23,0.68,0.33,1.63,0.52,2.45
		c0.87-0.23,1.94-0.21,2.56-0.74c3.04-2.59,5.85-5.46,8.95-7.97c4.97-4.04,11.1-6.52,17.09-6.09c5.38,0.39,10.69,3.43,15.76,5.87
		c2.57,1.24,5.24,3.47,7.59,1.59c1.92-1.53,2.51-4.76,3.11-6.01C342.28,37.84,328.82,27.82,318.02,30.6z"/>
	
		<linearGradient id="SVGID_00000150802057887371829660000016039862117015605669_" gradientUnits="userSpaceOnUse" x1="-3.6261" y1="150.3647" x2="111.3554" y2="109.3048">
		<stop  offset="0" style="stop-color:#FAE862"/>
		<stop  offset="0.2598" style="stop-color:#B8A240"/>
		<stop  offset="0.5056" style="stop-color:#F6E95F"/>
		<stop  offset="0.7635" style="stop-color:#C69E3B"/>
		<stop  offset="1" style="stop-color:#ECD74F"/>
	</linearGradient>
	<path style="fill:url(#SVGID_00000150802057887371829660000016039862117015605669_);" d="M13.67,90.67
		c-1.39,8.63-2.73,17.27-4.11,25.91c-1.69,10.51-4.13,20.97-4.92,31.55c-1.09,14.52-1.34,29.12,3.13,43.39
		c2.58,8.24,6.54,15.74,11.9,22.15c4.87,5.82,10.47,11.08,17.06,15.31c6.94,4.45,14.15,8.09,22.08,9.42
		c15.13,2.55,29.73-0.86,43.36-7.23c7.72-3.61,15.3-8.23,20.94-15.19c1.75-2.16,3.39-4.41,5.22-6.49
		c5.81-6.58,9.09-14.68,9.13-23.06c0.07-16.77-7.49-29.73-21.37-39.39c-13.01-9.06-29.02-4.26-36.99,5.16
		c-7.36,8.69-11.16,18.98-11.15,30.71c0.02,9.4,4.85,19.28,15.45,22.36c2,0.58,4.44,1.6,6.13,0.95c7.18-2.76,12.23-8.11,13.27-15.88
		c1.48-11,1.08-21.9-6.76-30.82c4.79-5.6,13.27-6.94,17.13-5.07c11.53,5.6,16.31,15.84,17.72,28.02c0.88,7.55-2.4,14.16-6.17,20.27
		c-5.79,9.38-14.19,16.05-24.13,20.25c-7.06,2.98-14.49,5.77-22,6.78c-13.39,1.79-26.19-0.47-38.26-7.78
		c-9.12-5.52-16.13-13-20.73-21.98c-3.62-7.05-4.74-15.72-5.68-23.83c-1.51-13.13,1.99-25.11,9.24-36.37
		c6.33-9.83,13.11-17.29,25.92-14.87c0.96,0.18,2.09-0.55,3.14-0.85c-0.38-1.13-0.49-2.49-1.19-3.36
		c-3.26-4.02-7.46-6.46-12.65-6.68c-4.02-0.17-8.05-0.03-12.16-0.03c1.8-2.79,3.79-5.98,5.89-9.1c6.92-10.26,12-21.35,10.43-34
		c-1.23-9.96-3.87-19.69-8.99-28.64c-3.91-6.83-8.78-12.45-15.21-16.79c-2.5-1.69-4.91-1.1-5.49,1.81
		c-0.41,2.05-0.29,4.41,0.31,6.42c3.88,12.93,4.18,26.18,3.29,39.46C16.07,79.06,14.6,84.85,13.67,90.67z"/>
	
		<linearGradient id="SVGID_00000011737369608900061250000003528677480315772084_" gradientUnits="userSpaceOnUse" x1="92.8602" y1="258.0211" x2="118.7161" y2="248.7879">
		<stop  offset="0" style="stop-color:#FAE862"/>
		<stop  offset="0.2598" style="stop-color:#B8A240"/>
		<stop  offset="0.5056" style="stop-color:#F6E95F"/>
		<stop  offset="0.7635" style="stop-color:#C69E3B"/>
		<stop  offset="1" style="stop-color:#ECD74F"/>
	</linearGradient>
	<path style="fill:url(#SVGID_00000011737369608900061250000003528677480315772084_);" d="M97.77,246.66
		c-1.58,1.95-3.46,3.65-5.24,5.42c-1.75,1.74-2.32,3.23,0.19,4.94c1.4,0.96,2.36,2.56,3.61,3.77c1.78,1.73,3.41,4.02,5.56,4.79
		c1.23,0.44,3.34-1.65,5.06-2.58c0.56-0.3,1.19-0.48,1.73-0.81c3.98-2.49,7.95-5,12.42-7.82c-5.55-3.46-10.52-6.57-15.5-9.65
		C102.37,242.75,99.97,243.94,97.77,246.66z"/>
	
		<linearGradient id="SVGID_00000126303190928976726940000009066625372615766951_" gradientUnits="userSpaceOnUse" x1="197.2159" y1="202.6294" x2="305.8102" y2="163.8503">
		<stop  offset="0" style="stop-color:#FAE862"/>
		<stop  offset="0.2598" style="stop-color:#B8A240"/>
		<stop  offset="0.5056" style="stop-color:#F6E95F"/>
		<stop  offset="0.7635" style="stop-color:#C69E3B"/>
		<stop  offset="1" style="stop-color:#ECD74F"/>
	</linearGradient>
	<path style="fill:url(#SVGID_00000126303190928976726940000009066625372615766951_);" d="M268.8,189.08
		c5.85,2.24,11.65,2.81,20.34,2.13c11.31-0.89,20.46-10.88,19.51-22.3c-0.33-3.94-2.5-7.91-4.49-11.49
		c-4.2-7.57-14.8-9.65-21.21-4.11c-1.35,1.17-2,4.15-1.68,6.06c0.29,1.67,2.2,3.44,3.83,4.28c0.63,0.32,2.48-1.81,3.98-2.99
		c2.91,0.7,5.45,3.53,5.96,7.03c0.57,3.89-0.95,6.99-4.21,8.72c-9.17,4.87-18.79,2.61-26.02-4.91
		c-5.41-5.63-10.27-12.06-12.71-19.69c-1.83-5.73-1.99-11.76,2.06-16.9c2.58-3.28,5.48-6.31,8.7-9.98
		c-7.82,1.68-12.15,7.09-16.3,12.89c-4.34-8-10.67-13.13-15.82-12.86c0.61,0.68,1.03,1.26,1.55,1.72
		c10.35,9.23,12.67,21.4,5.34,32.57c-3.96,6.04-8.41,11.86-15.22,15.42c-7.43,3.89-14.94,5.04-22.09-1.07
		c-2.98-2.55-2.68-5.19-2.14-8.28c0.56-3.2,2.44-4.84,4.88-5.05c1.62,1.43,2.75,3.27,3.92,3.3c3.1,0.08,6.27-6.66,4.75-9.48
		c-2.64-4.89-8.98-6.89-14.13-4.91c-6.2,2.38-10.65,6.07-13.01,12.69c-2.08,5.85-0.76,16.88,3.6,21.08
		c9.19,8.85,22.47,11.21,35.06,4.98c1.17-0.58,2.45-0.94,4.17-1.59c-0.42,11.99,0.71,22.91,4.68,33.67
		c3.84,10.41,8.3,20.35,14.83,30.55C258.84,231.35,268.24,211.94,268.8,189.08z M238.75,194.58c0.28-3.85,1.8-6.88,4.48-9.42
		c2.87-2.71,6.07-2.32,7.14,1.42c1.29,4.49,2.64,9.38,2.1,13.87c-0.72,6.02-3.23,11.81-4.97,17.7c-0.55-0.09-1.1-0.17-1.65-0.26
		C241.54,210.76,238.1,203.38,238.75,194.58z"/>
	
		<linearGradient id="SVGID_00000029023756633120010110000003485386884314811529_" gradientUnits="userSpaceOnUse" x1="9.3303" y1="266.3415" x2="82.2273" y2="240.31">
		<stop  offset="0" style="stop-color:#FAE862"/>
		<stop  offset="0.2598" style="stop-color:#B8A240"/>
		<stop  offset="0.5056" style="stop-color:#F6E95F"/>
		<stop  offset="0.7635" style="stop-color:#C69E3B"/>
		<stop  offset="1" style="stop-color:#ECD74F"/>
	</linearGradient>
	<path style="fill:url(#SVGID_00000029023756633120010110000003485386884314811529_);" d="M6.07,257.07
		c3.9,2.23,7.91,4.28,11.81,6.53c5.44,3.13,10.81,6.4,16.25,9.53c0.79,0.46,1.94,0.89,2.73,0.65c5.54-1.64,10.96-3.75,16.56-5.16
		c6.86-1.73,13.87-2.87,20.79-4.41c2.42-0.54,4.99-1.11,7.04-2.4c2.72-1.72,5-4.15,7.47-6.28c-0.77-3.23-8.62-10.2-11.86-10.63
		c-6.17-0.81-12.41-1.28-18.49-2.53c-5.92-1.21-11.7-3.14-17.49-4.92c-2.91-0.9-5.48-2.85-8.73-0.35c-2.87,2.2-6.26,3.7-9.43,5.48
		c-5.58,3.13-11.2,6.18-16.74,9.38c-1.12,0.65-1.97,1.79-2.94,2.7C4.03,255.47,4.96,256.44,6.07,257.07z"/>
	
		<linearGradient id="SVGID_00000033331627568992396810000009547795076489648256_" gradientUnits="userSpaceOnUse" x1="30.6257" y1="191.8045" x2="59.693" y2="181.4245">
		<stop  offset="0" style="stop-color:#FAE862"/>
		<stop  offset="0.2598" style="stop-color:#B8A240"/>
		<stop  offset="0.5056" style="stop-color:#F6E95F"/>
		<stop  offset="0.7635" style="stop-color:#C69E3B"/>
		<stop  offset="1" style="stop-color:#ECD74F"/>
	</linearGradient>
	<path style="fill:url(#SVGID_00000033331627568992396810000009547795076489648256_);" d="M49.69,158.16
		c-5.74-3.81-13.99,0.29-17.53,4.76c-8.18,10.34-6.15,23.94,0.64,33.85c4.11,5.99,9.41,10.86,16.31,13.43
		c3.1,1.15,6.4,1.73,9.61,2.56c0.17-0.45,0.34-0.9,0.51-1.35c-2.75-3.23-6.09-6.14-8.11-9.79c-2.59-4.69-4.95-9.83-5.93-15.05
		c-1.41-7.58,2.6-14.11,6.34-20.36C53.97,162.15,53.73,160.84,49.69,158.16z"/>
	
		<linearGradient id="SVGID_00000078741352776510555690000017849360966084352658_" gradientUnits="userSpaceOnUse" x1="153.1825" y1="58.1025" x2="197.5114" y2="42.2726">
		<stop  offset="0" style="stop-color:#FAE862"/>
		<stop  offset="0.2598" style="stop-color:#B8A240"/>
		<stop  offset="0.5056" style="stop-color:#F6E95F"/>
		<stop  offset="0.7635" style="stop-color:#C69E3B"/>
		<stop  offset="1" style="stop-color:#ECD74F"/>
	</linearGradient>
	<path style="fill:url(#SVGID_00000078741352776510555690000017849360966084352658_);" d="M159.51,55.02
		c3.03-1.03,5.9-2.64,8.72-4.22c8.33-4.66,15.91-1.66,23.07,2.65c4.26,2.56,7.94,6.12,12.22,9.49c0.82-7.83-3.12-13.28-6.81-18.53
		c-5.94-8.44-14.67-13.11-24.6-13.82c-5.09-0.36-10.94,1.39-15.43,3.99c-4.44,2.56-7.55,7.63-7.5,13.32
		c0.02,2.77,0.87,6.45,2.73,7.99C153.3,57.06,157.04,55.85,159.51,55.02z"/>
	
		<linearGradient id="SVGID_00000104665815905592958260000000613462625170471343_" gradientUnits="userSpaceOnUse" x1="40.8496" y1="106.7483" x2="68.5089" y2="96.8711">
		<stop  offset="0" style="stop-color:#FAE862"/>
		<stop  offset="0.2598" style="stop-color:#B8A240"/>
		<stop  offset="0.5056" style="stop-color:#F6E95F"/>
		<stop  offset="0.7635" style="stop-color:#C69E3B"/>
		<stop  offset="1" style="stop-color:#ECD74F"/>
	</linearGradient>
	<path style="fill:url(#SVGID_00000104665815905592958260000000613462625170471343_);" d="M65.1,105.71
		c1.07,0.62,3.05,1.45,3.51,1.01c1.15-1.12,2.64-3.25,2.25-4.36c-0.98-2.85-2.31-6.2-4.56-7.85c-7.86-5.77-22.78-1.92-26.59,11.32
		c1.61-0.67,2.82-1.03,3.89-1.64c5.01-2.88,10-5.88,15.87-2.31C61.41,103.05,63.15,104.57,65.1,105.71z"/>
	
		<linearGradient id="SVGID_00000178179740676734952220000008241404921580097674_" gradientUnits="userSpaceOnUse" x1="84.7704" y1="63.9066" x2="102.8525" y2="57.4495">
		<stop  offset="0" style="stop-color:#FAE862"/>
		<stop  offset="0.2598" style="stop-color:#B8A240"/>
		<stop  offset="0.5056" style="stop-color:#F6E95F"/>
		<stop  offset="0.7635" style="stop-color:#C69E3B"/>
		<stop  offset="1" style="stop-color:#ECD74F"/>
	</linearGradient>
	<path style="fill:url(#SVGID_00000178179740676734952220000008241404921580097674_);" d="M98.26,43.86
		c-2.74,1.27-5.13,1.75-6.63,3.19c-5.23,5.02-7.59,11.13-6.59,18.69c0.52,3.9,5.6,9.48,9.01,9.65c2.03,0.1,4.56-1.24,6.12-2.73
		c1.99-1.91-0.61-2.83-1.68-4.13c-3.49-4.22-5.5-9.08-4.15-14.62C95.12,50.76,96.69,47.81,98.26,43.86z"/>
	
		<linearGradient id="SVGID_00000129185870287569684630000003712588982342445233_" gradientUnits="userSpaceOnUse" x1="51.6054" y1="97.2554" x2="218.445" y2="37.677">
		<stop  offset="0" style="stop-color:#FAE862"/>
		<stop  offset="0.2598" style="stop-color:#B8A240"/>
		<stop  offset="0.5056" style="stop-color:#F6E95F"/>
		<stop  offset="0.7635" style="stop-color:#C69E3B"/>
		<stop  offset="1" style="stop-color:#ECD74F"/>
	</linearGradient>
	<path style="fill:url(#SVGID_00000129185870287569684630000003712588982342445233_);" d="M195.3,16.38
		c-12.22-7.4-26.04-9-39.92-9.19c-7.74-0.11-15.5,0.96-23.23,1.75c-5.17,0.52-10.33,1.32-15.44,2.27
		c-6.7,1.25-13.34,2.87-20.04,4.15c-3.13,0.6-6.35,0.67-9.5,1.15c-8.88,1.33-17.71,3.08-26.63,4.05
		c-9.69,1.06-19.25-0.62-28.66-3.01c-2.81-0.71-5.57-1.78-8.41-2.08c-1.36-0.14-3.52,0.74-4.14,1.85c-0.61,1.08-0.18,3.31,0.57,4.55
		c5.18,8.47,12.76,13.8,21.71,17.81c9.18,4.12,18.42,6.58,28.51,6.63c9.49,0.04,17.27-4.42,25.14-8.64
		c4.32-2.32,8.13-5.63,12.79-8.93c-0.16,2.54-0.17,4.56-0.44,6.54c-1,7.12-0.53,13.81,5.33,18.88c1.09,0.95,2.54,1.48,3.82,2.2
		c0.32-1.65,0.79-3.3,0.91-4.97c0.21-3.02-0.48-6.3,0.42-9.05c3.63-11.01,13.25-16.07,22.44-20.66c10.79-5.39,22.63-6.57,34.52-3.85
		c5.63,1.28,11.45,2.5,16.6,4.99c7.27,3.5,13.07,9.08,18.19,15.6c5.92,7.54,9.88,15.74,11.15,25.21c1.91,14.26,0.35,28.2-5.97,41.13
		c-4.39,8.99-9.74,17.69-18.18,23.43c-5.27,3.59-10.88,6.73-17.62,7.35c-8.27,0.76-15.79-1.31-22.42-5.83
		c-6.52-4.44-11.2-10.63-9.67-19.34c0.61-3.44,2.42-6.67,3.8-10.29c2.68,1.87,4.55,3.98,6.82,4.61c7.91,2.2,15.79,4.64,24.28,2.6
		c5.96-1.44,10.71-4.49,14.14-9.35c3.98-5.64-0.67-18.22-7.12-21.62c-9.33-4.92-18.74-4.54-28.45-1.77
		c-8.93,2.55-16.62,7.45-21.45,15.24c-6.33,10.19-6.25,21.18,0.22,31.66c4.21,6.82,10.34,11.47,17.04,15.58
		c8.83,5.42,18.52,7.4,28.2,4.81c12.87-3.45,23.05-11.64,30.55-22.86c2.66-3.98,4.54-8.5,6.75-12.79
		c7.13-13.79,8.82-28.23,6.72-43.69c-1.39-10.19-5.84-18.46-11.52-26.3C211.25,28.09,203.75,21.49,195.3,16.38z"/>
</g>
</svg>
